<svg xmlns="http://www.w3.org/2000/svg" viewBox="0 0 93.13 72.1"><defs><style>.cls-1{fill:#ff9600;stroke:#ff9600;stroke-miterlimit:10;stroke-width:6px;}</style></defs><title>Ресурс 6</title><g id="Слой_2" data-name="Слой 2"><g id="LOGO_blue"><path class="cls-1" d="M18.57,21.17h.26a21.91,21.91,0,0,0,15.64-6.91A16.56,16.56,0,0,1,58.9,14.1,21.1,21.1,0,0,0,74.35,21h.1a21.12,21.12,0,0,0,15.5-7c1-1.11-2.59-5.24-3.61-4.13a16.07,16.07,0,0,1-23.86.12,21.28,21.28,0,0,0-31.55.13,17,17,0,0,1-12.16,5.35,15.86,15.86,0,0,1-12-5.17c-1-1.11-4.63,3-3.61,4.13A20.74,20.74,0,0,0,18.57,21.17Z"/><path class="cls-1" d="M86.34,33.78a16.06,16.06,0,0,1-24,0,20.88,20.88,0,0,0-31.19,0c-6.72,7.28-17.88,7.48-24.38.44-1-1.12-4.63,3-3.61,4.12a20.7,20.7,0,0,0,15.39,6.8H19a22,22,0,0,0,15.75-7.23,16,16,0,0,1,24,0,20.89,20.89,0,0,0,31.2,0C91,36.8,87.36,32.67,86.34,33.78Z"/><path class="cls-1" d="M86.34,57.73a16.06,16.06,0,0,1-24,0,20.88,20.88,0,0,0-31.19,0c-6.72,7.29-17.88,7.48-24.38.44-1-1.11-4.63,3-3.61,4.12A20.71,20.71,0,0,0,18.57,69.1H19a22,22,0,0,0,15.75-7.23,16,16,0,0,1,24,0,20.89,20.89,0,0,0,31.2,0C91,60.75,87.36,56.62,86.34,57.73Z"/></g></g></svg>