<svg width="62" height="62" viewBox="0 0 62 62" fill="none" xmlns="http://www.w3.org/2000/svg">
<path d="M40.2394 16.4951H21.7606C18.8111 16.4951 16.4114 18.8948 16.4114 21.8443V40.3231C16.4114 43.2726 18.8111 45.6729 21.7606 45.6729H40.2394C43.1889 45.6729 45.5893 43.2733 45.5893 40.3231V21.8443C45.5893 18.8948 43.1896 16.4951 40.2394 16.4951ZM31 40.6892C25.704 40.6892 21.3952 36.3803 21.3952 31.0837C21.3952 25.7877 25.704 21.4789 31 21.4789C36.2966 21.4789 40.6055 25.7877 40.6055 31.0837C40.6055 36.3796 36.296 40.6892 31 40.6892ZM40.9143 23.4647C39.6606 23.4647 38.641 22.4452 38.641 21.1922C38.641 19.9392 39.6606 18.9196 40.9143 18.9196C42.1673 18.9196 43.1868 19.9392 43.1868 21.1922C43.1868 22.4452 42.1673 23.4647 40.9143 23.4647Z" fill="url(#paint0_linear)"/>
<path d="M31 25.5376C27.9428 25.5376 25.4533 28.0257 25.4533 31.0829C25.4533 34.1415 27.9428 36.6303 31 36.6303C34.0586 36.6303 36.546 34.1415 36.546 31.0829C36.546 28.0264 34.0579 25.5376 31 25.5376Z" fill="url(#paint1_linear)"/>
<path d="M31 0C13.8799 0 0 13.8799 0 31C0 48.1201 13.8799 62 31 62C48.1201 62 62 48.1201 62 31C62 13.8799 48.1201 0 31 0ZM49.6474 40.323C49.6474 45.5112 45.4276 49.731 40.2394 49.731H21.7606C16.5731 49.731 12.3526 45.5112 12.3526 40.323V21.8442C12.3526 16.6567 16.5731 12.4362 21.7606 12.4362H40.2394C45.4276 12.4362 49.6474 16.6567 49.6474 21.8442V40.323Z" fill="url(#paint2_linear)"/>
<defs>
<linearGradient id="paint0_linear" x1="31.0003" y1="16.4951" x2="31.0003" y2="45.6729" gradientUnits="userSpaceOnUse">
<stop stop-color="#F99225"/>
<stop offset="1" stop-color="#B33AA4"/>
</linearGradient>
<linearGradient id="paint1_linear" x1="30.9997" y1="25.5376" x2="30.9997" y2="36.6303" gradientUnits="userSpaceOnUse">
<stop stop-color="#FB9522"/>
<stop offset="1" stop-color="#B43BA2"/>
</linearGradient>
<linearGradient id="paint2_linear" x1="31" y1="0" x2="31" y2="62" gradientUnits="userSpaceOnUse">
<stop stop-color="#FD981C"/>
<stop offset="1" stop-color="#AD33AD"/>
</linearGradient>
</defs>
</svg>
