<svg width="62" height="62" viewBox="0 0 62 62" fill="none" xmlns="http://www.w3.org/2000/svg">
<path d="M31 62C48.1208 62 62 48.1208 62 31C62 13.8792 48.1208 0 31 0C13.8792 0 0 13.8792 0 31C0 48.1208 13.8792 62 31 62Z" fill="#EE8208"/>
<path fill-rule="evenodd" clip-rule="evenodd" d="M31.0858 18.4389C33.1266 18.4389 34.7884 20.0995 34.7884 22.1419C34.7884 24.1815 33.1266 25.8426 31.0858 25.8426C29.0445 25.8426 27.3827 24.1815 27.3827 22.1419C27.3827 20.0995 29.0445 18.4389 31.0858 18.4389ZM31.0858 31.0816C36.0171 31.0816 40.0274 27.0723 40.0274 22.1419C40.0274 17.2088 36.0171 13.197 31.0858 13.197C26.154 13.197 22.1428 17.2088 22.1428 22.1419C22.1428 27.0723 26.154 31.0816 31.0858 31.0816Z" fill="white"/>
<path fill-rule="evenodd" clip-rule="evenodd" d="M34.7183 38.9569C36.5715 38.5317 38.3612 37.7938 40.0061 36.7534C41.2535 35.9642 41.6288 34.3075 40.8429 33.0537C40.0586 31.7975 38.4126 31.4197 37.1649 32.2105C33.4344 34.5696 28.6316 34.5683 24.9036 32.2105C23.6559 31.4197 22.0088 31.7975 21.2251 33.0537C20.4394 34.3084 20.8145 35.9642 22.0609 36.7534C23.7068 37.7938 25.4954 38.5317 27.3489 38.9569L22.2584 44.0785C21.2168 45.1263 21.2168 46.8251 22.2596 47.8729C22.781 48.3972 23.4621 48.6583 24.1445 48.6583C24.828 48.6583 25.5113 48.3972 26.0314 47.8729L31.0331 42.8407L36.0391 47.8729C37.0784 48.922 38.7682 48.922 39.8085 47.8729C40.8528 46.8251 40.8528 45.125 39.8085 44.0785L34.7183 38.9569Z" fill="white"/>
</svg>
