<svg width="62" height="62" viewBox="0 0 62 62" fill="none" xmlns="http://www.w3.org/2000/svg">
<path d="M31 62C48.1208 62 62 48.1208 62 31C62 13.8792 48.1208 0 31 0C13.8792 0 0 13.8792 0 31C0 48.1208 13.8792 62 31 62Z" fill="#4D76A1"/>
<path fill-rule="evenodd" clip-rule="evenodd" d="M29.829 44.5963H32.2621C32.2621 44.5963 32.9971 44.5156 33.3723 44.1111C33.7177 43.7397 33.7066 43.0423 33.7066 43.0423C33.7066 43.0423 33.6591 39.7775 35.1744 39.2968C36.6681 38.8232 38.5861 42.4522 40.6192 43.8475C42.1565 44.9035 43.3247 44.672 43.3247 44.672L48.7607 44.5963C48.7607 44.5963 51.6044 44.4211 50.256 42.1852C50.1455 42.0023 49.4708 40.5313 46.2143 37.5086C42.8058 34.3449 43.2623 34.8566 47.3681 29.3842C49.8687 26.0514 50.8683 24.0167 50.5561 23.1453C50.2583 22.3153 48.4192 22.5346 48.4192 22.5346L42.2985 22.5728C42.2985 22.5728 41.8449 22.5109 41.5083 22.712C41.1795 22.9093 40.9679 23.3691 40.9679 23.3691C40.9679 23.3691 39.9992 25.9481 38.7072 28.1414C35.9817 32.7694 34.892 33.0137 34.4466 32.7263C33.4104 32.0566 33.6691 30.0357 33.6691 28.6C33.6691 24.1151 34.3493 22.2451 32.3445 21.761C31.6791 21.6002 31.1895 21.4941 29.4881 21.477C27.3042 21.4543 25.4557 21.4836 24.4091 21.9964C23.7128 22.3374 23.1757 23.0972 23.5028 23.1408C23.9073 23.195 24.8235 23.3879 25.3093 24.0493C25.9365 24.9026 25.9144 26.819 25.9144 26.819C25.9144 26.819 26.2747 32.0986 25.0728 32.7545C24.2477 33.2043 23.116 32.2859 20.6862 28.0872C19.4412 25.9365 18.5012 23.5592 18.5012 23.5592C18.5012 23.5592 18.3199 23.1149 17.9967 22.8773C17.6043 22.5893 17.0561 22.4976 17.0561 22.4976L11.24 22.5357C11.24 22.5357 10.3668 22.5601 10.0463 22.9397C9.76119 23.2773 10.0237 23.9758 10.0237 23.9758C10.0237 23.9758 14.5771 34.6289 19.7329 39.9975C24.4605 44.9195 29.829 44.5963 29.829 44.5963Z" fill="white"/>
</svg>
