<svg width="16" height="23" viewBox="0 0 16 23" fill="none" xmlns="http://www.w3.org/2000/svg">
<path d="M14.7409 0H14.0206C13.5555 0 13.1599 0.302055 13.0189 0.720189H8.59595V0.697009C8.59595 0.312657 8.28334 0 7.89899 0H6.45856C6.07421 0 5.76156 0.312657 5.76156 0.697009V2.49753C5.76156 2.68359 5.9124 2.83444 6.09847 2.83444H6.12165V3.60099H5.37828C4.79537 3.60099 4.32118 4.07523 4.32118 4.65809V5.7616H3.18879C2.68831 5.7616 2.21888 6.02988 1.96358 6.46171C0.697324 8.6039 0 11.4162 0 14.3808C0 17.3453 0.697324 20.1577 1.96358 22.2998C2.21888 22.7317 2.68835 23 3.18879 23H11.1689C11.6693 23 12.1388 22.7317 12.394 22.2998C13.6603 20.1577 14.3576 17.3453 14.3576 14.3808C14.3576 11.4162 13.6603 8.60386 12.394 6.46167C12.1387 6.02983 11.6692 5.76156 11.1689 5.76156H10.0364V4.65805C10.0364 4.07514 9.56218 3.60094 8.97932 3.60094H8.23595V2.83444H8.25913C8.44524 2.83444 8.59604 2.68359 8.59604 2.49753V1.39402H13.019C13.16 1.81215 13.5556 2.11421 14.0207 2.11421H14.7409C14.927 2.11421 15.0778 1.96336 15.0778 1.77729V0.336915C15.0778 0.150848 14.9269 0 14.7409 0ZM6.43539 0.697009C6.43539 0.684206 6.44576 0.673829 6.45856 0.673829H7.89899C7.91175 0.673829 7.92217 0.684206 7.92217 0.697009V2.16061H6.43539V0.697009ZM7.56207 2.83444V3.60099H6.79548V2.83444H7.56207ZM8.97923 4.27482C9.19063 4.27482 9.36255 4.44678 9.36255 4.65809V5.7616H8.97932C8.7932 5.7616 8.6424 5.91245 8.6424 6.09852C8.6424 6.28458 8.7932 6.43543 8.97932 6.43543H11.1688C11.4321 6.43543 11.6793 6.57689 11.8139 6.8046C13.0197 8.84446 13.6837 11.5351 13.6837 14.3808C13.6837 17.2265 13.0197 19.9171 11.8139 21.957C11.6793 22.1847 11.4321 22.3262 11.1688 22.3262H3.18874C2.92541 22.3262 2.6782 22.1847 2.54362 21.957C1.33782 19.9171 0.673784 17.2264 0.673784 14.3808C0.673784 11.5351 1.33782 8.84446 2.54362 6.8046C2.6782 6.57689 2.92545 6.43543 3.18874 6.43543H7.53885C7.72496 6.43543 7.87576 6.28458 7.87576 6.09852C7.87576 5.91245 7.72496 5.7616 7.53885 5.7616H4.99496V4.65809C4.99496 4.44674 5.16692 4.27482 5.37824 4.27482H8.97923ZM14.0207 1.44038C13.8093 1.44038 13.6374 1.26842 13.6374 1.0571C13.6374 0.845791 13.8093 0.673829 14.0206 0.673829H14.4039V1.44038H14.0207Z" fill="#0C5DA5"/>
</svg>
