<svg width="22" height="17" viewBox="0 0 22 17" fill="none" xmlns="http://www.w3.org/2000/svg">
<path d="M20.2438 4.49864H19.7939V1.79946C19.7939 0.807054 18.9869 0 17.9945 0C17.002 0 16.1951 0.807011 16.1951 1.79858L16.1942 2.24934C16.1937 2.498 16.3945 2.69964 16.6432 2.7001C16.6436 2.7001 16.6436 2.7001 16.6436 2.7001C16.8922 2.7001 17.0935 2.49935 17.0939 2.25111L17.0948 1.79951C17.0948 1.30353 17.4985 0.899795 17.9945 0.899795C18.4905 0.899795 18.8942 1.30345 18.8942 1.79946V4.49864H1.34959C0.605375 4.49864 0 5.10401 0 5.84823C0 6.43395 0.37721 6.92862 0.899711 7.11494V8.5474C0.899711 10.6123 1.97829 12.4266 3.59889 13.4675V15.7452C3.59889 15.9938 3.8001 16.1951 4.04876 16.1951H4.94848C5.11895 16.1951 5.27444 16.0989 5.35091 15.9464L6.14227 14.364C6.34146 14.3846 6.54344 14.3956 6.74794 14.3956H14.8455C15.05 14.3956 15.2519 14.3846 15.4511 14.364L16.2425 15.9464C16.319 16.0989 16.4745 16.1951 16.6449 16.1951H17.5446C17.7933 16.1951 17.9945 15.9938 17.9945 15.7452V13.4675C19.6151 12.4265 20.6937 10.6123 20.6937 8.54736V7.1149C21.2162 6.92862 21.5934 6.43395 21.5934 5.84823C21.5934 5.10401 20.988 4.49864 20.2438 4.49864ZM5.39835 5.39835H9.89699V9.81572L5.39835 9.06624V5.39835ZM0.899711 5.84823C0.899711 5.59999 1.10139 5.39835 1.34959 5.39835H4.49864V6.29806H1.34959C1.10139 6.29806 0.899711 6.09643 0.899711 5.84823ZM4.67042 15.2953H4.49864V13.9444C4.73267 14.0423 4.97635 14.1201 5.22455 14.1873L4.67042 15.2953ZM17.0948 15.2953H16.923L16.3689 14.1873C16.617 14.1202 16.8607 14.0423 17.0948 13.9444V15.2953ZM19.7939 8.5474C19.7939 11.276 17.5741 13.4959 14.8455 13.4959H6.74794C4.01933 13.4959 1.79946 11.276 1.79946 8.5474V7.19782H4.49864V9.44711C4.49864 9.66722 4.65768 9.85482 4.87471 9.89083L10.2731 10.7905C10.2977 10.7945 10.3223 10.7967 10.3469 10.7967C10.4527 10.7967 10.556 10.7594 10.6377 10.69C10.7388 10.6047 10.7967 10.4791 10.7967 10.3469V7.19782H19.794V8.5474H19.7939ZM20.2438 6.29806H10.7967V5.39835H20.2438C20.492 5.39835 20.6937 5.59999 20.6937 5.84823C20.6937 6.09643 20.492 6.29806 20.2438 6.29806Z" fill="#0C5DA5"/>
</svg>
