<svg width="14" height="22" viewBox="0 0 14 22" fill="none" xmlns="http://www.w3.org/2000/svg">
<path d="M1.0857 19.6863H2.1714V21.1445C2.1714 21.5472 2.49545 21.8736 2.8952 21.8736H3.61899C4.01874 21.8736 4.34279 21.5472 4.34279 21.1445V19.6863H9.40939V21.1445C9.40939 21.5472 9.73344 21.8736 10.1332 21.8736H10.857C11.2567 21.8736 11.5808 21.5472 11.5808 21.1445V19.6863H12.6665C13.2661 19.6863 13.7522 19.1966 13.7522 18.5926V2.55192C13.7522 1.9479 13.2661 1.45824 12.6665 1.45824H8.60597L8.38123 0.552309C8.3007 0.227756 8.01124 5.0652e-05 7.67915 0H6.07304C5.74094 5.0652e-05 5.45148 0.227756 5.37095 0.552309L5.14621 1.45824H1.0857C0.486084 1.45824 0 1.9479 0 2.55192V18.5926C0 19.1966 0.486084 19.6863 1.0857 19.6863ZM3.61899 21.1445H2.8952V19.6863H3.61899V21.1445ZM10.857 21.1445H10.1332V19.6863H10.857V21.1445ZM6.07304 0.729121H7.67915L7.8601 1.45824H5.89209L6.07304 0.729121ZM1.0857 2.18736H12.6665C12.8664 2.18736 13.0284 2.35058 13.0284 2.55192V16.0407H10.4951C10.2952 16.0407 10.1332 16.2039 10.1332 16.4052C10.1332 16.6066 10.2952 16.7698 10.4951 16.7698H13.0284V18.5926C13.0284 18.7939 12.8664 18.9571 12.6665 18.9571H1.0857C0.885827 18.9571 0.723799 18.7939 0.723799 18.5926V16.7698H9.04749C9.24736 16.7698 9.40939 16.6066 9.40939 16.4052C9.40939 16.2039 9.24736 16.0407 9.04749 16.0407H0.723799V2.55192C0.723799 2.35058 0.885827 2.18736 1.0857 2.18736Z" fill="#0C5DA5"/>
<path d="M1.80953 18.228C2.0094 18.228 2.17143 18.0648 2.17143 17.8635C2.17143 17.6621 2.0094 17.4989 1.80953 17.4989C1.60966 17.4989 1.44763 17.6621 1.44763 17.8635C1.44763 18.0648 1.60966 18.228 1.80953 18.228Z" fill="#0C5DA5"/>
<path d="M6.51417 17.4989H3.61898C3.41911 17.4989 3.25708 17.6621 3.25708 17.8635C3.25708 18.0648 3.41911 18.228 3.61898 18.228H6.51417C6.71405 18.228 6.87607 18.0648 6.87607 17.8635C6.87607 17.6621 6.71405 17.4989 6.51417 17.4989Z" fill="#0C5DA5"/>
<path d="M1.80953 4.01016C2.0094 4.01016 2.17143 3.84694 2.17143 3.6456V3.28104C2.17143 3.0797 2.0094 2.91648 1.80953 2.91648C1.60966 2.91648 1.44763 3.0797 1.44763 3.28104V3.6456C1.44763 3.84694 1.60966 4.01016 1.80953 4.01016Z" fill="#0C5DA5"/>
<path d="M1.80953 10.9368C2.0094 10.9368 2.17143 10.7736 2.17143 10.5723V5.10385C2.17143 4.90251 2.0094 4.73929 1.80953 4.73929C1.60966 4.73929 1.44763 4.90251 1.44763 5.10385V10.5723C1.44763 10.7736 1.60966 10.9368 1.80953 10.9368Z" fill="#0C5DA5"/>
</svg>
