<svg width="26" height="26" viewBox="0 0 26 26" fill="none" xmlns="http://www.w3.org/2000/svg">
<path d="M15.9075 25.2973C15.3479 25.2429 14.8077 25.0639 14.3264 24.7734C13.9213 24.5282 13.4696 24.3701 13 24.3089C12.5306 24.3702 12.079 24.5285 11.674 24.7738C11.0328 25.0932 10.3702 25.4231 9.7184 25.2495C9.03994 25.0679 8.62289 24.4354 8.21953 23.8234C8.00163 23.4245 7.70409 23.0747 7.34537 22.7957C6.91759 22.6195 6.45803 22.5335 5.99548 22.5431C5.27134 22.4984 4.52261 22.4524 4.03529 21.9651C3.54797 21.4778 3.50159 20.7297 3.45697 20.0052C3.46646 19.5431 3.38046 19.0841 3.20434 18.6568C2.92528 18.2979 2.57548 18.0003 2.17664 17.7822C1.56494 17.3789 0.932155 16.9618 0.750507 16.2834C0.574831 15.6323 0.906858 14.9693 1.22624 14.3281C1.47177 13.9225 1.63008 13.4702 1.69107 13C1.62983 12.5305 1.47153 12.0789 1.22624 11.674C0.906858 11.0324 0.576236 10.3694 0.750507 9.71838C0.932155 9.03992 1.56459 8.62286 2.17664 8.21951C2.57551 8.0015 2.92531 7.70384 3.20434 7.345C3.38056 6.91722 3.46656 6.45766 3.45697 5.99511C3.50159 5.27097 3.54762 4.52224 4.03494 4.03492C4.52226 3.54759 5.27029 3.50156 5.99478 3.45694C6.45687 3.46644 6.91594 3.38044 7.34326 3.20432C7.70207 2.92526 7.99973 2.57546 8.21778 2.17662C8.62113 1.56492 9.03818 0.932132 9.71664 0.750484C10.367 0.577267 11.0307 0.906835 11.6719 1.22621C12.0775 1.47174 12.5298 1.63006 13 1.69105C13.4695 1.62981 13.9211 1.47151 14.326 1.22621C14.9676 0.906835 15.6302 0.577267 16.2816 0.750484C16.9601 0.932132 17.3772 1.56456 17.7805 2.17662C17.9985 2.57549 18.2962 2.92529 18.655 3.20432C19.0828 3.38054 19.5424 3.46654 20.0049 3.45694C20.729 3.50156 21.4778 3.54759 21.9651 4.03492C22.4524 4.52224 22.4985 5.27027 22.5431 5.99475C22.5336 6.45685 22.6196 6.91592 22.7957 7.34324C23.0748 7.70205 23.4246 7.9997 23.8234 8.21775C24.4351 8.62111 25.0679 9.03816 25.2495 9.71662C25.4252 10.3677 25.0932 11.0307 24.7738 11.6719C24.5283 12.0775 24.37 12.5298 24.309 13C24.3702 13.4695 24.5285 13.921 24.7738 14.326C25.0932 14.9676 25.4238 15.6306 25.2495 16.2816C25.0679 16.9601 24.4355 17.3771 23.8234 17.7805C23.4246 17.9984 23.0748 18.2959 22.7957 18.6546C22.6195 19.0824 22.5335 19.542 22.5431 20.0045C22.4985 20.7287 22.4524 21.4774 21.9651 21.9647C21.4778 22.4521 20.7298 22.4984 20.0053 22.5431C19.5427 22.5334 19.0831 22.6194 18.6554 22.7957C18.2966 23.0747 17.9989 23.4245 17.7809 23.8234C17.3775 24.4351 16.9605 25.0679 16.282 25.2495C16.1598 25.2817 16.0339 25.2978 15.9075 25.2973ZM10.094 1.4054C10.0286 1.4049 9.96335 1.41305 9.90005 1.42965C9.47843 1.54173 9.13726 2.06208 8.80629 2.56346C8.53495 3.05785 8.15585 3.48486 7.69707 3.81286C7.17716 4.05126 6.61021 4.16943 6.03835 4.15859C5.41716 4.19689 4.83075 4.23308 4.53175 4.53208C4.23275 4.83108 4.19656 5.41784 4.15826 6.03867C4.16924 6.61051 4.05119 7.17747 3.81289 7.6974C3.48528 8.15582 3.05875 8.53468 2.56489 8.80592C2.06245 9.13689 1.54316 9.47946 1.43107 9.89967C1.32567 10.2939 1.58391 10.8132 1.85691 11.3602C2.15715 11.8594 2.34067 12.4199 2.39378 13C2.34014 13.5802 2.15601 14.1408 1.85516 14.6398C1.5811 15.1882 1.32426 15.7054 1.42932 16.1003C1.5414 16.5219 2.06175 16.8631 2.56313 17.1941C3.05752 17.4654 3.48453 17.8445 3.81253 18.3033C4.05093 18.8232 4.1691 19.3902 4.15826 19.962C4.19656 20.5832 4.23275 21.1696 4.53175 21.4686C4.83075 21.7676 5.41751 21.8038 6.03835 21.8421C6.61018 21.8311 7.17714 21.9492 7.69707 22.1875C8.15558 22.5149 8.53456 22.9414 8.80594 23.4351C9.13691 23.9376 9.47948 24.4569 9.8997 24.5689C10.2946 24.6743 10.8132 24.4161 11.3603 24.1431C11.8594 23.8429 12.42 23.6593 13 23.6062C13.5802 23.6599 14.1408 23.844 14.6398 24.1449C15.1886 24.4182 15.7068 24.6772 16.1003 24.5707C16.522 24.4586 16.8631 23.9383 17.1941 23.4369C17.4654 22.9425 17.8445 22.5155 18.3033 22.1875C18.8232 21.9491 19.3902 21.8309 19.962 21.8418C20.5832 21.8035 21.1696 21.7673 21.4686 21.4683C21.7676 21.1693 21.8038 20.5825 21.8421 19.9617C21.8312 19.3898 21.9492 18.8229 22.1875 18.3029C22.515 17.8444 22.9414 17.4655 23.4352 17.1941C23.9376 16.8631 24.4569 16.5205 24.569 16.1003C24.6744 15.7061 24.4161 15.1868 24.1431 14.6398C23.8429 14.1406 23.6594 13.5801 23.6063 13C23.6599 12.4198 23.844 11.8592 24.1449 11.3602C24.4179 10.8114 24.6761 10.2935 24.5707 9.89967C24.4586 9.47805 23.9383 9.13689 23.4369 8.80592C22.9425 8.53457 22.5155 8.15547 22.1875 7.6967C21.9491 7.17679 21.8309 6.60983 21.8418 6.03797C21.8035 5.41678 21.7673 4.83038 21.4683 4.53138C21.1693 4.23238 20.5825 4.19619 19.9617 4.15789C19.3899 4.16886 18.8229 4.05081 18.303 3.81251C17.8445 3.48505 17.4655 3.05864 17.1941 2.56486C16.8631 2.06243 16.5206 1.54313 16.1003 1.43105C15.7065 1.32565 15.1868 1.58389 14.6398 1.85689C14.1406 2.15712 13.5801 2.34065 13 2.39375C12.4198 2.34011 11.8593 2.15598 11.3603 1.85513C10.9737 1.61949 10.5426 1.46637 10.094 1.4054Z" fill="#0C5DA5"/>
<path d="M13.0001 21.4324C11.3323 21.4324 9.70196 20.9379 8.31526 20.0113C6.92855 19.0847 5.84774 17.7678 5.20951 16.227C4.57128 14.6861 4.40429 12.9906 4.72966 11.3549C5.05502 9.71918 5.85814 8.21667 7.03743 7.03737C8.21673 5.85808 9.71925 5.05496 11.355 4.7296C12.9907 4.40423 14.6862 4.57122 16.227 5.20945C17.7678 5.84768 19.0848 6.92849 20.0114 8.31519C20.9379 9.7019 21.4325 11.3322 21.4325 13C21.43 15.2357 20.5408 17.379 18.9599 18.9599C17.3791 20.5407 15.2357 21.4299 13.0001 21.4324ZM13.0001 5.27027C11.4713 5.27027 9.9768 5.72361 8.70566 6.57297C7.43451 7.42232 6.44377 8.62954 5.85872 10.042C5.27368 11.4544 5.1206 13.0086 5.41886 14.508C5.71711 16.0074 6.4533 17.3847 7.53432 18.4657C8.61534 19.5468 9.99265 20.283 11.4921 20.5812C12.9915 20.8795 14.5457 20.7264 15.9581 20.1413C17.3705 19.5563 18.5777 18.5656 19.4271 17.2944C20.2765 16.0233 20.7298 14.5288 20.7298 13C20.7275 10.9507 19.9123 8.98593 18.4632 7.53683C17.0141 6.08772 15.0494 5.2726 13.0001 5.27027Z" fill="#0C5DA5"/>
<path d="M9.60382 16.9141C9.53432 16.9141 9.46635 16.8935 9.40853 16.855C9.35071 16.8164 9.30564 16.7615 9.27901 16.6973C9.25238 16.6331 9.24539 16.5624 9.25893 16.4943C9.27247 16.4261 9.30592 16.3635 9.35507 16.3143L16.2851 9.38108C16.3177 9.34843 16.3565 9.32253 16.3991 9.30486C16.4417 9.28718 16.4874 9.27808 16.5336 9.27806C16.5797 9.27804 16.6254 9.28712 16.6681 9.30476C16.7107 9.32241 16.7495 9.34828 16.7821 9.3809C16.8147 9.41352 16.8406 9.45225 16.8583 9.49489C16.876 9.53752 16.8851 9.58321 16.8851 9.62936C16.8851 9.67551 16.8761 9.72121 16.8584 9.76385C16.8408 9.8065 16.8149 9.84525 16.7823 9.87789L9.85258 16.8111C9.81992 16.8438 9.78114 16.8697 9.73845 16.8874C9.69577 16.905 9.65002 16.9141 9.60382 16.9141Z" fill="#0C5DA5"/>
<path d="M15.2547 16.8916C14.9322 16.8916 14.617 16.796 14.3489 16.6168C14.0808 16.4377 13.8719 16.1831 13.7485 15.8852C13.6251 15.5873 13.5928 15.2595 13.6557 14.9432C13.7186 14.627 13.8739 14.3365 14.1019 14.1085C14.3299 13.8805 14.6204 13.7253 14.9366 13.6624C15.2529 13.5994 15.5806 13.6317 15.8785 13.7551C16.1764 13.8785 16.431 14.0875 16.6102 14.3556C16.7893 14.6237 16.8849 14.9389 16.8849 15.2613C16.8845 15.6935 16.7126 16.1079 16.4069 16.4136C16.1013 16.7192 15.6869 16.8911 15.2547 16.8916ZM15.2547 14.3337C15.0712 14.3337 14.8919 14.3881 14.7393 14.4901C14.5868 14.592 14.4679 14.7368 14.3977 14.9063C14.3275 15.0758 14.3091 15.2623 14.3449 15.4423C14.3807 15.6222 14.469 15.7875 14.5988 15.9172C14.7285 16.0469 14.8938 16.1353 15.0737 16.171C15.2536 16.2068 15.4401 16.1885 15.6096 16.1183C15.7791 16.0481 15.924 15.9292 16.0259 15.7766C16.1278 15.6241 16.1822 15.4448 16.1822 15.2613C16.1816 15.0156 16.0836 14.7802 15.9097 14.6066C15.7359 14.433 15.5003 14.3354 15.2547 14.3351V14.3337Z" fill="#0C5DA5"/>
<path d="M10.7454 12.3465C10.4229 12.3465 10.1077 12.2509 9.83965 12.0717C9.57156 11.8926 9.3626 11.638 9.23921 11.3401C9.11582 11.0422 9.08353 10.7144 9.14644 10.3982C9.20934 10.0819 9.36461 9.79143 9.59261 9.56343C9.82061 9.33544 10.1111 9.18017 10.4273 9.11726C10.7436 9.05436 11.0714 9.08664 11.3693 9.21004C11.6672 9.33343 11.9218 9.54238 12.1009 9.81048C12.28 10.0786 12.3757 10.3938 12.3757 10.7162C12.3752 11.1484 12.2033 11.5628 11.8976 11.8685C11.592 12.1741 11.1776 12.346 10.7454 12.3465ZM10.7454 9.78864C10.5619 9.78864 10.3826 9.84304 10.2301 9.94497C10.0775 10.0469 9.95863 10.1918 9.88842 10.3612C9.81822 10.5307 9.79985 10.7172 9.83564 10.8972C9.87143 11.0771 9.95977 11.2424 10.0895 11.3721C10.2192 11.5018 10.3845 11.5902 10.5644 11.626C10.7444 11.6617 10.9309 11.6434 11.1003 11.5732C11.2698 11.503 11.4147 11.3841 11.5166 11.2315C11.6185 11.079 11.673 10.8997 11.673 10.7162C11.6727 10.4703 11.5749 10.2345 11.401 10.0606C11.2271 9.88674 10.9913 9.78892 10.7454 9.78864Z" fill="#0C5DA5"/>
</svg>
