<svg width="22" height="22" viewBox="0 0 22 22" fill="none" xmlns="http://www.w3.org/2000/svg">
<path d="M19.3921 1.39404H7.15788C3.60001 1.39404 0.71579 4.25721 0.71579 7.78911C0.71579 11.321 3.60001 14.1842 7.15788 14.1842H7.93952C8.09064 14.6085 8.49398 14.8929 8.94735 14.8947H12.5263C12.9797 14.8929 13.383 14.6085 13.5341 14.1842H14.3158C14.7111 14.1842 15.0315 14.5023 15.0315 14.8947C15.0315 15.2872 14.7111 15.6053 14.3158 15.6053H2.08151C1.90799 15.1162 1.40443 14.8227 0.889663 14.9106C0.374892 14.9985 -0.00098777 15.4421 1.94991e-06 15.9606L1.94991e-06 20.9345C-0.00098777 21.453 0.374892 21.8967 0.889663 21.9845C1.40443 22.0724 1.90799 21.7789 2.08151 21.2898H14.3158C17.8736 21.2898 20.7579 18.4266 20.7579 14.8947C20.7579 11.3628 17.8736 8.49967 14.3158 8.49967H13.5341C13.383 8.07534 12.9797 7.79097 12.5263 7.78911H8.94735C8.49398 7.79097 8.09064 8.07534 7.93952 8.49967H7.15788C6.76256 8.49967 6.44209 8.18154 6.44209 7.78911C6.44209 7.39667 6.76256 7.07854 7.15788 7.07854L19.3921 7.07854C19.5657 7.56761 20.0692 7.86112 20.584 7.77326C21.0988 7.68539 21.4746 7.24177 21.4736 6.72326V1.74932C21.4746 1.23081 21.0988 0.787189 20.584 0.699326C20.0692 0.611462 19.5657 0.904978 19.3921 1.39404ZM0.71579 20.9345L0.71579 15.9606C0.71579 15.7644 0.876024 15.6053 1.07368 15.6053C1.27134 15.6053 1.43158 15.7644 1.43158 15.9606L1.43158 20.9345C1.43158 21.1307 1.27134 21.2898 1.07368 21.2898C0.876024 21.2898 0.71579 21.1307 0.71579 20.9345ZM20.0421 14.8947C20.0383 18.0327 17.4768 20.5755 14.3158 20.5792H2.14737L2.14737 16.3159H14.3158C15.1064 16.3159 15.7473 15.6796 15.7473 14.8947C15.7473 14.1099 15.1064 13.4736 14.3158 13.4736H13.6V9.21023H14.3158C17.4768 9.21395 20.0383 11.7568 20.0421 14.8947ZM12.5263 8.49967C12.7239 8.49967 12.8842 8.65874 12.8842 8.85495V13.8289C12.8842 14.0251 12.7239 14.1842 12.5263 14.1842H8.94735C8.74969 14.1842 8.58946 14.0251 8.58946 13.8289V8.85495C8.58946 8.65874 8.74969 8.49967 8.94735 8.49967H12.5263ZM5.72631 7.78911C5.72631 8.57397 6.36724 9.21023 7.15788 9.21023H7.87367V13.4736H7.15788C3.99533 13.4736 1.43158 10.9286 1.43158 7.78911C1.43158 4.64964 3.99533 2.1046 7.15788 2.1046H19.3263V6.36798L7.15788 6.36798C6.36724 6.36798 5.72631 7.00424 5.72631 7.78911ZM20.7579 1.74932V6.72326C20.7579 6.91948 20.5976 7.07854 20.4 7.07854C20.2023 7.07854 20.0421 6.91948 20.0421 6.72326V1.74932C20.0421 1.5531 20.2023 1.39404 20.4 1.39404C20.5976 1.39404 20.7579 1.5531 20.7579 1.74932Z" fill="#0C5DA5"/>
</svg>
