<svg width="20" height="20" viewBox="0 0 20 20" fill="none" xmlns="http://www.w3.org/2000/svg">
<path d="M17.5965 6.29368H7.65966V3.64386C7.65966 3.09506 8.10455 2.65017 8.65334 2.65017H15.6091C15.9722 2.64943 16.3192 2.50033 16.5697 2.23746C16.8221 1.97443 16.9541 1.61841 16.934 1.25438C16.8808 0.535368 16.2736 -0.0159005 15.5528 0.000350179H3.35369C2.07385 0.00199253 1.03674 1.0391 1.0351 2.31895V17.9744C0.826912 18.0684 0.657591 18.2314 0.555812 18.4358L0.0761935 19.3947C0.0248735 19.4974 0.0303967 19.6194 0.0907901 19.717C0.151184 19.8147 0.257833 19.8741 0.372643 19.874H8.32212C8.43692 19.8741 8.54357 19.8147 8.60397 19.717C8.66436 19.6194 8.66988 19.4974 8.61856 19.3947L8.13895 18.4358C8.03717 18.2314 7.86785 18.0684 7.65966 17.9744V10.2684H14.9467V10.9309C14.9467 11.2967 15.2433 11.5933 15.6091 11.5933H18.9214C19.2873 11.5933 19.5839 11.2967 19.5839 10.9309V10.1763C19.7882 10.0589 19.9144 9.84157 19.9151 9.60596V8.61228C19.9135 7.33243 18.8763 6.29532 17.5965 6.29368ZM1.69755 5.96245H6.9972V17.8867H1.69755V5.96245ZM1.69755 2.31895C1.69865 1.40474 2.43949 0.663901 3.35369 0.662806H15.5528C15.9192 0.651874 16.2323 0.924719 16.2716 1.28916C16.2815 1.47102 16.2161 1.64895 16.0908 1.7811C15.9655 1.91326 15.7913 1.98799 15.6091 1.98772H8.65334C7.73914 1.98881 6.9983 2.72965 6.9972 3.64386V5.3H1.69755V2.31895ZM0.90857 19.2116L1.14838 18.7323C1.20402 18.6197 1.31892 18.5486 1.4445 18.5491H7.25026C7.37584 18.5486 7.49074 18.6197 7.54638 18.7323L7.78619 19.2116H0.90857ZM18.9214 10.9309H15.6091V10.2684H18.9214V10.9309ZM19.2526 9.60596H7.65966V6.95614H17.5965C18.5107 6.95723 19.2515 7.69807 19.2526 8.61228V9.60596Z" fill="#0C5DA5"/>
</svg>
