<svg width="19" height="19" viewBox="0 0 19 19" fill="none" xmlns="http://www.w3.org/2000/svg">
<path d="M17.1771 0H1.59907C0.739157 0.00101257 0.0422723 0.697897 0.0412598 1.55781V15.2665C0.0412598 15.4386 0.180761 15.5781 0.352821 15.5781H0.975944V18.3821C0.975944 18.5542 1.11545 18.6937 1.28751 18.6937H2.53375C2.70581 18.6937 2.84531 18.5542 2.84531 18.3821V16.8243H15.9309V18.3821C15.9309 18.5542 16.0704 18.6937 16.2425 18.6937H17.4887C17.6608 18.6937 17.8003 18.5542 17.8003 18.3821V15.5781H18.4234C18.5954 15.5781 18.7349 15.4386 18.7349 15.2665V1.55781C18.7339 0.697897 18.037 0.00101257 17.1771 0ZM2.22219 18.0706H1.59907V16.8243H2.22219V18.0706ZM17.1771 18.0706H16.554V16.8243H17.1771V18.0706ZM17.1771 16.2012H1.59907V15.5781H17.1771V16.2012ZM18.1118 14.9549H0.664383V10.5931H18.1118V14.9549ZM18.1118 9.96996H0.664383V5.6081H18.1118V9.96996ZM18.1118 4.98498H0.664383V1.55781C0.664383 1.04159 1.08285 0.623123 1.59907 0.623123H17.1771C17.6934 0.623123 18.1118 1.04159 18.1118 1.55781V4.98498Z" fill="#0C5DA5"/>
</svg>
