<svg width="22" height="22" viewBox="0 0 22 22" fill="none" xmlns="http://www.w3.org/2000/svg">
<path d="M21.5499 0H20.4563C19.6509 0 18.998 0.652877 18.998 1.45824V2.55192H8.42577C7.01713 2.55373 5.87565 3.69521 5.87385 5.10385V5.93432C5.649 6.06352 5.51007 6.30277 5.50928 6.56209V7.65577C4.90526 7.65577 4.4156 8.14543 4.4156 8.74945V9.69366C2.25485 10.3404 0.773428 12.327 0.769999 14.5824V14.6495C0.268165 14.8263 -0.0330156 15.3392 0.0571425 15.8636C0.147301 16.3879 0.602507 16.7708 1.13456 16.7698H12.8005C13.3325 16.7708 13.7878 16.3879 13.8779 15.8636C13.9681 15.3392 13.6669 14.8263 13.1651 14.6495V14.5824C13.1616 12.327 11.6802 10.3404 9.51945 9.69366V8.74945C9.51945 8.14543 9.02979 7.65577 8.42577 7.65577V6.56209C8.42499 6.30277 8.28605 6.06352 8.06121 5.93432V5.10385C8.06121 4.90251 8.22443 4.73929 8.42577 4.73929H18.998V5.83297C18.998 6.63833 19.6509 7.29121 20.4563 7.29121H21.5499C21.7513 7.29121 21.9145 7.12799 21.9145 6.92665V0.364561C21.9145 0.163219 21.7513 0 21.5499 0ZM12.8005 16.0407H1.13456C0.933219 16.0407 0.769999 15.8774 0.769999 15.6761C0.769999 15.4748 0.933219 15.3115 1.13456 15.3115H12.8005C13.0018 15.3115 13.1651 15.4748 13.1651 15.6761C13.1651 15.8774 13.0018 16.0407 12.8005 16.0407ZM12.4359 14.5824H1.49912C1.50173 12.1674 3.45883 10.2103 5.87385 10.2077H8.06121C10.4762 10.2103 12.4333 12.1674 12.4359 14.5824ZM8.79033 8.74945V9.5369C8.54901 9.4999 8.30534 9.48041 8.06121 9.47857H5.87385C5.62972 9.48041 5.38604 9.4999 5.14472 9.5369V8.74945C5.14472 8.54811 5.30794 8.38489 5.50928 8.38489H8.42577C8.62711 8.38489 8.79033 8.54811 8.79033 8.74945ZM6.23841 7.65577V6.56209H7.69665V7.65577H6.23841ZM8.42577 4.01017C7.82174 4.01017 7.33209 4.49982 7.33209 5.10385V5.83297H6.60297V5.10385C6.60417 4.09764 7.41956 3.28225 8.42577 3.28104H18.998V4.01017H8.42577ZM21.1854 6.56209H20.4563C20.0536 6.56209 19.7271 6.23565 19.7271 5.83297V1.45824C19.7271 1.05556 20.0536 0.729121 20.4563 0.729121H21.1854V6.56209Z" fill="#0C5DA5"/>
<path d="M6.96734 17.4989C6.766 17.4989 6.60278 17.6621 6.60278 17.8635V18.9572C6.60278 19.1585 6.766 19.3217 6.96734 19.3217C7.16868 19.3217 7.3319 19.1585 7.3319 18.9572V17.8635C7.3319 17.6621 7.16868 17.4989 6.96734 17.4989Z" fill="#0C5DA5"/>
<path d="M6.96734 20.0508C6.766 20.0508 6.60278 20.214 6.60278 20.4154V21.5091C6.60278 21.7104 6.766 21.8736 6.96734 21.8736C7.16868 21.8736 7.3319 21.7104 7.3319 21.5091V20.4154C7.3319 20.214 7.16868 20.0508 6.96734 20.0508Z" fill="#0C5DA5"/>
<path d="M8.7901 18.5926C8.58876 18.5926 8.42554 18.7558 8.42554 18.9571V20.0508C8.42554 20.2522 8.58876 20.4154 8.7901 20.4154C8.99144 20.4154 9.15466 20.2522 9.15466 20.0508V18.9571C9.15466 18.7558 8.99144 18.5926 8.7901 18.5926Z" fill="#0C5DA5"/>
<path d="M12.4357 18.5926C12.2344 18.5926 12.0712 18.7558 12.0712 18.9571V20.0508C12.0712 20.2522 12.2344 20.4154 12.4357 20.4154C12.6371 20.4154 12.8003 20.2522 12.8003 20.0508V18.9571C12.8003 18.7558 12.6371 18.5926 12.4357 18.5926Z" fill="#0C5DA5"/>
<path d="M5.14459 18.5926C4.94325 18.5926 4.78003 18.7558 4.78003 18.9571V20.0508C4.78003 20.2522 4.94325 20.4154 5.14459 20.4154C5.34593 20.4154 5.50915 20.2522 5.50915 20.0508V18.9571C5.50915 18.7558 5.34593 18.5926 5.14459 18.5926Z" fill="#0C5DA5"/>
<path d="M1.49884 18.5926C1.2975 18.5926 1.13428 18.7558 1.13428 18.9571V20.0508C1.13428 20.2522 1.2975 20.4154 1.49884 20.4154C1.70018 20.4154 1.8634 20.2522 1.8634 20.0508V18.9571C1.8634 18.7558 1.70018 18.5926 1.49884 18.5926Z" fill="#0C5DA5"/>
<path d="M3.32171 17.4989C3.12037 17.4989 2.95715 17.6621 2.95715 17.8635V18.9572C2.95715 19.1585 3.12037 19.3217 3.32171 19.3217C3.52305 19.3217 3.68627 19.1585 3.68627 18.9572V17.8635C3.68627 17.6621 3.52305 17.4989 3.32171 17.4989Z" fill="#0C5DA5"/>
<path d="M3.32171 20.0508C3.12037 20.0508 2.95715 20.214 2.95715 20.4154V21.5091C2.95715 21.7104 3.12037 21.8736 3.32171 21.8736C3.52305 21.8736 3.68627 21.7104 3.68627 21.5091V20.4154C3.68627 20.214 3.52305 20.0508 3.32171 20.0508Z" fill="#0C5DA5"/>
<path d="M10.613 17.4989C10.4116 17.4989 10.2484 17.6621 10.2484 17.8635V18.9572C10.2484 19.1585 10.4116 19.3217 10.613 19.3217C10.8143 19.3217 10.9775 19.1585 10.9775 18.9572V17.8635C10.9775 17.6621 10.8143 17.4989 10.613 17.4989Z" fill="#0C5DA5"/>
<path d="M10.613 20.0508C10.4116 20.0508 10.2484 20.214 10.2484 20.4154V21.5091C10.2484 21.7104 10.4116 21.8736 10.613 21.8736C10.8143 21.8736 10.9775 21.7104 10.9775 21.5091V20.4154C10.9775 20.214 10.8143 20.0508 10.613 20.0508Z" fill="#0C5DA5"/>
</svg>
