<svg width="21" height="22" viewBox="0 0 21 22" fill="none" xmlns="http://www.w3.org/2000/svg">
<path d="M7.51752 5.75855H6.07796C5.48167 5.75855 4.99829 6.24194 4.99829 6.83822V7.91789H1.75928C1.23096 7.91657 0.779721 8.29873 0.694041 8.82005C0.608362 9.34137 0.913554 9.84786 1.4145 10.0157C1.57454 13.2713 4.25802 15.8302 7.51752 15.8355H8.59719V16.9151C8.59908 17.371 8.88714 17.7766 9.31697 17.9286V20.1542C9.31697 20.9492 9.96148 21.5937 10.7565 21.5937C11.5516 21.5937 12.1961 20.9492 12.1961 20.1542V17.9286C12.6259 17.7766 12.914 17.371 12.9159 16.9151V15.8355H13.9955C17.255 15.8302 19.9385 13.2713 20.0986 10.0157C20.5995 9.84786 20.9047 9.34137 20.819 8.82005C20.7333 8.29873 20.2821 7.91657 19.7538 7.91789H16.5148V6.83822C16.5148 6.24194 16.0314 5.75855 15.4351 5.75855H13.9955C13.3993 5.75855 12.9159 6.24194 12.9159 6.83822V7.91789H11.8362V2.87943C11.8354 2.05025 11.4775 1.26159 10.8539 0.714976C10.2304 0.168364 9.40172 -0.0832516 8.57956 0.0244218C7.12586 0.239528 6.05618 1.49788 6.07796 2.96724V3.23932C6.07796 3.63684 6.40022 3.9591 6.79774 3.9591H7.51752C7.91504 3.9591 8.2373 3.63684 8.2373 3.23932V2.87943C8.2371 2.66272 8.33455 2.45746 8.50259 2.32062C8.67063 2.18379 8.89138 2.12995 9.10356 2.17405C9.4464 2.25802 9.6848 2.56901 9.67686 2.9219V7.91789H8.59719V6.83822C8.59719 6.24194 8.11381 5.75855 7.51752 5.75855ZM5.71807 6.83822C5.71807 6.63946 5.8792 6.47833 6.07796 6.47833H7.51752C7.71628 6.47833 7.87741 6.63946 7.87741 6.83822V7.91789H5.71807V6.83822ZM11.4763 20.1542C11.4763 20.5517 11.1541 20.8739 10.7565 20.8739C10.359 20.8739 10.0368 20.5517 10.0368 20.1542V17.9948H11.4763V20.1542ZM12.1961 16.9151C12.1961 17.1139 12.035 17.275 11.8362 17.275H9.67686C9.4781 17.275 9.31697 17.1139 9.31697 16.9151V15.8355H12.1961V16.9151ZM13.9955 15.1157H7.51752C4.67721 15.1121 2.3241 12.911 2.13105 10.0772H19.382C19.189 12.911 16.8359 15.1121 13.9955 15.1157ZM20.1137 8.99756C20.1137 9.19632 19.9525 9.35745 19.7538 9.35745H1.75928C1.56052 9.35745 1.39939 9.19632 1.39939 8.99756C1.39939 8.7988 1.56052 8.63767 1.75928 8.63767H19.7538C19.9525 8.63767 20.1137 8.7988 20.1137 8.99756ZM13.6357 6.83822C13.6357 6.63946 13.7968 6.47833 13.9955 6.47833H15.4351C15.6339 6.47833 15.795 6.63946 15.795 6.83822V7.91789H13.6357V6.83822ZM9.24103 1.46758C8.81784 1.38243 8.37877 1.49169 8.04484 1.76524C7.7109 2.03879 7.51735 2.44776 7.51752 2.87943V3.23932H6.79774V2.96724C6.77548 1.85976 7.57651 0.906874 8.67133 0.738444C9.28827 0.657151 9.91033 0.845553 10.3785 1.25549C10.8467 1.66542 11.1155 2.25716 11.1164 2.87943V7.91789H10.3966V2.9219C10.4079 2.22344 9.92399 1.61438 9.24103 1.46758Z" fill="#0C5DA5"/>
</svg>
