<svg width="23" height="23" viewBox="0 0 23 23" fill="none" xmlns="http://www.w3.org/2000/svg">
<g clip-path="url(#clip0)">
<path d="M1.91673 20.3287H21.0833C22.1414 20.3273 22.9988 19.4699 23 18.412V4.61204C22.9988 3.55392 22.1414 2.69654 21.0833 2.69531H1.91673C0.858604 2.69654 0.00122833 3.55392 0 4.61204V18.412C0.00122833 19.4699 0.858604 20.3273 1.91673 20.3287ZM0.766655 4.61204C0.767357 3.97717 1.28185 3.46267 1.91673 3.46197H21.0833C21.7181 3.46267 22.2326 3.97717 22.2333 4.61204V18.412C22.2326 19.0469 21.7181 19.5612 21.0833 19.5619H1.91673C1.28185 19.5612 0.767357 19.0469 0.766655 18.412V4.61204Z" fill="#0C5DA5"/>
<path d="M2.6834 18.412H10.3499C10.9848 18.4113 11.4993 17.8968 11.5 17.2619V8.0619C11.5 8.03944 11.493 8.01873 11.4916 7.99627L11.7676 7.65146C12.566 7.50862 13.1146 6.76811 13.0188 5.96268C12.9228 5.15724 12.2158 4.56624 11.4061 4.61467C10.5967 4.6631 9.96513 5.3343 9.96583 6.14535C9.96583 6.16746 9.97162 6.18817 9.9725 6.2101L9.41167 6.912H2.6834C2.04852 6.91271 1.53403 7.4272 1.53333 8.0619V17.2619C1.53403 17.8968 2.04852 18.4113 2.6834 18.412ZM11.4993 5.37869C11.9227 5.37869 12.266 5.72193 12.266 6.14535C12.266 6.56877 11.9227 6.912 11.4993 6.912C11.0759 6.912 10.7327 6.56877 10.7327 6.14535C10.733 5.7221 11.0761 5.37922 11.4993 5.37869ZM10.873 7.54179L8.731 10.219C8.65818 10.3092 8.54851 10.3617 8.43252 10.362C8.34548 10.3624 8.2609 10.3327 8.19334 10.2776C8.0284 10.145 8.00208 9.90387 8.13438 9.73875L10.2754 7.05923C10.4305 7.26804 10.6361 7.43405 10.873 7.54179ZM2.29998 8.0619C2.30016 7.85027 2.47177 7.67883 2.6834 7.67866H8.79909L7.53601 9.25952C7.25946 9.60451 7.20506 10.0774 7.39633 10.4761C7.5876 10.8748 7.99049 11.1285 8.43252 11.1287C8.78154 11.1275 9.11126 10.969 9.33043 10.6974L10.7334 8.94402V17.2619C10.7332 17.4736 10.5616 17.6452 10.3499 17.6453H2.6834C2.47177 17.6452 2.30016 17.4736 2.29998 17.2619V8.0619Z" fill="#0C5DA5"/>
<path d="M14.1834 18.412H20.3166C20.9515 18.4113 21.466 17.8968 21.4667 17.2619V8.0619C21.466 7.4272 20.9515 6.9127 20.3166 6.912H14.1834C13.5485 6.9127 13.034 7.4272 13.0333 8.0619V17.2619C13.034 17.8968 13.5485 18.4113 14.1834 18.412ZM13.8 8.0619C13.8002 7.85027 13.9718 7.67883 14.1834 7.67866H20.3166C20.5283 7.67883 20.6999 7.85027 20.7001 8.0619V17.2619C20.6999 17.4736 20.5283 17.6452 20.3166 17.6453H14.1834C13.9718 17.6452 13.8002 17.4736 13.8 17.2619V8.0619Z" fill="#0C5DA5"/>
<path d="M14.9501 9.59538H19.55C19.7618 9.59538 19.9334 9.42377 19.9334 9.21197C19.9334 9.00034 19.7618 8.82873 19.55 8.82873H14.9501C14.7383 8.82873 14.5667 9.00034 14.5667 9.21197C14.5667 9.42377 14.7383 9.59538 14.9501 9.59538Z" fill="#0C5DA5"/>
<path d="M14.9501 11.8953H19.55C19.7618 11.8953 19.9334 11.7237 19.9334 11.5119C19.9334 11.3003 19.7618 11.1287 19.55 11.1287H14.9501C14.7383 11.1287 14.5667 11.3003 14.5667 11.5119C14.5667 11.7237 14.7383 11.8953 14.9501 11.8953Z" fill="#0C5DA5"/>
<path d="M14.9501 14.1953H19.55C19.7618 14.1953 19.9334 14.0237 19.9334 13.8119C19.9334 13.6003 19.7618 13.4287 19.55 13.4287H14.9501C14.7383 13.4287 14.5667 13.6003 14.5667 13.8119C14.5667 14.0237 14.7383 14.1953 14.9501 14.1953Z" fill="#0C5DA5"/>
<path d="M14.9501 16.4953H19.55C19.7618 16.4953 19.9334 16.3237 19.9334 16.112C19.9334 15.9002 19.7618 15.7286 19.55 15.7286H14.9501C14.7383 15.7286 14.5667 15.9002 14.5667 16.112C14.5667 16.3237 14.7383 16.4953 14.9501 16.4953Z" fill="#0C5DA5"/>
<path d="M2.29999 4.99528H2.6834C2.89503 4.99528 3.06664 4.82366 3.06664 4.61204C3.06664 4.40024 2.89503 4.22862 2.6834 4.22862H2.29999C2.08836 4.22862 1.91675 4.40024 1.91675 4.61204C1.91675 4.82366 2.08836 4.99528 2.29999 4.99528Z" fill="#0C5DA5"/>
<path d="M4.21667 4.99528H8.04994C8.26174 4.99528 8.43336 4.82366 8.43336 4.61204C8.43336 4.40024 8.26174 4.22862 8.04994 4.22862H4.21667C4.00487 4.22862 3.83325 4.40024 3.83325 4.61204C3.83325 4.82366 4.00487 4.99528 4.21667 4.99528Z" fill="#0C5DA5"/>
<path d="M6.51665 13.8119C7.15187 13.8119 7.66672 13.2971 7.66672 12.662C7.66672 12.0268 7.15187 11.5119 6.51665 11.5119C5.8816 11.5119 5.36658 12.0268 5.36658 12.662C5.36728 13.2969 5.88177 13.8112 6.51665 13.8119ZM6.51665 12.2786C6.72845 12.2786 6.90006 12.4502 6.90006 12.662C6.90006 12.8736 6.72845 13.0452 6.51665 13.0452C6.30502 13.0452 6.13341 12.8736 6.13341 12.662C6.13358 12.4504 6.30502 12.2788 6.51665 12.2786Z" fill="#0C5DA5"/>
</g>
<defs>
<clipPath id="clip0">
<rect width="23" height="23" fill="white"/>
</clipPath>
</defs>
</svg>
