<svg width="23" height="22" viewBox="0 0 23 22" fill="none" xmlns="http://www.w3.org/2000/svg">
<path d="M21.0951 10.2077H9.06458V2.18736C9.6686 2.18736 10.1583 1.69771 10.1583 1.09368C10.1583 0.489658 9.6686 0 9.06458 0H1.77337C1.16935 0 0.679688 0.489658 0.679688 1.09368C0.679688 1.69771 1.16935 2.18736 1.77337 2.18736V9.84313C1.77498 11.2519 2.91657 12.3934 4.32529 12.3951H4.68985V21.1445C4.68985 21.5472 5.01629 21.8736 5.41897 21.8736H11.2519C11.6546 21.8736 11.9811 21.5472 11.9811 21.1445V19.3217C11.9811 18.7177 12.4707 18.228 13.0747 18.228H15.9912C18.6074 18.225 20.7275 16.1049 20.7305 13.4887V12.3951H21.0951C21.6991 12.3951 22.1888 11.9054 22.1888 11.3014C22.1888 10.6974 21.6991 10.2077 21.0951 10.2077ZM1.40881 1.09368C1.40881 0.89234 1.57203 0.729121 1.77337 0.729121H9.06458C9.26592 0.729121 9.42914 0.89234 9.42914 1.09368C9.42914 1.29502 9.26592 1.45824 9.06458 1.45824H1.77337C1.57203 1.45824 1.40881 1.29502 1.40881 1.09368ZM2.50249 9.84313V2.18736H8.33546V11.6659H4.32529C3.31909 11.6647 2.5037 10.8493 2.50249 9.84313ZM20.0014 13.4887C19.9988 15.7024 18.2049 17.4963 15.9912 17.4989H13.0747C12.0685 17.5001 11.2531 18.3155 11.2519 19.3217V21.1445H5.41897V12.3951H20.0014V13.4887ZM21.0951 11.6659H9.06458V10.9368H21.0951C21.2964 10.9368 21.4596 11.1 21.4596 11.3014C21.4596 11.5027 21.2964 11.6659 21.0951 11.6659Z" fill="#0C5DA5"/>
<path d="M3.59625 2.91648C3.39491 2.91648 3.23169 3.0797 3.23169 3.28104V4.01016C3.23169 4.2115 3.39491 4.37472 3.59625 4.37472C3.79759 4.37472 3.96081 4.2115 3.96081 4.01016V3.28104C3.96081 3.0797 3.79759 2.91648 3.59625 2.91648Z" fill="#0C5DA5"/>
<path d="M3.59625 5.10384C3.39491 5.10384 3.23169 5.26706 3.23169 5.4684V9.11401C3.23169 9.31535 3.39491 9.47857 3.59625 9.47857C3.79759 9.47857 3.96081 9.31535 3.96081 9.11401V5.4684C3.96081 5.26706 3.79759 5.10384 3.59625 5.10384Z" fill="#0C5DA5"/>
</svg>
