<svg width="116" height="115" viewBox="0 0 116 115" fill="none" xmlns="http://www.w3.org/2000/svg">
<circle cx="58.1839" cy="57.3251" r="55.1956" fill="white" stroke="#0C5DA5" stroke-width="4"/>
<path d="M49.178 57.6623H38.2012C34.5023 57.6623 31.4932 54.6532 31.4932 50.9543V39.9775C31.4932 36.2786 34.5023 33.2694 38.2012 33.2694H49.178C52.8769 33.2694 55.8861 36.2786 55.8861 39.9775V50.9543C55.8861 54.6532 52.8769 57.6623 49.178 57.6623ZM38.2012 36.5218C36.2957 36.5218 34.7456 38.072 34.7456 39.9775V50.9543C34.7456 52.8598 36.2957 54.4099 38.2012 54.4099H49.178C51.0835 54.4099 52.6337 52.8598 52.6337 50.9543V39.9775C52.6337 38.072 51.0835 36.5218 49.178 36.5218H38.2012Z" fill="#0C5DA5"/>
<path d="M76.8226 57.6623H65.8457C62.1469 57.6623 59.1377 54.6531 59.1377 50.9543V39.9774C59.1377 36.2786 62.1469 33.2694 65.8457 33.2694H76.8226C80.5214 33.2694 83.5306 36.2786 83.5306 39.9774V50.9543C83.5306 54.6531 80.5214 57.6623 76.8226 57.6623ZM65.8457 36.5218C63.9403 36.5218 62.3901 38.072 62.3901 39.9774V50.9543C62.3901 52.8597 63.9403 54.4099 65.8457 54.4099H76.8226C78.728 54.4099 80.2782 52.8597 80.2782 50.9543V39.9774C80.2782 38.072 78.728 36.5218 76.8226 36.5218H65.8457Z" fill="#0C5DA5"/>
<path d="M71.3342 85.3076C64.609 85.3076 59.1377 79.8363 59.1377 73.1112C59.1377 66.386 64.609 60.9147 71.3342 60.9147C78.0593 60.9147 83.5306 66.386 83.5306 73.1112C83.5306 79.8363 78.0593 85.3076 71.3342 85.3076ZM71.3342 64.1671C66.4024 64.1671 62.3901 68.1794 62.3901 73.1112C62.3901 78.0429 66.4024 82.0552 71.3342 82.0552C76.2659 82.0552 80.2782 78.0429 80.2782 73.1112C80.2782 68.1794 76.2659 64.1671 71.3342 64.1671Z" fill="#0C5DA5"/>
<path d="M49.1773 85.3076H38.2005C34.5016 85.3076 31.4924 82.2984 31.4924 78.5996V67.6228C31.4924 63.9239 34.5016 60.9147 38.2005 60.9147H49.1773C52.8762 60.9147 55.8853 63.9239 55.8853 67.6228V78.5996C55.8853 82.2984 52.8762 85.3076 49.1773 85.3076ZM38.2005 64.1671C36.295 64.1671 34.7448 65.7173 34.7448 67.6228V78.5996C34.7448 80.5051 36.295 82.0552 38.2005 82.0552H49.1773C51.0828 82.0552 52.633 80.5051 52.633 78.5996V67.6228C52.633 65.7173 51.0828 64.1671 49.1773 64.1671H38.2005Z" fill="#0C5DA5"/>
</svg>
