<?xml version="1.0" encoding="UTF-8"?>
<!DOCTYPE svg PUBLIC "-//W3C//DTD SVG 1.1//EN" "http://www.w3.org/Graphics/SVG/1.1/DTD/svg11.dtd">
<!-- Creator: CorelDRAW 2018 (64-Bit) -->
<svg xmlns="http://www.w3.org/2000/svg" xml:space="preserve" width="479px" height="479px" version="1.1" style="shape-rendering:geometricPrecision; text-rendering:geometricPrecision; image-rendering:optimizeQuality; fill-rule:evenodd; clip-rule:evenodd"
viewBox="0 0 228.84 228.84"
 xmlns:xlink="http://www.w3.org/1999/xlink">
 <defs>
  <style type="text/css">
   <![CDATA[
    .str0 {stroke:#7A521D;stroke-width:1.13;stroke-miterlimit:22.9256}
    .str1 {stroke:#FFF3AA;stroke-width:1.13;stroke-miterlimit:22.9256}
    .str3 {stroke:#99670F;stroke-width:0.43;stroke-miterlimit:22.9256}
    .str2 {stroke:#7A521D;stroke-width:0.43;stroke-miterlimit:22.9256}
    .fil4 {fill:none;fill-rule:nonzero}
    .fil7 {fill:#B28C48}
    .fil9 {fill:#C19B55}
    .fil6 {fill:#FFF3AA;fill-rule:nonzero}
    .fil3 {fill:url(#id0);fill-rule:nonzero}
    .fil0 {fill:url(#id1);fill-rule:nonzero}
    .fil2 {fill:url(#id2);fill-rule:nonzero}
    .fil1 {fill:url(#id3);fill-rule:nonzero}
    .fil8 {fill:url(#id4);fill-rule:nonzero}
    .fil10 {fill:url(#id5);fill-rule:nonzero}
    .fil5 {fill:url(#id6);fill-rule:nonzero}
   ]]>
  </style>
  <linearGradient id="id0" gradientUnits="userSpaceOnUse" x1="27.89" y1="27.89" x2="200.95" y2="200.95">
   <stop offset="0" style="stop-opacity:1; stop-color:#FBEA8C"/>
   <stop offset="0.188235" style="stop-opacity:1; stop-color:#805F28"/>
   <stop offset="0.431373" style="stop-opacity:1; stop-color:#FFFFCF"/>
   <stop offset="0.65098" style="stop-opacity:1; stop-color:#805422"/>
   <stop offset="0.819608" style="stop-opacity:1; stop-color:#A78141"/>
   <stop offset="1" style="stop-opacity:1; stop-color:#6E4E1E"/>
  </linearGradient>
  <linearGradient id="id1" gradientUnits="userSpaceOnUse" xlink:href="#id0" x1="0.56" y1="0.57" x2="228.27" y2="228.27">
  </linearGradient>
  <linearGradient id="id2" gradientUnits="userSpaceOnUse" x1="3.27" y1="225" x2="224.48" y2="3.78">
   <stop offset="0" style="stop-opacity:1; stop-color:#A77F41"/>
   <stop offset="0.188235" style="stop-opacity:1; stop-color:#8B652D"/>
   <stop offset="0.588235" style="stop-opacity:1; stop-color:#4C2D0C"/>
   <stop offset="0.670588" style="stop-opacity:1; stop-color:#4C2D0C"/>
   <stop offset="0.788235" style="stop-opacity:1; stop-color:#4C2D0C"/>
   <stop offset="1" style="stop-opacity:1; stop-color:#8B652D"/>
  </linearGradient>
  <linearGradient id="id3" gradientUnits="userSpaceOnUse" x1="3.81" y1="3.81" x2="225.03" y2="225.03">
   <stop offset="0" style="stop-opacity:1; stop-color:#C3913B"/>
   <stop offset="0.188235" style="stop-opacity:1; stop-color:#A8762E"/>
   <stop offset="0.360784" style="stop-opacity:1; stop-color:#FFF3AA"/>
   <stop offset="0.388235" style="stop-opacity:1; stop-color:#FFF3AA"/>
   <stop offset="0.490196" style="stop-opacity:1; stop-color:#FFF3AA"/>
   <stop offset="0.54902" style="stop-opacity:1; stop-color:#FFF3AA"/>
   <stop offset="0.670588" style="stop-opacity:1; stop-color:#99670F"/>
   <stop offset="0.729412" style="stop-opacity:1; stop-color:#99670F"/>
   <stop offset="0.819608" style="stop-opacity:1; stop-color:#C19B55"/>
   <stop offset="1" style="stop-opacity:1; stop-color:#7A521D"/>
  </linearGradient>
  <linearGradient id="id4" gradientUnits="userSpaceOnUse" xlink:href="#id3" x1="78.47" y1="81.68" x2="153.33" y2="81.68">
  </linearGradient>
  <linearGradient id="id5" gradientUnits="userSpaceOnUse" xlink:href="#id3" x1="47.06" y1="158.9" x2="227.27" y2="90.94">
  </linearGradient>
  <linearGradient id="id6" gradientUnits="userSpaceOnUse" x1="-57.41" y1="-56.66" x2="297.38" y2="298.13">
   <stop offset="0" style="stop-opacity:1; stop-color:#FBEA8C"/>
   <stop offset="0.121569" style="stop-opacity:1; stop-color:#80541B"/>
   <stop offset="0.278431" style="stop-opacity:1; stop-color:#FFF3AA"/>
   <stop offset="0.309804" style="stop-opacity:1; stop-color:#FFF3AA"/>
   <stop offset="0.45098" style="stop-opacity:1; stop-color:#FFF3AA"/>
   <stop offset="0.458824" style="stop-opacity:1; stop-color:#FFF3AA"/>
   <stop offset="0.658824" style="stop-opacity:1; stop-color:#9C6C14"/>
   <stop offset="0.819608" style="stop-opacity:1; stop-color:#AD7A1E"/>
   <stop offset="1" style="stop-opacity:1; stop-color:#6E4E1E"/>
  </linearGradient>
 </defs>
 <g id="Слой_x0020_1">
  <metadata id="CorelCorpID_0Corel-Layer"/>
  <g id="_1906785216">
   <path class="fil0 str0" d="M228.27 114.42c0,62.88 -50.97,113.85 -113.85,113.85 -62.88,0 -113.86,-50.97 -113.86,-113.85 0,-62.88 50.98,-113.86 113.86,-113.86 62.88,0 113.85,50.98 113.85,113.86z"/>
   <path class="fil1 str1" d="M114.42 225.03c-60.99,0 -110.61,-49.62 -110.61,-110.61 0,-60.99 49.62,-110.61 110.61,-110.61 60.99,0 110.61,49.62 110.61,110.61 0,60.99 -49.62,110.61 -110.61,110.61z"/>
   <path class="fil2" d="M114.84 6.28l-1.89 0 0 -2.49c0.31,0 0.61,-0.01 0.93,-0.01 0.32,0 0.64,0.01 0.96,0.01l0 2.49zm0 218.7l0 0 0 -2.49 -1.89 0 0 2.49c0.31,0.01 0.61,0.02 0.93,0.02 0.32,0 0.64,-0.01 0.96,-0.02zm-6.14 -218.58l0 0 1.89 -0.07 -0.1 -2.49c-0.63,0.02 -1.26,0.04 -1.89,0.07l0.1 2.49zm10.38 215.97l0 0 -1.89 0.08 0.1 2.49c0.63,-0.02 1.26,-0.04 1.89,-0.07l-0.1 -2.5zm-14.62 -215.68l0 0 1.89 -0.15 -0.2 -2.49c-0.63,0.05 -1.25,0.1 -1.88,0.15l0.19 2.49zm18.85 215.39l0 0 -1.88 0.15 0.19 2.49c0.63,-0.04 1.26,-0.09 1.89,-0.15l-0.2 -2.49zm-23.07 -214.94l0 0 1.88 -0.22 -0.29 -2.48c-0.63,0.07 -1.26,0.14 -1.88,0.21l0.29 2.49zm27.29 214.49l0 0 -1.87 0.22 0.29 2.48c0.63,-0.06 1.25,-0.13 1.88,-0.21l-0.3 -2.49zm-31.49 -213.87l0 0 1.87 -0.29 -0.39 -2.48c-0.63,0.09 -1.25,0.2 -1.87,0.3l0.39 2.47zm35.69 213.25l0 0 -1.86 0.3 0.39 2.47c0.62,-0.09 1.24,-0.19 1.86,-0.3l-0.39 -2.47zm-39.86 -212.47l0 0 1.86 -0.36 -0.49 -2.46c-0.62,0.12 -1.24,0.23 -1.86,0.36l0.49 2.46zm44.03 211.69l0 0 -1.85 0.37 0.49 2.45c0.62,-0.12 1.24,-0.23 1.85,-0.36l-0.49 -2.46zm-48.17 -210.74l0 0 1.84 -0.44 -0.59 -2.45c-0.61,0.15 -1.22,0.3 -1.83,0.45l0.58 2.44zm52.31 209.8l0 0 -1.83 0.44 0.58 2.44c0.62,-0.14 1.23,-0.3 1.84,-0.45l-0.59 -2.43zm-56.41 -208.69l0 0 1.82 -0.51 -0.68 -2.42c-0.61,0.17 -1.21,0.34 -1.82,0.51l0.68 2.42zm60.51 207.58l0 0 -1.82 0.51 0.68 2.41c0.61,-0.17 1.22,-0.34 1.82,-0.52l-0.68 -2.4zm-64.56 -206.31l0 0 1.8 -0.59 -0.78 -2.38c-0.6,0.19 -1.2,0.38 -1.79,0.58l0.77 2.39zm68.61 205.04l0 0 -1.8 0.58 0.78 2.38c0.6,-0.19 1.2,-0.38 1.8,-0.58l-0.78 -2.38zm-72.61 -203.62l0 0 1.78 -0.65 -0.87 -2.35c-0.59,0.21 -1.18,0.43 -1.77,0.66l0.86 2.34zm76.61 202.19l0 0 -1.77 0.66 0.86 2.34c0.59,-0.21 1.18,-0.43 1.77,-0.66l-0.86 -2.34zm-80.55 -200.61l0 0 1.75 -0.72 -0.96 -2.31c-0.58,0.24 -1.16,0.48 -1.74,0.72l0.95 2.31zm84.49 199.03l0 0 -1.75 0.73 0.96 2.3c0.58,-0.24 1.16,-0.48 1.74,-0.72l-0.95 -2.31zm-88.36 -197.29l0 0 1.72 -0.79 -1.05 -2.27c-0.58,0.26 -1.15,0.53 -1.72,0.8l1.05 2.26zm92.23 195.56l0 0 -1.71 0.79 1.04 2.26c0.57,-0.26 1.14,-0.53 1.71,-0.8l-1.04 -2.25zm-96.04 -193.68l0 0 1.69 -0.85 -1.13 -2.22c-0.56,0.28 -1.12,0.57 -1.68,0.86l1.12 2.21zm99.84 191.79l0 0 -1.68 0.86 1.13 2.21c0.56,-0.29 1.12,-0.57 1.68,-0.86l-1.13 -2.21zm-103.56 -189.75l0 0 1.65 -0.92 -1.21 -2.17c-0.56,0.31 -1.11,0.61 -1.66,0.92l1.22 2.17zm107.29 187.72l0 0 -1.65 0.92 1.21 2.16c0.55,-0.31 1.1,-0.61 1.65,-0.93l-1.21 -2.15zm-110.94 -185.54l0 0 1.62 -0.99 -1.3 -2.11c-0.54,0.33 -1.07,0.66 -1.61,0.99l1.29 2.11zm114.58 183.36l0 0 -1.61 0.99 1.29 2.1c0.54,-0.33 1.08,-0.66 1.61,-0.99l-1.29 -2.1zm-118.13 -181.04l0 0 1.57 -1.05 -1.37 -2.05c-0.53,0.34 -1.05,0.69 -1.57,1.05l1.37 2.05zm121.69 178.72l0 0 -1.57 1.05 1.36 2.04c0.53,-0.35 1.05,-0.69 1.57,-1.05l-1.36 -2.04zm-125.15 -176.27l0 0 1.53 -1.11 -1.45 -1.99c-0.51,0.37 -1.02,0.74 -1.53,1.12l1.45 1.98zm128.61 173.81l0 0 -1.53 1.11 1.44 1.99c0.52,-0.37 1.02,-0.74 1.53,-1.12l-1.44 -1.98zm-131.98 -171.21l0 0 1.49 -1.17 -1.52 -1.93c-0.5,0.39 -0.99,0.78 -1.48,1.17l1.51 1.93zm135.34 168.62l0 0 -1.48 1.17 1.51 1.92c0.5,-0.39 0.99,-0.78 1.48,-1.17l-1.51 -1.92zm-138.6 -165.9l0 0 1.44 -1.23 -1.59 -1.86c-0.48,0.4 -0.96,0.81 -1.44,1.22l1.59 1.87zm141.86 163.18l0 0 -1.44 1.23 1.59 1.85c0.48,-0.4 0.96,-0.81 1.44,-1.22l-1.59 -1.86zm-145 -160.33l0 0 1.38 -1.29 -1.66 -1.8c-0.47,0.43 -0.93,0.86 -1.38,1.29l1.66 1.8zm148.15 157.48l0 0 -1.39 1.28 1.66 1.8c0.46,-0.43 0.92,-0.86 1.38,-1.29l-1.65 -1.79zm-152.92 -156.24l0 0 1.73 1.72 1.34 -1.33 -1.73 -1.73c-0.45,0.44 -0.9,0.89 -1.34,1.34zm157.67 154.99l0 0 -1.72 -1.72 -1.33 1.34 1.72 1.72c0.45,-0.44 0.89,-0.89 1.33,-1.34zm-158.85 -150.18l0 0 1.28 -1.39 -1.8 -1.66c-0.43,0.46 -0.86,0.92 -1.29,1.39l1.81 1.66zm160.05 145.38l0 0 -1.29 1.39 1.79 1.65c0.44,-0.46 0.87,-0.92 1.29,-1.38l-1.79 -1.66zm-162.85 -142.18l0 0 1.23 -1.44 -1.86 -1.59c-0.42,0.47 -0.82,0.96 -1.23,1.44l1.86 1.59zm165.64 138.98l0 0 -1.23 1.44 1.86 1.58c0.41,-0.47 0.82,-0.95 1.22,-1.44l-1.85 -1.58zm-168.3 -135.68l0 0 1.17 -1.48 -1.93 -1.52c-0.39,0.49 -0.78,0.99 -1.17,1.49l1.93 1.51zm170.96 132.37l0 0 -1.17 1.49 1.92 1.51c0.39,-0.49 0.79,-0.98 1.17,-1.48l-1.92 -1.52zm-173.5 -128.96l0 0 1.12 -1.53 -1.99 -1.44c-0.38,0.5 -0.75,1.01 -1.12,1.53l1.99 1.44zm176.03 125.56l0 0 -1.1 1.53 1.98 1.44c0.37,-0.51 0.74,-1.02 1.11,-1.53l-1.99 -1.44zm-178.42 -122.05l0 0 1.05 -1.58 -2.05 -1.36c-0.35,0.52 -0.7,1.04 -1.05,1.57l2.05 1.37zm180.82 118.54l0 0 -1.05 1.58 2.04 1.36c0.36,-0.52 0.71,-1.05 1.05,-1.57l-2.04 -1.37zm-183.08 -114.95l0 0 0.99 -1.61 -2.11 -1.29c-0.33,0.54 -0.66,1.07 -0.99,1.61l2.11 1.29zm185.34 111.36l0 0 -0.99 1.61 2.1 1.29c0.33,-0.54 0.66,-1.07 0.99,-1.61l-2.1 -1.29zm-187.46 -107.68l0 0 0.93 -1.65 -2.16 -1.21c-0.32,0.55 -0.62,1.1 -0.93,1.65l2.16 1.21zm189.57 104l0 0 -0.92 1.65 2.16 1.2c0.31,-0.54 0.61,-1.09 0.92,-1.64l-2.16 -1.21zm-191.53 -100.24l0 0 0.86 -1.68 -2.22 -1.13c-0.29,0.56 -0.57,1.12 -0.86,1.69l2.22 1.12zm193.5 96.48l0 0 -0.86 1.68 2.21 1.12c0.29,-0.55 0.58,-1.12 0.86,-1.68l-2.21 -1.12zm-195.32 -92.64l0 0 0.79 -1.72 -2.26 -1.04c-0.27,0.57 -0.54,1.14 -0.8,1.72l2.27 1.04zm197.14 88.8l0 0 -0.79 1.72 2.25 1.04c0.27,-0.57 0.54,-1.14 0.8,-1.72l-2.26 -1.04zm-198.81 -84.89l0 0 0.72 -1.75 -2.3 -0.96c-0.25,0.58 -0.49,1.17 -0.73,1.75l2.31 0.96zm200.48 80.99l0 0 -0.73 1.75 2.31 0.95c0.24,-0.58 0.48,-1.17 0.72,-1.75l-2.3 -0.95zm-201.99 -77.03l0 0 0.65 -1.77 -2.34 -0.87c-0.23,0.59 -0.45,1.18 -0.66,1.78l2.35 0.86zm203.5 73.06l0 0 -0.66 1.77 2.34 0.87c0.23,-0.59 0.45,-1.18 0.66,-1.78l-2.34 -0.86zm-204.86 -69.03l0 0 0.59 -1.8 -2.39 -0.78c-0.2,0.6 -0.39,1.2 -0.58,1.8l2.38 0.78zm206.21 65.01l0 0 -0.58 1.8 2.38 0.77c0.2,-0.6 0.39,-1.2 0.58,-1.8l-2.38 -0.77zm-207.41 -60.94l0 0 0.52 -1.82 -2.42 -0.68c-0.17,0.6 -0.34,1.21 -0.51,1.82l2.41 0.68zm208.61 56.87l0 0 -0.51 1.81 2.4 0.68c0.18,-0.6 0.35,-1.21 0.52,-1.82l-2.41 -0.67zm-209.64 -52.75l0 0 0.44 -1.84 -2.44 -0.59c-0.15,0.61 -0.3,1.22 -0.45,1.84l2.45 0.59zm210.68 48.63l0 0 -0.44 1.84 2.43 0.58c0.15,-0.61 0.3,-1.22 0.45,-1.83l-2.44 -0.59zm-211.55 -44.48l0 0 0.36 -1.85 -2.46 -0.49c-0.13,0.61 -0.24,1.23 -0.36,1.85l2.46 0.49zm212.42 40.33l0 0 -0.37 1.85 2.46 0.49c0.13,-0.62 0.24,-1.24 0.36,-1.86l-2.45 -0.48zm-213.13 -36.14l0 0 0.29 -1.87 -2.47 -0.39c-0.11,0.62 -0.21,1.24 -0.3,1.86l2.48 0.4zm213.84 31.95l0 0 -0.29 1.87 2.46 0.39c0.11,-0.62 0.21,-1.24 0.3,-1.87l-2.47 -0.39zm-214.39 -27.74l0 0 0.22 -1.88 -2.49 -0.3c-0.08,0.63 -0.15,1.26 -0.21,1.88l2.48 0.3zm214.93 23.53l0 0 -0.22 1.88 2.49 0.29c0.08,-0.62 0.15,-1.25 0.21,-1.87l-2.48 -0.3zm-215.31 -19.3l0 0 0.15 -1.89 -2.49 -0.2c-0.05,0.63 -0.1,1.26 -0.15,1.89l2.49 0.2zm215.69 15.07l0 0 -0.14 1.89 2.48 0.19c0.05,-0.62 0.1,-1.25 0.15,-1.88l-2.49 -0.2zm-215.9 -10.84l0 0 0.07 -1.88 -2.49 -0.1c-0.03,0.63 -0.06,1.26 -0.08,1.89l2.5 0.09zm216.11 6.6l0 0 -0.07 1.89 2.49 0.1c0.03,-0.63 0.06,-1.26 0.08,-1.89l-2.5 -0.1zm-216.16 -4.24l0 0 -2.49 0c0,0.31 -0.01,0.62 -0.01,0.94 0,0.32 0.01,0.63 0.01,0.95l2.49 0 0 -1.89zm218.7 0l0 0 -2.49 0 0 1.89 2.49 0c0,-0.32 0.01,-0.63 0.01,-0.95 0,-0.32 -0.01,-0.63 -0.01,-0.94zm-218.58 6.14l0 0 -0.07 -1.89 -2.5 0.09c0.02,0.63 0.05,1.26 0.08,1.89l2.49 -0.09zm218.54 -8.59l0 0c-0.02,-0.63 -0.04,-1.26 -0.07,-1.89l-2.5 0.1 0.08 1.88 2.49 -0.09zm-218.25 12.82l0 0 -0.15 -1.88 -2.49 0.19c0.05,0.63 0.1,1.26 0.15,1.89l2.49 -0.2zm215.39 -18.85l0 0 0.15 1.89 2.49 -0.2c-0.04,-0.63 -0.09,-1.26 -0.15,-1.88l-2.49 0.19zm-214.94 23.07l0 0 -0.22 -1.88 -2.48 0.3c0.07,0.62 0.14,1.25 0.21,1.87l2.49 -0.29zm214.49 -27.29l0 0 0.23 1.88 2.48 -0.29c-0.07,-0.63 -0.14,-1.26 -0.22,-1.88l-2.49 0.29zm-213.87 31.49l0 0 -0.3 -1.87 -2.47 0.4c0.09,0.62 0.2,1.24 0.3,1.86l2.47 -0.39zm213.25 -35.69l0 0 0.3 1.87 2.47 -0.39c-0.09,-0.63 -0.19,-1.25 -0.3,-1.87l-2.47 0.39zm-212.47 39.87l0 0 -0.37 -1.86 -2.45 0.49c0.12,0.62 0.24,1.24 0.36,1.85l2.46 -0.48zm211.69 -44.04l0 0 0.37 1.85 2.45 -0.48c-0.11,-0.62 -0.23,-1.24 -0.36,-1.86l-2.46 0.49zm-210.74 48.17l0 0 -0.44 -1.83 -2.44 0.58c0.14,0.62 0.29,1.23 0.45,1.84l2.43 -0.59zm209.79 -52.31l0 0 0.45 1.84 2.44 -0.59c-0.14,-0.61 -0.3,-1.22 -0.45,-1.83l-2.44 0.58zm-208.68 56.41l0 0 -0.52 -1.82 -2.4 0.68c0.16,0.61 0.33,1.22 0.51,1.82l2.41 -0.68zm207.57 -60.5l0 0 0.52 1.81 2.41 -0.68c-0.17,-0.61 -0.34,-1.21 -0.51,-1.82l-2.42 0.69zm-206.31 64.55l0 0 -0.58 -1.79 -2.38 0.77c0.19,0.6 0.38,1.2 0.58,1.8l2.38 -0.78zm205.05 -68.61l0 0 0.58 1.8 2.39 -0.77c-0.19,-0.61 -0.39,-1.2 -0.59,-1.8l-2.38 0.77zm-203.62 72.61l0 0 -0.65 -1.77 -2.35 0.86c0.22,0.6 0.44,1.19 0.66,1.78l2.34 -0.87zm202.19 -76.6l0 0 0.66 1.77 2.34 -0.87c-0.21,-0.59 -0.43,-1.18 -0.65,-1.77l-2.35 0.87zm-200.61 80.54l0 0 -0.72 -1.74 -2.3 0.95c0.24,0.58 0.47,1.17 0.72,1.75l2.3 -0.96zm199.03 -84.48l0 0 0.73 1.74 2.3 -0.95c-0.24,-0.59 -0.47,-1.17 -0.72,-1.75l-2.31 0.96zm-197.29 88.36l0 0 -0.79 -1.72 -2.27 1.04c0.26,0.58 0.54,1.15 0.8,1.72l2.26 -1.04zm195.55 -92.24l0 0 0.8 1.72 2.27 -1.05c-0.26,-0.57 -0.53,-1.14 -0.8,-1.71l-2.27 1.04zm-193.67 96.04l0 0 -0.86 -1.68 -2.2 1.12c0.28,0.57 0.57,1.13 0.86,1.68l2.2 -1.12zm191.79 -99.84l0 0 0.86 1.68 2.21 -1.13c-0.28,-0.56 -0.57,-1.12 -0.86,-1.68l-2.21 1.13zm-189.75 103.57l0 0 -0.93 -1.65 -2.15 1.21c0.3,0.55 0.61,1.1 0.92,1.64l2.16 -1.2zm187.72 -107.3l0 0 0.92 1.65 2.16 -1.21c-0.3,-0.55 -0.61,-1.1 -0.92,-1.65l-2.16 1.21zm-185.54 110.94l0 0 -0.99 -1.61 -2.1 1.29c0.32,0.54 0.66,1.07 0.99,1.6l2.1 -1.28zm183.36 -114.58l0 0 0.99 1.61 2.11 -1.29c-0.33,-0.54 -0.66,-1.08 -1,-1.61l-2.1 1.29zm-181.04 118.14l0 0 -1.06 -1.57 -2.03 1.36c0.34,0.52 0.69,1.05 1.05,1.57l2.04 -1.36zm178.72 -121.69l0 0 1.05 1.57 2.05 -1.37c-0.35,-0.53 -0.7,-1.05 -1.05,-1.58l-2.05 1.38zm-176.27 125.15l0 0 -1.11 -1.53 -1.98 1.44c0.37,0.51 0.74,1.02 1.11,1.53l1.98 -1.44zm173.81 -128.61l0 0 1.11 1.52 2 -1.45c-0.37,-0.51 -0.74,-1.02 -1.12,-1.52l-1.99 1.45zm-171.21 131.97l0 0 -1.18 -1.48 -1.91 1.51c0.38,0.5 0.78,0.99 1.17,1.48l1.92 -1.51zm168.62 -135.34l0 0 1.17 1.48 1.93 -1.51c-0.39,-0.5 -0.78,-1 -1.18,-1.49l-1.92 1.52zm-165.9 138.6l0 0 -1.23 -1.44 -1.85 1.59c0.4,0.48 0.81,0.96 1.22,1.43l1.86 -1.58zm163.18 -141.85l0 0 1.23 1.43 1.86 -1.59c-0.41,-0.48 -0.81,-0.96 -1.23,-1.44l-1.86 1.6zm-160.33 145l0 0 -1.29 -1.39 -1.79 1.66c0.43,0.46 0.86,0.92 1.29,1.38l1.79 -1.65zm157.48 -148.15l0 0 1.28 1.38 1.81 -1.66c-0.43,-0.47 -0.86,-0.93 -1.29,-1.39l-1.8 1.67zm-156.24 152.9l0 0 1.73 -1.72 -1.34 -1.33 -1.72 1.72c0.44,0.44 0.89,0.89 1.33,1.33zm155 -157.67l0 0 -1.73 1.73 1.34 1.34 1.73 -1.73c-0.44,-0.45 -0.89,-0.9 -1.34,-1.34zm-150.19 158.87l0 0 -1.39 -1.28 -1.65 1.78c0.46,0.43 0.92,0.87 1.38,1.29l1.66 -1.79zm148.43 -160.57l0 0c-0.46,-0.43 -0.92,-0.86 -1.39,-1.29l-1.67 1.81 1.39 1.28 1.67 -1.8zm-145.23 163.36l0 0 -1.44 -1.22 -1.58 1.85c0.47,0.41 0.96,0.82 1.44,1.22l1.58 -1.85zm142.01 -166.27l0 0c-0.47,-0.42 -0.96,-0.82 -1.44,-1.23l-1.59 1.87 1.44 1.22 1.59 -1.86zm-138.71 168.94l0 0 -1.48 -1.17 -1.51 1.91c0.49,0.39 0.99,0.78 1.48,1.17l1.51 -1.91zm135.38 -171.73l0 0c-0.49,-0.39 -0.99,-0.78 -1.48,-1.17l-1.53 1.93 1.49 1.17 1.52 -1.93zm-131.97 174.26l0 0 -1.53 -1.11 -1.43 1.97c0.5,0.38 1.01,0.75 1.52,1.12l1.44 -1.98zm128.53 -176.91l0 0c-0.5,-0.38 -1.01,-0.75 -1.52,-1.12l-1.46 2 1.54 1.11 1.44 -1.99zm-125.02 179.31l0 0 -1.58 -1.05 -1.35 2.03c0.51,0.36 1.04,0.7 1.56,1.05l1.37 -2.03zm121.49 -181.83l0 0c-0.52,-0.36 -1.05,-0.7 -1.58,-1.05l-1.37 2.06 1.58 1.04 1.37 -2.05zm-117.9 184.09l0 0 -1.61 -0.99 -1.28 2.09c0.53,0.33 1.07,0.66 1.6,0.99l1.29 -2.09zm114.26 -186.47l0 0c-0.53,-0.33 -1.06,-0.67 -1.61,-0.99l-1.29 2.12 1.61 0.98 1.29 -2.11zm-110.58 188.58l0 0 -1.65 -0.93 -1.2 2.16c0.55,0.31 1.1,0.61 1.65,0.92l1.2 -2.15zm106.86 -190.82l0 0c-0.54,-0.31 -1.1,-0.62 -1.65,-0.92l-1.21 2.17 1.65 0.92 1.21 -2.17zm-103.1 192.79l0 0 -1.68 -0.86 -1.12 2.2c0.56,0.29 1.12,0.57 1.68,0.86l1.12 -2.2zm99.29 -194.87l0 0c-0.56,-0.29 -1.12,-0.58 -1.68,-0.86l-1.13 2.23 1.68 0.85 1.13 -2.22zm-95.45 196.69l0 0 -1.72 -0.79 -1.03 2.24c0.57,0.27 1.14,0.54 1.71,0.8l1.04 -2.25zm91.56 -198.62l0 0c-0.57,-0.27 -1.13,-0.54 -1.71,-0.8l-1.05 2.28 1.72 0.78 1.04 -2.26zm-87.66 200.28l0 0 -1.74 -0.72 -0.95 2.29c0.58,0.25 1.16,0.49 1.74,0.72l0.95 -2.29zm83.7 -202.07l0 0c-0.58,-0.25 -1.16,-0.48 -1.74,-0.72l-0.96 2.32 1.74 0.72 0.96 -2.32zm-79.73 203.59l0 0 -1.77 -0.66 -0.86 2.33c0.59,0.22 1.18,0.44 1.77,0.66l0.86 -2.33zm75.7 -205.21l0 0c-0.59,-0.22 -1.18,-0.44 -1.77,-0.66l-0.87 2.37 1.78 0.65 0.86 -2.36zm-71.68 206.57l0 0 -1.79 -0.59 -0.77 2.37c0.59,0.19 1.19,0.39 1.79,0.58l0.77 -2.36zm67.59 -208.03l0 0c-0.59,-0.2 -1.19,-0.4 -1.79,-0.59l-0.78 2.4 1.8 0.58 0.77 -2.39zm-63.51 209.22l0 0 -1.82 -0.51 -0.68 2.39c0.61,0.18 1.21,0.35 1.82,0.51l0.68 -2.39zm59.37 -210.52l0 0c-0.61,-0.18 -1.21,-0.34 -1.82,-0.51l-0.68 2.43 1.82 0.5 0.68 -2.42zm-55.26 211.56l0 0 -1.83 -0.45 -0.58 2.42c0.61,0.15 1.22,0.31 1.83,0.45l0.58 -2.42zm51.06 -212.69l0 0c-0.61,-0.16 -1.22,-0.31 -1.83,-0.45l-0.59 2.46 1.84 0.44 0.58 -2.45zm-46.9 213.56l0 0 -1.86 -0.37 -0.48 2.44c0.62,0.13 1.23,0.25 1.85,0.37l0.49 -2.44zm42.67 -214.53l0 0c-0.62,-0.13 -1.24,-0.25 -1.85,-0.37l-0.5 2.48 1.86 0.36 0.49 -2.47zm-38.48 215.24l0 0 -1.87 -0.29 -0.39 2.45c0.62,0.1 1.24,0.2 1.87,0.3l0.39 -2.46zm34.21 -216.04l0 0c-0.62,-0.1 -1.24,-0.2 -1.87,-0.3l-0.39 2.5 1.87 0.29 0.39 -2.49zm-30 216.59l0 0 -1.88 -0.23 -0.29 2.47c0.62,0.08 1.25,0.15 1.87,0.22l0.3 -2.46zm25.7 -217.22l0 0c-0.62,-0.08 -1.25,-0.15 -1.88,-0.22l-0.29 2.5 1.88 0.22 0.29 -2.5zm-21.48 217.6l0 0 -1.88 -0.15 -0.19 2.46c0.62,0.06 1.25,0.11 1.88,0.15l0.19 -2.46zm17.16 -218.06l0 0c-0.62,-0.05 -1.25,-0.1 -1.88,-0.14l-0.2 2.5 1.89 0.15 0.19 -2.51zm-12.92 218.27l0 0 -1.89 -0.08 -0.09 2.48c0.63,0.03 1.26,0.05 1.89,0.07l0.09 -2.47zm8.59 -218.56l0 0c-0.63,-0.03 -1.26,-0.05 -1.89,-0.07l-0.1 2.51 1.89 0.07 0.1 -2.51z"/>
   <path class="fil3" d="M114.42 27.89c-47.71,0 -86.53,38.82 -86.53,86.53 0,47.71 38.82,86.53 86.53,86.53 47.71,0 86.53,-38.82 86.53,-86.53 0,-47.71 -38.82,-86.53 -86.53,-86.53zm0 171.54l0 0c-46.87,0 -85.01,-38.14 -85.01,-85.01 0,-46.87 38.14,-85.01 85.01,-85.01 46.87,0 85.01,38.14 85.01,85.01 0,46.87 -38.14,85.01 -85.01,85.01z"/>
   <g>
    <path class="fil4 str2" d="M113.88 9.41l2.55 5.18 5.71 0.83 -4.13 4.03 0.97 5.69 -5.1 -2.69 -5.11 2.69 0.97 -5.69 -4.13 -4.03 5.71 -0.83 2.56 -5.18zm2.55 205.25l0 0 5.71 -0.83 -4.13 -4.03 0.97 -5.69 -5.1 2.69 -5.11 -2.69 0.97 5.69 -4.13 4.03 5.71 0.83 2.56 5.17 2.55 -5.17zm-30.91 -196l0 0 -5.31 2.28 5.04 2.82 0.53 5.75 4.24 -3.92 5.63 1.27 -2.42 -5.24 2.95 -4.96 -5.73 0.68 -3.81 -4.34 -1.12 5.66zm56.71 191.93l0 0 5.31 -2.28 -5.04 -2.82 -0.53 -5.75 -4.24 3.91 -5.63 -1.27 2.42 5.25 -2.95 4.96 5.73 -0.68 3.81 4.34 1.12 -5.66zm-80.58 -181.32l0 0 -4.54 3.57 5.6 1.43 2 5.41 3.08 -4.88 5.77 -0.23 -3.69 -4.44 1.56 -5.55 -5.36 2.13 -4.8 -3.2 0.38 5.76zm104.45 170.71l0 0 4.53 -3.58 -5.59 -1.42 -2 -5.41 -3.08 4.88 -5.77 0.23 3.69 4.43 -1.56 5.56 5.36 -2.14 4.8 3.21 -0.38 -5.76zm-124.77 -154.28l0 0 -3.45 4.62 5.77 -0.07 3.34 4.71 1.71 -5.51 5.51 -1.71 -4.71 -3.34 0.07 -5.77 -4.62 3.45 -5.47 -1.85 1.85 5.47zm145.09 137.85l0 0 3.45 -4.62 -5.77 0.07 -3.34 -4.71 -1.71 5.51 -5.51 1.71 4.71 3.34 -0.07 5.77 4.62 -3.45 5.47 1.85 -1.85 -5.47zm-160.45 -116.73l0 0 -2.14 5.36 5.55 -1.56 4.44 3.69 0.23 -5.77 4.88 -3.08 -5.41 -2 -1.43 -5.6 -3.57 4.53 -5.76 -0.37 3.21 4.8zm175.81 95.61l0 0 2.14 -5.36 -5.55 1.56 -4.45 -3.69 -0.22 5.77 -4.88 3.08 5.41 2 1.42 5.59 3.58 -4.53 5.76 0.38 -3.21 -4.8zm-185.19 -71.23l0 0 -0.68 5.73 4.96 -2.95 5.25 2.42 -1.28 -5.63 3.92 -4.24 -5.75 -0.53 -2.82 -5.04 -2.28 5.31 -5.66 1.13 4.34 3.8zm194.57 46.85l0 0 0.68 -5.73 -4.96 2.94 -5.25 -2.41 1.28 5.63 -3.92 4.24 5.75 0.53 2.82 5.03 2.28 -5.3 5.66 -1.13 -4.34 -3.8zm-197.32 -20.87l0 0 0.83 5.71 4.03 -4.13 5.69 0.97 -2.69 -5.11 2.69 -5.1 -5.69 0.97 -4.03 -4.13 -0.83 5.71 -5.18 2.56 5.18 2.55zm200.07 -5.11l0 0 -0.83 -5.71 -4.03 4.13 -5.69 -0.97 2.69 5.1 -2.69 5.11 5.69 -0.97 4.03 4.13 0.83 -5.71 5.17 -2.56 -5.17 -2.55zm-196 30.91l0 0 2.28 5.31 2.82 -5.04 5.75 -0.53 -3.92 -4.24 1.28 -5.63 -5.25 2.42 -4.96 -2.95 0.68 5.73 -4.34 3.81 5.66 1.12zm191.93 -56.71l0 0 -2.28 -5.3 -2.82 5.03 -5.75 0.53 3.91 4.24 -1.27 5.63 5.25 -2.42 4.96 2.95 -0.68 -5.73 4.34 -3.81 -5.66 -1.12zm-181.32 80.58l0 0 3.57 4.54 1.43 -5.6 5.41 -2 -4.88 -3.08 -0.23 -5.77 -4.44 3.69 -5.55 -1.56 2.14 5.36 -3.21 4.8 5.76 -0.38zm170.71 -104.45l0 0 -3.58 -4.53 -1.42 5.59 -5.42 2 4.89 3.08 0.23 5.77 4.43 -3.69 5.56 1.56 -2.14 -5.36 3.21 -4.8 -5.76 0.38zm-154.28 124.77l0 0 4.62 3.45 -0.07 -5.77 4.71 -3.34 -5.51 -1.71 -1.71 -5.51 -3.34 4.71 -5.77 -0.07 3.45 4.62 -1.85 5.47 5.47 -1.85zm137.85 -145.08l0 0 -4.62 -3.46 0.07 5.77 -4.71 3.34 5.51 1.71 1.71 5.51 3.33 -4.71 5.78 0.07 -3.45 -4.62 1.85 -5.47 -5.47 1.86zm-116.73 160.44l0 0 5.36 2.14 -1.56 -5.56 3.69 -4.43 -5.77 -0.23 -3.08 -4.88 -2 5.41 -5.6 1.43 4.54 3.57 -0.38 5.76 4.8 -3.21zm95.61 -175.81l0 0 -5.36 -2.14 1.56 5.56 -3.69 4.44 5.77 0.22 3.08 4.88 2 -5.41 5.59 -1.42 -4.53 -3.58 0.38 -5.76 -4.8 3.21zm-71.23 185.19l0 0 5.73 0.68 -2.95 -4.96 2.42 -5.25 -5.63 1.28 -4.24 -3.92 -0.53 5.75 -5.04 2.82 5.31 2.28 1.12 5.66 3.81 -4.34zm46.85 -194.57l0 0 -5.73 -0.68 2.94 4.97 -2.41 5.24 5.63 -1.27 4.24 3.91 0.53 -5.75 5.04 -2.82 -5.31 -2.28 -1.13 -5.66 -3.8 4.34z"/>
    <path id="1" class="fil5" d="M113.88 9.41l2.55 5.18 5.71 0.83 -4.13 4.03 0.97 5.69 -5.1 -2.69 -5.11 2.69 0.97 -5.69 -4.13 -4.03 5.71 -0.83 2.56 -5.18zm2.55 205.25l0 0 5.71 -0.83 -4.13 -4.03 0.97 -5.69 -5.1 2.69 -5.11 -2.69 0.97 5.69 -4.13 4.03 5.71 0.83 2.56 5.17 2.55 -5.17zm-30.91 -196l0 0 -5.31 2.28 5.04 2.82 0.53 5.75 4.24 -3.92 5.63 1.27 -2.42 -5.24 2.95 -4.96 -5.73 0.68 -3.81 -4.34 -1.12 5.66zm56.71 191.93l0 0 5.31 -2.28 -5.04 -2.82 -0.53 -5.75 -4.24 3.91 -5.63 -1.27 2.42 5.25 -2.95 4.96 5.73 -0.68 3.81 4.34 1.12 -5.66zm-80.58 -181.32l0 0 -4.54 3.57 5.6 1.43 2 5.41 3.08 -4.88 5.77 -0.23 -3.69 -4.44 1.56 -5.55 -5.36 2.13 -4.8 -3.2 0.38 5.76zm104.45 170.71l0 0 4.53 -3.58 -5.59 -1.42 -2 -5.41 -3.08 4.88 -5.77 0.23 3.69 4.43 -1.56 5.56 5.36 -2.14 4.8 3.21 -0.38 -5.76zm-124.77 -154.28l0 0 -3.45 4.62 5.77 -0.07 3.34 4.71 1.71 -5.51 5.51 -1.71 -4.71 -3.34 0.07 -5.77 -4.62 3.45 -5.47 -1.85 1.85 5.47zm145.09 137.85l0 0 3.45 -4.62 -5.77 0.07 -3.34 -4.71 -1.71 5.51 -5.51 1.71 4.71 3.34 -0.07 5.77 4.62 -3.45 5.47 1.85 -1.85 -5.47zm-160.45 -116.73l0 0 -2.14 5.36 5.55 -1.56 4.44 3.69 0.23 -5.77 4.88 -3.08 -5.41 -2 -1.43 -5.6 -3.57 4.53 -5.76 -0.37 3.21 4.8zm175.81 95.61l0 0 2.14 -5.36 -5.55 1.56 -4.45 -3.69 -0.22 5.77 -4.88 3.08 5.41 2 1.42 5.59 3.58 -4.53 5.76 0.38 -3.21 -4.8zm-185.19 -71.23l0 0 -0.68 5.73 4.96 -2.95 5.25 2.42 -1.28 -5.63 3.92 -4.24 -5.75 -0.53 -2.82 -5.04 -2.28 5.31 -5.66 1.13 4.34 3.8zm194.57 46.85l0 0 0.68 -5.73 -4.96 2.94 -5.25 -2.41 1.28 5.63 -3.92 4.24 5.75 0.53 2.82 5.03 2.28 -5.3 5.66 -1.13 -4.34 -3.8zm-197.32 -20.87l0 0 0.83 5.71 4.03 -4.13 5.69 0.97 -2.69 -5.11 2.69 -5.1 -5.69 0.97 -4.03 -4.13 -0.83 5.71 -5.18 2.56 5.18 2.55zm200.07 -5.11l0 0 -0.83 -5.71 -4.03 4.13 -5.69 -0.97 2.69 5.1 -2.69 5.11 5.69 -0.97 4.03 4.13 0.83 -5.71 5.17 -2.56 -5.17 -2.55zm-196 30.91l0 0 2.28 5.31 2.82 -5.04 5.75 -0.53 -3.92 -4.24 1.28 -5.63 -5.25 2.42 -4.96 -2.95 0.68 5.73 -4.34 3.81 5.66 1.12zm191.93 -56.71l0 0 -2.28 -5.3 -2.82 5.03 -5.75 0.53 3.91 4.24 -1.27 5.63 5.25 -2.42 4.96 2.95 -0.68 -5.73 4.34 -3.81 -5.66 -1.12zm-181.32 80.58l0 0 3.57 4.54 1.43 -5.6 5.41 -2 -4.88 -3.08 -0.23 -5.77 -4.44 3.69 -5.55 -1.56 2.14 5.36 -3.21 4.8 5.76 -0.38zm170.71 -104.45l0 0 -3.58 -4.53 -1.42 5.59 -5.42 2 4.89 3.08 0.23 5.77 4.43 -3.69 5.56 1.56 -2.14 -5.36 3.21 -4.8 -5.76 0.38zm-154.28 124.77l0 0 4.62 3.45 -0.07 -5.77 4.71 -3.34 -5.51 -1.71 -1.71 -5.51 -3.34 4.71 -5.77 -0.07 3.45 4.62 -1.85 5.47 5.47 -1.85zm137.85 -145.08l0 0 -4.62 -3.46 0.07 5.77 -4.71 3.34 5.51 1.71 1.71 5.51 3.33 -4.71 5.78 0.07 -3.45 -4.62 1.85 -5.47 -5.47 1.86zm-116.73 160.44l0 0 5.36 2.14 -1.56 -5.56 3.69 -4.43 -5.77 -0.23 -3.08 -4.88 -2 5.41 -5.6 1.43 4.54 3.57 -0.38 5.76 4.8 -3.21zm95.61 -175.81l0 0 -5.36 -2.14 1.56 5.56 -3.69 4.44 5.77 0.22 3.08 4.88 2 -5.41 5.59 -1.42 -4.53 -3.58 0.38 -5.76 -4.8 3.21zm-71.23 185.19l0 0 5.73 0.68 -2.95 -4.96 2.42 -5.25 -5.63 1.28 -4.24 -3.92 -0.53 5.75 -5.04 2.82 5.31 2.28 1.12 5.66 3.81 -4.34zm46.85 -194.57l0 0 -5.73 -0.68 2.94 4.97 -2.41 5.24 5.63 -1.27 4.24 3.91 0.53 -5.75 5.04 -2.82 -5.31 -2.28 -1.13 -5.66 -3.8 4.34z"/>
   </g>
   <path class="fil6" d="M114.42 28.65c-47.29,0 -85.77,38.48 -85.77,85.77 0,47.29 38.48,85.77 85.77,85.77 47.29,0 85.77,-38.48 85.77,-85.77 0,-47.29 -38.48,-85.77 -85.77,-85.77zm0 170.03l0 0c-46.46,0 -84.26,-37.8 -84.26,-84.26 0,-46.46 37.8,-84.26 84.26,-84.26 46.46,0 84.26,37.8 84.26,84.26 0,46.46 -37.8,84.26 -84.26,84.26z"/>
  </g>
  <g>
   <g id="_1906757760">
    <path class="fil7" d="M77.95 73.51c0,-3.74 2.95,-6.24 6.63,-6.24 1.7,0 3.57,0.55 4.75,1.83l0.22 0.24 -2.03 3.23 -0.39 -0.37c-0.59,-0.57 -1.48,-0.96 -2.31,-0.96 -1.33,0 -2.22,0.94 -2.22,2.23 0,1.37 0.98,2.33 2.35,2.33 0.97,0 2.05,-0.61 2.76,-1.23l0.42 -0.36 1.75 3.38 -0.22 0.22c-1.28,1.31 -3.27,1.97 -5.08,1.97 -3.71,0 -6.63,-2.49 -6.63,-6.27zm17.15 -2.07l0.38 0 2.2 -3.91 5.08 0 -3.54 5.74 4.01 6.25 -5.29 0 -2.35 -4.09 -0.49 0 0 4.09 -4.6 0 0 -11.99 4.6 0 0 3.91zm12.55 0.89l3.02 -4.8 4.3 0 0 11.99 -4.38 0 0 -4.78 -3.03 4.78 -4.29 0 0 -11.99 4.38 0 0 4.8zm9.57 3.37c0.75,-1.44 0.97,-3.49 0.97,-5.06l0 -3.11 10.04 0 0 8.17 1.6 0 0 6.41 -4.19 0 0 -2.59 -5.66 0 0 2.59 -4.32 0 0 -6.41 1.56 0zm18.05 -4.26l0.38 0 2.2 -3.91 5.08 0 -3.53 5.74 4 6.25 -5.29 0 -2.35 -4.09 -0.49 0 0 4.09 -4.6 0 0 -11.99 4.6 0 0 3.91zm13.86 0.28c-0.12,-0.46 -0.63,-0.56 -1.11,-0.56 -0.99,0 -2.02,0.45 -2.83,0.99l-0.41 0.26 -1.67 -3.39 0.28 -0.21c1.25,-0.97 3.39,-1.54 4.97,-1.54 3.11,0 5.4,1.73 5.4,4.97l0 7.28 -4.28 0 0 -0.73c-0.8,0.64 -1.84,0.99 -2.87,0.99 -2.23,0 -4.06,-1.53 -4.06,-3.83 0,-3.35 3.89,-4.2 6.58,-4.23zm-27.31 3.98l1.81 0 0 -4.35 -1.06 0c0,1.5 -0.17,2.97 -0.75,4.35zm27.38 -0.98c-0.62,0.02 -2.09,0.16 -2.09,0.89 0,0.37 0.28,0.52 0.62,0.52 0.73,0 1.39,-0.7 1.47,-1.41z"/>
    <path class="fil8" d="M78.38 73.51c0,3.07 2.23,5.83 6.2,5.83 1.86,0 3.67,-0.71 4.78,-1.83l-1.36 -2.61c-0.8,0.69 -1.97,1.33 -3.05,1.33 -1.88,0 -2.79,-1.44 -2.79,-2.76 0,-1.32 0.89,-2.66 2.66,-2.66 0.97,0 1.97,0.46 2.61,1.08l1.58 -2.5c-1.1,-1.19 -2.87,-1.69 -4.43,-1.69 -3.99,0 -6.2,2.83 -6.2,5.81zm12.55 5.58l3.74 0 0 -4.09 1.17 0 2.35 4.09 4.25 0 -3.71 -5.79 0 -0.05 3.26 -5.29 -4.06 0 -2.2 3.91 -1.06 0 0 -3.91 -3.74 0 0 11.13zm12.77 0l3.63 0 3.08 -4.89c0.18,-0.3 0.41,-0.64 0.61,-1.1l0.04 0c-0.04,0.43 -0.04,0.87 -0.04,1.13l0 4.86 3.52 0 0 -11.13 -3.63 0 -3.09 4.91c-0.19,0.32 -0.41,0.64 -0.6,1.1l-0.05 0c0.03,-0.28 0.05,-0.72 0.05,-1.1l0 -4.91 -3.52 0 0 11.13zm17.45 -2.96c0.77,-1.49 0.99,-3.11 0.99,-4.8l0 -0.41 1.92 0 0 5.21 -2.91 0zm-5.06 0l0 5.55 3.46 0 0 -2.59 6.52 0 0 2.59 3.33 0 0 -5.55 -1.6 0 0 -8.17 -9.18 0 0 2.68c0,2.25 -0.41,4.23 -1.14,5.49l-1.39 0zm15.01 2.96l3.74 0 0 -4.09 1.17 0 2.35 4.09 4.26 0 -3.72 -5.79 0 -0.05 3.26 -5.29 -4.06 0 -2.2 3.91 -1.06 0 0 -3.91 -3.74 0 0 11.13zm11.88 -3.14c0,1.93 1.49,3.39 3.63,3.39 1.28,0 2.57,-0.58 3.31,-1.62l0.04 0c0,0 -0.04,0.33 -0.04,0.7l0 0.67 3.41 0 0 -6.85c0,-2.83 -1.9,-4.54 -4.97,-4.54 -1.81,0 -3.76,0.72 -4.71,1.45l1.3 2.64c0.88,-0.59 1.99,-1.06 3.06,-1.06 0.83,0 1.58,0.3 1.58,1.23l0 0.19 -0.32 0c-2.75,0 -6.29,0.82 -6.29,3.8zm3.7 -0.34c0,-1.02 1.46,-1.32 2.61,-1.32l0.34 0 0 0.3c0,0.91 -0.82,1.97 -1.9,1.97 -0.69,0 -1.05,-0.43 -1.05,-0.95z"/>
   </g>
   <g id="_1906745632">
    <path class="fil9" d="M78.57 108.8c-0.04,0 -0.09,0 -0.13,0l-27.71 0 0 -17.37 50.56 0 0 13.42 -28.13 55.62 -20.83 0 24.48 -48.46c0.45,-0.9 1.07,-2.07 1.76,-3.21zm42.11 16.74c-9.9,0 -18.37,-7.45 -18.37,-17.56 0,-9.99 8.54,-17.64 18.37,-17.64 9.79,0 18.38,7.69 18.38,17.64 0,10.06 -8.52,17.56 -18.38,17.56zm-16.61 34.93l53.3 -69.04 18.51 0 -53.29 69.04 -18.52 0zm37.28 -16.46c0,-9.99 8.55,-17.64 18.38,-17.64 9.78,0 18.38,7.69 18.38,17.64 0,10.06 -8.52,17.56 -18.38,17.56 -9.9,0 -18.38,-7.45 -18.38,-17.56zm-20.67 -33.1c1.71,0 3.21,-1.26 3.21,-3.02 0,-1.67 -1.61,-2.93 -3.21,-2.93 -1.6,0 -3.2,1.26 -3.2,2.93 0,1.76 1.5,3.02 3.2,3.02zm35.85 33.01c0,1.76 1.49,3.02 3.2,3.02 1.71,0 3.2,-1.26 3.2,-3.02 0,-1.67 -1.6,-2.93 -3.2,-2.93 -1.6,0 -3.2,1.26 -3.2,2.93z"/>
    <path class="fil10 str3" d="M55.3 158.64l16.73 0 27.44 -54.22 0 -11.16 -46.91 0 0 13.72 25.87 0c3.3,0 3.85,-0.28 3.85,-0.28l0 0.19c0,0 -1.56,1.46 -3.85,5.94l-23.13 45.81zm65.38 -34.93c9.15,0 16.55,-6.95 16.55,-15.73 0,-8.59 -7.4,-15.82 -16.55,-15.82 -9.23,0 -16.55,7.23 -16.55,15.82 0,8.78 7.32,15.73 16.55,15.73zm-12.89 34.93l13.9 0 50.48 -65.38 -13.9 0 -50.48 65.38zm12.89 -45.9c-2.74,0 -5.03,-2.11 -5.03,-4.85 0,-2.56 2.29,-4.75 5.03,-4.75 2.75,0 5.03,2.19 5.03,4.75 0,2.74 -2.28,4.85 -5.03,4.85zm22.5 31.27c0,8.78 7.31,15.73 16.55,15.73 9.14,0 16.55,-6.95 16.55,-15.73 0,-8.59 -7.41,-15.82 -16.55,-15.82 -9.24,0 -16.55,7.23 -16.55,15.82zm11.52 -0.09c0,-2.56 2.29,-4.75 5.03,-4.75 2.74,0 5.03,2.19 5.03,4.75 0,2.74 -2.29,4.85 -5.03,4.85 -2.74,0 -5.03,-2.11 -5.03,-4.85z"/>
   </g>
  </g>
 </g>
</svg>
