<?xml version="1.0" encoding="UTF-8"?>
<!DOCTYPE svg PUBLIC "-//W3C//DTD SVG 1.1//EN" "http://www.w3.org/Graphics/SVG/1.1/DTD/svg11.dtd">
<!-- Creator: CorelDRAW 2018 (64-Bit) -->
<svg xmlns="http://www.w3.org/2000/svg" xml:space="preserve" width="479px" height="479px" version="1.1" style="shape-rendering:geometricPrecision; text-rendering:geometricPrecision; image-rendering:optimizeQuality; fill-rule:evenodd; clip-rule:evenodd"
viewBox="0 0 5610.4 5610.41"
 xmlns:xlink="http://www.w3.org/1999/xlink">
 <defs>
  <style type="text/css">
   <![CDATA[
    .str0 {stroke:#7A521D;stroke-width:27.69;stroke-miterlimit:22.9256}
    .str1 {stroke:#FFF3AA;stroke-width:27.69;stroke-miterlimit:22.9256}
    .str3 {stroke:#99670F;stroke-width:10.55;stroke-miterlimit:22.9256}
    .str2 {stroke:#7A521D;stroke-width:10.55;stroke-miterlimit:22.9256}
    .fil4 {fill:none;fill-rule:nonzero}
    .fil7 {fill:#B28C48}
    .fil9 {fill:#C19B55}
    .fil6 {fill:#FFF3AA;fill-rule:nonzero}
    .fil3 {fill:url(#id0);fill-rule:nonzero}
    .fil0 {fill:url(#id1);fill-rule:nonzero}
    .fil2 {fill:url(#id2);fill-rule:nonzero}
    .fil1 {fill:url(#id3);fill-rule:nonzero}
    .fil8 {fill:url(#id4);fill-rule:nonzero}
    .fil5 {fill:url(#id5);fill-rule:nonzero}
    .fil10 {fill:url(#id6);fill-rule:nonzero}
   ]]>
  </style>
  <linearGradient id="id0" gradientUnits="userSpaceOnUse" x1="683.74" y1="683.75" x2="4926.62" y2="4926.65">
   <stop offset="0" style="stop-opacity:1; stop-color:#FBEA8C"/>
   <stop offset="0.188235" style="stop-opacity:1; stop-color:#805F28"/>
   <stop offset="0.431373" style="stop-opacity:1; stop-color:#FFFFCF"/>
   <stop offset="0.65098" style="stop-opacity:1; stop-color:#805422"/>
   <stop offset="0.819608" style="stop-opacity:1; stop-color:#A78141"/>
   <stop offset="1" style="stop-opacity:1; stop-color:#6E4E1E"/>
  </linearGradient>
  <linearGradient id="id1" gradientUnits="userSpaceOnUse" xlink:href="#id0" x1="13.84" y1="13.86" x2="5596.56" y2="5596.56">
  </linearGradient>
  <linearGradient id="id2" gradientUnits="userSpaceOnUse" x1="80.11" y1="5516.2" x2="5503.63" y2="92.68">
   <stop offset="0" style="stop-opacity:1; stop-color:#A77F41"/>
   <stop offset="0.188235" style="stop-opacity:1; stop-color:#8B652D"/>
   <stop offset="0.588235" style="stop-opacity:1; stop-color:#4C2D0C"/>
   <stop offset="0.670588" style="stop-opacity:1; stop-color:#4C2D0C"/>
   <stop offset="0.788235" style="stop-opacity:1; stop-color:#4C2D0C"/>
   <stop offset="1" style="stop-opacity:1; stop-color:#8B652D"/>
  </linearGradient>
  <linearGradient id="id3" gradientUnits="userSpaceOnUse" x1="93.44" y1="93.44" x2="5516.96" y2="5516.96">
   <stop offset="0" style="stop-opacity:1; stop-color:#C3913B"/>
   <stop offset="0.188235" style="stop-opacity:1; stop-color:#A8762E"/>
   <stop offset="0.360784" style="stop-opacity:1; stop-color:#FFF3AA"/>
   <stop offset="0.388235" style="stop-opacity:1; stop-color:#FFF3AA"/>
   <stop offset="0.490196" style="stop-opacity:1; stop-color:#FFF3AA"/>
   <stop offset="0.54902" style="stop-opacity:1; stop-color:#FFF3AA"/>
   <stop offset="0.670588" style="stop-opacity:1; stop-color:#99670F"/>
   <stop offset="0.729412" style="stop-opacity:1; stop-color:#99670F"/>
   <stop offset="0.819608" style="stop-opacity:1; stop-color:#C19B55"/>
   <stop offset="1" style="stop-opacity:1; stop-color:#7A521D"/>
  </linearGradient>
  <linearGradient id="id4" gradientUnits="userSpaceOnUse" xlink:href="#id3" x1="1890.71" y1="2035.18" x2="3726.03" y2="2035.18">
  </linearGradient>
  <linearGradient id="id5" gradientUnits="userSpaceOnUse" x1="-1407.43" y1="-1389.03" x2="7290.88" y2="7309.28">
   <stop offset="0" style="stop-opacity:1; stop-color:#FBEA8C"/>
   <stop offset="0.121569" style="stop-opacity:1; stop-color:#80541B"/>
   <stop offset="0.278431" style="stop-opacity:1; stop-color:#FFF3AA"/>
   <stop offset="0.309804" style="stop-opacity:1; stop-color:#FFF3AA"/>
   <stop offset="0.45098" style="stop-opacity:1; stop-color:#FFF3AA"/>
   <stop offset="0.458824" style="stop-opacity:1; stop-color:#FFF3AA"/>
   <stop offset="0.658824" style="stop-opacity:1; stop-color:#9C6C14"/>
   <stop offset="0.819608" style="stop-opacity:1; stop-color:#AD7A1E"/>
   <stop offset="1" style="stop-opacity:1; stop-color:#6E4E1E"/>
  </linearGradient>
  <linearGradient id="id6" gradientUnits="userSpaceOnUse" xlink:href="#id3" x1="1044.53" y1="3795.76" x2="4552.4" y2="2609.21">
  </linearGradient>
 </defs>
 <g id="Слой_x0020_1">
  <metadata id="CorelCorpID_0Corel-Layer"/>
  <g id="_1910517056">
   <path class="fil0 str0" d="M5596.56 2805.2c0,1541.58 -1249.73,2791.37 -2791.36,2791.37 -1541.57,0 -2791.36,-1249.79 -2791.36,-2791.37 0,-1541.57 1249.79,-2791.36 2791.36,-2791.36 1541.63,0 2791.36,1249.79 2791.36,2791.36z"/>
   <path class="fil1 str1" d="M2805.2 5516.97c-1495.25,0 -2711.76,-1216.48 -2711.76,-2711.77 0,-1495.25 1216.51,-2711.79 2711.76,-2711.79 1495.32,0 2711.76,1216.54 2711.76,2711.79 0,1495.29 -1216.44,2711.77 -2711.76,2711.77z"/>
   <path class="fil2" d="M2815.4 154.05l-46.33 0 0 -61.08c7.6,-0.07 15.17,-0.32 22.8,-0.32 7.88,0 15.68,0.25 23.53,0.32l0 61.08zm0 5361.84l0 0 0 -61.07 -46.33 0 0 61.07c7.6,0.07 15.17,0.32 22.8,0.32 7.88,0 15.68,-0.25 23.53,-0.32zm-150.39 -5358.88l0 0 46.33 -1.83 -2.42 -61.14c-15.48,0.48 -30.92,1.05 -46.32,1.8l2.41 61.17zm254.41 5294.86l0 0 -46.32 1.8 2.41 61.11c15.46,-0.45 30.91,-1.03 46.33,-1.78l-2.42 -61.13zm-358.27 -5287.83l0 0 46.23 -3.65 -4.83 -61.01c-15.45,1.07 -30.84,2.3 -46.21,3.63l4.81 61.03zm462.12 5280.77l0 0 -46.24 3.64 4.79 60.99c15.45,-1.08 30.85,-2.3 46.24,-3.61l-4.79 -61.02zm-565.6 -5269.67l0 0 46.03 -5.45 -7.23 -60.87c-15.38,1.68 -30.73,3.35 -46.04,5.28l7.24 61.04zm669.04 5258.57l0 0 -46.02 5.42 7.21 60.83c15.36,-1.65 30.74,-3.31 46.02,-5.25l-7.21 -61zm-772.02 -5243.41l0 0 45.76 -7.25 -9.59 -60.68c-15.32,2.27 -30.56,4.78 -45.78,7.31l9.61 60.62zm874.98 5228.25l0 0 -45.75 7.24 9.59 60.63c15.3,-2.3 30.54,-4.79 45.74,-7.34l-9.58 -60.53zm-977.28 -5209.06l0 0 45.47 -9.04 -12.01 -60.23c-15.18,2.86 -30.39,5.74 -45.51,8.88l12.05 60.39zm1079.57 5189.87l0 0 -45.45 9.05 11.99 60.11c15.17,-2.86 30.36,-5.73 45.47,-8.87l-12.01 -60.29zm-1181.06 -5166.68l0 0 45.08 -10.82 -14.39 -59.94c-15.08,3.49 -30.06,7.27 -45.06,10.99l14.37 59.77zm1282.51 5143.51l0 0 -45.04 10.8 14.35 59.84c15.07,-3.48 30.03,-7.28 44.99,-11.02l-14.3 -59.62zm-1382.99 -5116.35l0 0 44.63 -12.57 -16.7 -59.14c-14.93,4.07 -29.82,8.21 -44.63,12.53l16.7 59.18zm1483.45 5089.19l0 0 -44.6 12.55 16.66 59.03c14.9,-4.08 29.79,-8.22 44.6,-12.57l-16.66 -59.01zm-1582.79 -5058.12l0 0 44.12 -14.31 -19.05 -58.5c-14.73,4.68 -29.42,9.44 -44.05,14.34l18.98 58.47zm1682.1 5027.03l0 0 -44.06 14.31 18.95 58.36c14.76,-4.68 29.46,-9.44 44.09,-14.37l-18.98 -58.3zm-1780.14 -4992.07l0 0 43.51 -16.03 -21.28 -57.58c-14.55,5.22 -29,10.65 -43.42,16.12l21.19 57.49zm1878.15 4957.13l0 0 -43.45 16 21.18 57.45c14.55,-5.25 29.03,-10.65 43.45,-16.12l-21.18 -57.33zm-1974.75 -4918.34l0 0 42.85 -17.74 -23.45 -56.57c-14.33,5.82 -28.63,11.61 -42.85,17.67l23.45 56.64zm2071.32 4879.53l0 0 -42.76 17.75 23.36 56.4c14.3,-5.83 28.64,-11.62 42.81,-17.65l-23.41 -56.5zm-2166.32 -4837.01l0 0 42.12 -19.38 -25.68 -55.63c-14.07,6.36 -28.03,13.01 -42,19.61l25.56 55.4zm2261.29 4794.49l0 0 -42.04 19.41 25.55 55.46c14.09,-6.4 28.05,-13.01 42.01,-19.61l-25.52 -55.26zm-2354.54 -4748.24l0 0 41.35 -21.04 -27.7 -54.28c-13.81,6.92 -27.57,13.94 -41.28,21.1l27.63 54.22zm2447.79 4702.01l0 0 -41.27 21.05 27.56 54.1c13.82,-6.91 27.59,-13.94 41.28,-21.1l-27.57 -54.05zm-2539.15 -4652.15l0 0 40.46 -22.63 -29.72 -53.05c-13.55,7.47 -27.06,14.94 -40.46,22.64l29.72 53.04zm2630.48 4602.28l0 0 -40.36 22.63 29.56 52.9c13.56,-7.47 27.07,-14.94 40.47,-22.67l-29.67 -52.86zm-2719.81 -4548.85l0 0 39.53 -24.2 -31.71 -51.73c-13.25,7.98 -26.35,16.14 -39.44,24.35l31.62 51.58zm2809.13 4495.43l0 0 -39.47 24.21 31.56 51.59c13.25,-8.03 26.35,-16.18 39.46,-24.38l-31.55 -51.42zm-2896.3 -4438.55l0 0 38.56 -25.75 -33.58 -50.22c-12.93,8.48 -25.8,17.02 -38.54,25.73l33.56 50.24zm2983.48 4381.69l0 0 -38.51 25.71 33.4 50.1c12.93,-8.5 25.82,-17.04 38.57,-25.78l-33.46 -50.03zm-3068.37 -4321.45l0 0 37.54 -27.23 -35.52 -48.84c-12.55,9 -25.01,18.11 -37.44,27.32l35.42 48.75zm3153.23 4261.17l0 0 -37.45 27.27 35.3 48.66c12.56,-9 25.05,-18.11 37.45,-27.32l-35.3 -48.61zm-3235.68 -4197.63l0 0 36.42 -28.68 -37.26 -47.25c-12.21,9.47 -24.28,19.11 -36.33,28.78l37.17 47.15zm3318.09 4134.07l0 0 -36.33 28.74 37.05 47.07c12.19,-9.47 24.29,-19.08 36.34,-28.77l-37.06 -47.04zm-3397.96 -4067.33l0 0 35.28 -30.1 -39.02 -45.64c-11.82,9.94 -23.66,19.88 -35.32,30.03l39.06 45.71zm3477.83 4000.65l0 0 -35.21 30.11 38.81 45.5c11.82,-9.95 23.66,-19.9 35.3,-30.05l-38.9 -45.56zm-3555.05 -3930.84l0 0 34.07 -31.45 -40.84 -44.16c-11.42,10.4 -22.68,21.01 -33.93,31.59l40.7 44.02zm3632.24 3861l0 0 -34 31.51 40.62 44.01c11.43,-10.43 22.69,-21.02 33.94,-31.61l-40.56 -43.91zm-3749.04 -3830.56l0 0 42.42 42.35 32.79 -32.77 -42.4 -42.37c-11,10.84 -21.97,21.76 -32.81,32.79zm3865.64 3800.04l0 0 -42.25 -42.27 -32.73 32.81 42.22 42.22c11,-10.79 21.94,-21.76 32.76,-32.76zm-3894.72 -3682.03l0 0 31.48 -34.04 -44.05 -40.69c-10.59,11.25 -21.18,22.5 -31.58,33.92l44.15 40.81zm3923.96 3564.15l0 0 -31.44 34.04 43.84 40.55c10.61,-11.21 21.23,-22.51 31.61,-33.92l-44.01 -40.67zm-3992.43 -3485.74l0 0 30.12 -35.23 -45.72 -39.05c-10.13,11.66 -20.09,23.49 -30.01,35.31l45.61 38.97zm4060.88 3407.35l0 0 -30.09 35.24 45.54 38.93c10.14,-11.68 20.09,-23.52 30.03,-35.34l-45.48 -38.83zm-4126.2 -3326.31l0 0 28.72 -36.39 -47.19 -37.2c-9.66,12.04 -19.28,24.14 -28.77,36.35l47.24 37.24zm4191.5 3245.24l0 0 -28.67 36.4 46.99 37.11c9.69,-12.07 19.28,-24.14 28.75,-36.35l-47.07 -37.16zm-4253.6 -3161.71l0 0 27.27 -37.5 -48.76 -35.41c-9.2,12.41 -18.35,24.89 -27.34,37.44l48.83 35.47zm4315.68 3078.19l0 0 -27.19 37.54 48.55 35.31c9.2,-12.44 18.31,-24.89 27.31,-37.46l-48.67 -35.39zm-4374.45 -2992.28l0 0 25.78 -38.54 -50.25 -33.54c-8.68,12.75 -17.22,25.62 -25.74,38.52l50.21 33.56zm4433.2 2906.39l0 0 -25.71 38.57 50.03 33.43c8.72,-12.75 17.26,-25.64 25.75,-38.57l-50.07 -33.43zm-4488.57 -2818.24l0 0 24.27 -39.51 -51.61 -31.61c-8.21,13.11 -16.35,26.19 -24.35,39.44l51.69 31.68zm4543.91 2730.13l0 0 -24.17 39.54 51.36 31.48c8.21,-13.09 16.37,-26.2 24.38,-39.46l-51.57 -31.56zm-4595.75 -2639.87l0 0 22.66 -40.44 -53.05 -29.72c-7.7,13.4 -15.17,26.91 -22.63,40.47l53.02 29.69zm4647.57 2549.66l0 0 -22.61 40.42 52.87 29.57c7.69,-13.36 15.18,-26.87 22.63,-40.43l-52.89 -29.56zm-4695.82 -2457.44l0 0 21.06 -41.31 -54.22 -27.61c-7.15,13.69 -14.18,27.45 -21.1,41.28l54.26 27.64zm4744.06 2365.21l0 0 -20.97 41.28 54.01 27.55c7.16,-13.7 14.19,-27.46 21.1,-41.28l-54.14 -27.55zm-4788.66 -2271.16l0 0 19.41 -42.08 -55.41 -25.55c-6.61,13.95 -13.25,27.9 -19.65,42l55.65 25.63zm4833.26 2177.13l0 0 -19.34 42.07 55.22 25.47c6.61,-13.94 13.25,-27.88 19.62,-41.98l-55.5 -25.56zm-4874.15 -2081.4l0 0 17.75 -42.82 -56.61 -23.48c-6.06,14.22 -11.86,28.55 -17.69,42.86l56.55 23.44zm4915.02 1985.68l0 0 -17.7 42.85 56.44 23.35c6.07,-14.17 11.89,-28.53 17.68,-42.84l-56.42 -23.36zm-4952.11 -1888.42l0 0 16.06 -43.5 -57.49 -21.23c-5.5,14.45 -10.89,28.92 -16.14,43.48l57.57 21.25zm4989.19 1791.19l0 0 -16 43.45 57.31 21.18c5.5,-14.45 10.89,-28.9 16.14,-43.48l-57.45 -21.15zm-5022.41 -1692.56l0 0 14.3 -44.09 -58.45 -19.02c-4.92,14.66 -9.69,29.36 -14.37,44.12l58.52 18.99zm5055.66 1593.94l0 0 -14.27 44.06 58.27 18.96c4.92,-14.64 9.69,-29.34 14.34,-44.09l-58.34 -18.93zm-5085.02 -1494.07l0 0 12.58 -44.62 -59.18 -16.71c-4.32,14.83 -8.47,29.72 -12.54,44.63l59.14 16.7zm5114.36 1394.19l0 0 -12.52 44.61 58.96 16.65c4.32,-14.78 8.47,-29.69 12.54,-44.6l-58.98 -16.66zm-5139.78 -1293.25l0 0 10.84 -45.07 -59.77 -14.37c-3.75,14.99 -7.49,29.95 -10.99,45.04l59.92 14.4zm5165.15 1192.35l0 0 -10.77 45.05 59.6 14.34c3.75,-14.98 7.51,-29.94 11.01,-45.03l-59.84 -14.36zm-5186.54 -1090.49l0 0 9.03 -45.46 -60.38 -12.02c-3.15,15.09 -6.01,30.3 -8.9,45.48l60.25 12zm5207.97 988.67l0 0 -9 45.44 60.21 11.99c3.14,-15.12 6.03,-30.31 8.9,-45.48l-60.11 -11.95zm-5225.38 -886.07l0 0 7.25 -45.76 -60.63 -9.62c-2.53,15.22 -5.04,30.47 -7.29,45.78l60.67 9.6zm5242.77 783.47l0 0 -7.19 45.75 60.44 9.59c2.56,-15.24 5.04,-30.48 7.34,-45.77l-60.59 -9.57zm-5256.1 -680.22l0 0 5.4 -46.03 -61.02 -7.24c-1.93,15.31 -3.63,30.67 -5.28,46.05l60.9 7.22zm5269.46 577.02l0 0 -5.4 45.99 60.89 7.21c1.93,-15.3 3.63,-30.66 5.29,-46.02l-60.78 -7.18zm-5278.76 -473.35l0 0 3.6 -46.21 -61.03 -4.8c-1.31,15.35 -2.56,30.75 -3.61,46.19l61.04 4.82zm5288.04 369.66l0 0 -3.58 46.17 60.91 4.83c1.31,-15.36 2.55,-30.74 3.64,-46.18l-60.97 -4.82zm-5293.26 -265.73l0 0 1.76 -46.28 -61.18 -2.42c-0.72,15.39 -1.28,30.84 -1.74,46.31l61.16 2.39zm5298.47 161.8l0 0 -1.76 46.29 61.08 2.41c0.72,-15.38 1.3,-30.83 1.78,-46.28l-61.1 -2.42zm-5299.68 -104.03l0 0 -61.07 -0.02c-0.07,7.67 -0.28,15.32 -0.28,23 0,7.79 0.21,15.54 0.3,23.32l61.11 0.02 -0.06 -46.32zm5361.89 -0.02l0 0 -61.06 0.02 0.04 46.29 60.99 0.03c0.1,-7.8 0.31,-15.55 0.31,-23.34 0,-7.68 -0.21,-15.33 -0.28,-23zm-5358.9 150.41l0 0 -1.84 -46.33 -61.1 2.39c0.48,15.45 1.05,30.9 1.77,46.28l61.17 -2.34zm5357.79 -210.53l0 0c-0.45,-15.46 -1.02,-30.91 -1.76,-46.3l-61.15 2.42 1.86 46.25 61.05 -2.37zm-5350.75 314.35l0 0 -3.66 -46.19 -60.98 4.76c1.08,15.46 2.31,30.84 3.64,46.24l61 -4.81zm5280.8 -462.07l0 0 3.69 46.17 60.95 -4.77c-1.08,-15.45 -2.33,-30.83 -3.66,-46.23l-60.98 4.83zm-5269.7 565.55l0 0 -5.47 -45.99 -60.8 7.19c1.69,15.36 3.35,30.72 5.27,46.01l61 -7.21zm5258.56 -669.02l0 0 5.54 45.98 60.8 -7.17c-1.69,-15.38 -3.35,-30.76 -5.28,-46.05l-61.06 7.24zm-5243.38 772.01l0 0 -7.31 -45.78 -60.56 9.61c2.26,15.33 4.76,30.53 7.31,45.74l60.56 -9.57zm5228.24 -874.96l0 0 7.33 45.72 60.59 -9.58c-2.28,-15.31 -4.79,-30.54 -7.32,-45.77l-60.6 9.63zm-5209.05 977.29l0 0 -9.08 -45.43 -60.12 11.95c2.88,15.14 5.74,30.35 8.87,45.43l60.33 -11.95zm5189.85 -1079.57l0 0 9.12 45.39 60.15 -11.94c-2.87,-15.19 -5.75,-30.37 -8.88,-45.49l-60.39 12.04zm-5166.68 1181.03l0 0 -10.85 -45.06 -59.79 14.34c3.48,15.09 7.24,30.05 10.99,45.02l59.65 -14.3zm5143.47 -1282.48l0 0 10.9 45 59.87 -14.37c-3.5,-15.06 -7.24,-30.02 -10.98,-45.02l-59.79 14.39zm-5116.31 1382.97l0 0 -12.61 -44.61 -59 16.66c4.07,14.91 8.24,29.76 12.56,44.57l59.05 -16.62zm5089.17 -1483.43l0 0 12.64 44.54 59.08 -16.66c-4.07,-14.91 -8.24,-29.78 -12.54,-44.59l-59.18 16.71zm-5058.09 1582.76l0 0 -14.33 -44.06 -58.33 18.97c4.64,14.71 9.41,29.41 14.33,44.05l58.33 -18.96zm5027 -1682.09l0 0 14.39 44.04 58.42 -19c-4.64,-14.74 -9.4,-29.43 -14.33,-44.07l-58.48 19.03zm-4992.03 1780.16l0 0 -16.07 -43.45 -57.4 21.13c5.22,14.54 10.65,29.02 16.1,43.46l57.37 -21.14zm4957.09 -1878.17l0 0 16.08 43.41 57.55 -21.22c-5.26,-14.55 -10.65,-29.01 -16.12,-43.42l-57.51 21.23zm-4918.32 1974.74l0 0 -17.76 -42.79 -56.37 23.35c5.83,14.32 11.62,28.62 17.68,42.79l56.45 -23.35zm4879.54 -2071.32l0 0 17.78 42.76 56.55 -23.42c-5.83,-14.32 -11.62,-28.63 -17.7,-42.83l-56.63 23.49zm-4836.98 2166.32l0 0 -19.42 -42.04 -55.45 25.53c6.37,14.09 13.02,28 19.62,41.97l55.25 -25.46zm4794.43 -2261.3l0 0 19.46 42.03 55.62 -25.62c-6.41,-14.1 -13.01,-28.05 -19.61,-41.99l-55.47 25.58zm-4748.2 2354.54l0 0 -21.07 -41.23 -54.07 27.54c6.94,13.81 13.94,27.54 21.1,41.21l54.04 -27.52zm4701.96 -2447.77l0 0 21.1 41.24 54.26 -27.66c-6.9,-13.82 -13.94,-27.58 -21.09,-41.27l-54.27 27.69zm-4652.08 2539.15l0 0 -22.69 -40.38 -52.81 29.54c7.46,13.55 14.95,27.05 22.63,40.41l52.87 -29.57zm4602.23 -2630.49l0 0 22.71 40.35 53.01 -29.69c-7.46,-13.52 -14.95,-27.05 -22.63,-40.44l-53.09 29.78zm-4548.82 2719.84l0 0 -24.26 -39.5 -51.48 31.56c7.98,13.22 16.14,26.31 24.37,39.38l51.37 -31.44zm4495.42 -2809.17l0 0 24.26 39.45 51.72 -31.7c-8,-13.22 -16.14,-26.33 -24.35,-39.39l-51.63 31.64zm-4438.53 2896.34l0 0 -25.8 -38.49 -49.97 33.37c8.51,12.88 17.02,25.76 25.74,38.5l50.03 -33.38zm4381.64 -2983.5l0 0 25.81 38.47 50.22 -33.55c-8.5,-12.92 -17.03,-25.78 -25.75,-38.55l-50.28 33.63zm-4321.38 3068.36l0 0 -27.28 -37.44 -48.58 35.27c8.99,12.55 18.09,25.01 27.27,37.42l48.59 -35.25zm4261.12 -3153.21l0 0 27.3 37.43 48.87 -35.48c-9,-12.59 -18.13,-25.06 -27.34,-37.46l-48.83 35.51zm-4197.61 3235.65l0 0 -28.72 -36.33 -46.98 36.99c9.48,12.2 19.07,24.27 28.76,36.31l46.94 -36.97zm4134.09 -3318.06l0 0 28.72 36.31 47.31 -37.25c-9.49,-12.21 -19.11,-24.31 -28.8,-36.36l-47.23 37.3zm-4067.32 3397.93l0 0 -30.15 -35.2 -45.36 38.8c9.93,11.77 19.86,23.59 29.99,35.22l45.52 -38.82zm4000.61 -3477.79l0 0 30.14 35.14 45.69 -38.98c-9.97,-11.83 -19.92,-23.66 -30.05,-35.33l-45.78 39.17zm-3930.81 3555l0 0 -31.48 -34.02 -43.89 40.62c10.39,11.41 20.95,22.63 31.54,33.86l43.83 -40.46zm3860.98 -3632.19l0 0 31.54 33.96 44.2 -40.84c-10.41,-11.44 -21.04,-22.7 -31.63,-33.95l-44.11 40.83zm-3830.36 3748.69l0 0 42.18 -42.12 -32.8 -32.72 -42.12 42.13c10.82,10.99 21.73,21.91 32.74,32.71zm3800.06 -3865.6l0 0 -42.48 42.51 32.82 32.7 42.46 -42.41c-10.87,-11.01 -21.79,-21.97 -32.8,-32.8zm-3682.23 3894.99l0 0 -34.05 -31.44 -40.45 43.79c11.25,10.56 22.46,21.15 33.86,31.53l40.64 -43.88zm3638.96 -3936.63l0 0c-11.26,-10.59 -22.53,-21.22 -33.95,-31.62l-40.93 44.32 34.11 31.37 40.77 -44.07zm-3560.55 4005.08l0 0 -35.29 -30.06 -38.73 45.44c11.64,10.12 23.43,20.03 35.24,29.97l38.78 -45.35zm3481.7 -4076.56l0 0c-11.66,-10.16 -23.48,-20.1 -35.3,-30.06l-39.12 45.8 35.34 30.01 39.08 -45.75zm-3400.65 4141.92l0 0 -36.46 -28.7 -36.87 46.89c12.02,9.66 24.09,19.22 36.27,28.69l37.06 -46.88zm3318.93 -4210.13l0 0c-12.04,-9.69 -24.14,-19.31 -36.36,-28.79l-37.35 47.42 36.47 28.6 37.24 -47.23zm-3235.4 4272.23l0 0 -37.54 -27.25 -35.14 48.43c12.39,9.17 24.81,18.28 37.38,27.28l35.3 -48.46zm3151.21 -4337.37l0 0c-12.41,-9.21 -24.88,-18.35 -37.45,-27.33l-35.6 49.03 37.55 27.15 35.5 -48.85zm-3065.3 4396.12l0 0 -38.57 -25.74 -33.28 49.92c12.73,8.68 25.59,17.19 38.47,25.68l33.38 -49.86zm2978.6 -4457.84l0 0c-12.77,-8.72 -25.65,-17.26 -38.57,-25.77l-33.67 50.44 38.59 25.65 33.65 -50.32zm-2890.46 4513.21l0 0 -39.55 -24.25 -31.33 51.23c13.07,8.21 26.12,16.36 39.34,24.32l31.54 -51.3zm2801.35 -4571.46l0 0c-13.1,-8.21 -26.19,-16.39 -39.44,-24.38l-31.84 51.96 39.59 24.1 31.69 -51.68zm-2711.09 4623.32l0 0 -40.47 -22.71 -29.44 52.76c13.36,7.63 26.85,15.12 40.34,22.56l29.57 -52.61zm2619.86 -4678.23l0 0c-13.4,-7.7 -26.92,-15.18 -40.46,-22.65l-29.82 53.31 40.49 22.53 29.79 -53.19zm-2527.64 4726.5l0 0 -41.35 -21.06 -27.35 53.82c13.66,7.13 27.39,14.14 41.18,21.07l27.52 -53.83zm2434.23 -4777.54l0 0c-13.72,-7.15 -27.48,-14.17 -41.29,-21.11l-27.76 54.55 41.31 20.95 27.74 -54.39zm-2340.2 4822.14l0 0 -42.09 -19.44 -25.32 55.04c13.94,6.59 27.84,13.2 41.92,19.56l25.49 -55.16zm2244.86 -4869.6l0 0c-13.97,-6.6 -27.91,-13.25 -42,-19.61l-25.75 55.94 42.13 19.29 25.62 -55.62zm-2149.14 4910.45l0 0 -42.82 -17.73 -23.23 56.21c14.16,6.04 28.45,11.83 42.75,17.63l23.3 -56.11zm2052.06 -4954.21l0 0c-14.2,-6.03 -28.54,-11.86 -42.87,-17.67l-23.52 56.88 42.86 17.63 23.53 -56.84zm-1954.8 4991.34l0 0 -43.48 -16.06 -21.02 57.03c14.4,5.5 28.87,10.87 43.37,16.12l21.13 -57.09zm1855.97 -5030.98l0 0c-14.42,-5.49 -28.9,-10.91 -43.48,-16.17l-21.3 57.95 43.51 15.93 21.27 -57.71zm-1757.33 5064.23l0 0 -44.09 -14.37 -18.8 58c14.61,4.89 29.27,9.67 43.97,14.33l18.92 -57.96zm1657.1 -5100.18l0 0c-14.65,-4.9 -29.37,-9.68 -44.09,-14.36l-19.08 58.85 44.09 14.21 19.08 -58.7zm-1557.25 5129.51l0 0 -44.6 -12.61 -16.5 58.72c14.79,4.28 29.63,8.45 44.51,12.49l16.59 -58.6zm1455.61 -5161.31l0 0c-14.81,-4.33 -29.72,-8.47 -44.63,-12.57l-16.72 59.52 44.6 12.48 16.75 -59.43zm-1354.66 5186.73l0 0 -45.09 -10.88 -14.17 59.3c14.95,3.71 29.9,7.52 44.95,10.97l14.31 -59.39zm1251.82 -5214.53l0 0c-14.97,-3.74 -29.93,-7.52 -45.03,-10.98l-14.43 60.35 45.06 10.71 14.4 -60.08zm-1149.95 5235.94l0 0 -45.47 -9.05 -11.87 59.87c15.06,3.14 30.24,6.01 45.42,8.88l11.92 -59.7zm1046.18 -5259.73l0 0c-15.13,-3.15 -30.34,-6.03 -45.51,-8.91l-12.02 60.64 45.45 8.94 12.08 -60.67zm-943.56 5277.12l0 0 -45.79 -7.25 -9.49 60.12c15.22,2.53 30.43,5.01 45.71,7.31l9.57 -60.18zm838.88 -5296.56l0 0c-15.24,-2.56 -30.48,-5.07 -45.82,-7.34l-9.62 61.12 45.78 7.14 9.66 -60.92zm-735.64 5309.92l0 0 -46.04 -5.45 -7.13 60.53c15.27,1.93 30.62,3.59 45.96,5.25l7.21 -60.33zm630.25 -5325.54l0 0c-15.29,-1.95 -30.69,-3.61 -46.07,-5.28l-7.18 61.32 46.01 5.36 7.24 -61.4zm-526.59 5334.87l0 0 -46.24 -3.68 -4.69 60.51c15.32,1.31 30.72,2.56 46.13,3.61l4.8 -60.44zm420.71 -5345.97l0 0c-15.4,-1.34 -30.78,-2.57 -46.27,-3.64l-4.76 61.48 46.19 3.54 4.84 -61.38zm-316.76 5351.16l0 0 -46.32 -1.81 -2.36 60.64c15.4,0.74 30.82,1.28 46.27,1.76l2.41 -60.59zm210.48 -5358.38l0 0c-15.39,-0.74 -30.84,-1.29 -46.29,-1.76l-2.39 61.6 46.3 1.72 2.38 -61.56z"/>
   <path class="fil3" d="M2805.19 683.77c-1169.75,0 -2121.45,951.7 -2121.45,2121.44 0,1169.76 951.7,2121.42 2121.45,2121.42 1169.74,0 2121.46,-951.66 2121.46,-2121.42 0,-1169.74 -951.72,-2121.44 -2121.46,-2121.44zm0 4205.54l0 0c-1149.18,0 -2084.12,-934.87 -2084.12,-2084.1 0,-1149.21 934.94,-2084.11 2084.12,-2084.11 1149.22,0 2084.15,934.9 2084.15,2084.11 0,1149.23 -934.93,2084.1 -2084.15,2084.1z"/>
   <g>
    <path class="fil4 str2" d="M2791.87 230.81l62.64 126.92 140.02 20.34 -101.33 98.76 23.94 139.48 -125.27 -65.85 -125.25 65.88 23.94 -139.51 -101.35 -98.76 140.05 -20.38 62.61 -126.88zm62.61 5031.93l0 0 140.05 -20.36 -101.33 -98.77 23.94 -139.5 -125.27 65.88 -125.25 -65.85 23.93 139.47 -101.34 98.77 140.02 20.35 62.64 126.91 62.61 -126.9zm-757.87 -4805.25l0 0 -130 55.88 123.45 69.2 13 140.93 103.94 -96.06 138.04 31.2 -59.22 -128.52 72.3 -121.64 -140.51 16.6 -93.35 -106.4 -27.65 138.81zm1390.49 4705.47l0 0 130 -55.91 -123.45 -69.17 -12.97 -140.96 -103.94 96.05 -138.03 -31.16 59.22 128.52 -72.34 121.64 140.53 -16.6 93.38 106.37 27.6 -138.78zm-1975.73 -4445.37l0 0 -111.11 87.65 137.16 34.89 49.02 132.75 75.52 -119.67 141.43 -5.6 -90.47 -108.82 38.36 -136.21 -131.43 52.38 -117.7 -78.57 9.22 141.2zm2560.96 4185.27l0 0 111.09 -87.65 -137.13 -34.89 -49 -132.78 -75.56 119.69 -141.38 5.6 90.44 108.83 -38.39 136.21 131.46 -52.39 117.7 78.58 -9.23 -141.2zm-3058.96 -3782.55l0 0 -84.62 113.43 141.5 -1.81 81.71 115.55 41.98 -135.15 135.15 -42.02 -115.53 -81.67 1.78 -141.51 -113.39 84.61 -134.04 -45.44 45.46 134.01zm3556.94 3379.86l0 0 84.65 -113.43 -141.5 1.77 -81.75 -115.54 -41.96 135.13 -135.12 42.04 115.52 81.69 -1.81 141.49 113.4 -84.61 134.04 45.4 -45.47 -133.94zm-3933.71 -2861.97l0 0 -52.41 131.48 136.23 -38.39 108.83 90.47 5.57 -141.41 119.69 -75.56 -132.77 -49 -34.9 -137.16 -87.61 111.09 -141.24 -9.2 78.61 117.68zm4310.49 2344.08l0 0 52.38 -131.48 -136.18 38.36 -108.88 -90.47 -5.55 141.4 -119.62 75.57 132.71 49 34.86 137.16 87.66 -111.09 141.22 9.18 -78.6 -117.63zm-4540.41 -1746.32l0 0 -16.59 140.56 121.66 -72.33 128.54 59.21 -31.23 -138.03 96.07 -103.95 -140.94 -12.99 -69.2 -123.44 -55.89 129.99 -138.8 27.67 106.38 93.31zm4770.32 1148.56l0 0 16.57 -140.53 -121.64 72.27 -128.55 -59.21 31.23 138.03 -95.99 103.97 140.86 12.97 69.16 123.45 55.92 -129.97 138.81 -27.7 -106.37 -93.28zm-4837.69 -511.67l0 0 20.36 140.05 98.8 -101.37 139.47 23.98 -65.87 -125.27 65.87 -125.27 -139.5 23.94 -98.78 -101.32 -20.32 140.01 -126.93 62.65 126.9 62.6zm4905.04 -125.21l0 0 -20.37 -140.04 -98.77 101.31 -139.5 -23.94 65.88 125.23 -65.82 125.26 139.44 -23.89 98.77 101.33 20.37 -140.02 126.9 -62.68 -126.9 -62.56zm-4805.26 757.86l0 0 55.9 130 69.2 -123.48 140.92 -12.95 -96.03 -103.96 31.21 -138.06 -128.56 59.24 -121.66 -72.3 16.61 140.5 -106.38 93.36 138.79 27.65zm4705.5 -1390.49l0 0 -55.95 -129.97 -69.16 123.39 -140.93 13 96.02 103.94 -31.13 138.03 128.49 -59.21 121.64 72.33 -16.57 -140.51 106.34 -93.38 -138.75 -27.62zm-4445.37 1975.72l0 0 87.62 111.12 34.89 -137.19 132.78 -48.98 -119.69 -75.52 -5.57 -141.47 -108.85 90.5 -136.22 -38.35 52.41 131.41 -78.6 117.71 141.23 -9.23zm4185.25 -2560.95l0 0 -87.66 -111.08 -34.91 137.12 -132.76 49 119.69 75.53 5.65 141.41 108.75 -90.44 136.24 38.39 -52.38 -131.46 78.55 -117.73 -141.17 9.26zm-3782.54 3058.95l0 0 113.4 84.64 -1.8 -141.54 115.58 -81.67 -135.17 -41.97 -42 -135.22 -81.7 115.58 -141.5 -1.79 84.62 113.38 -45.45 134.04 134.02 -45.45zm3379.81 -3556.93l0 0 -113.4 -84.61 1.77 141.48 -115.53 81.7 135.12 41.98 42.07 135.13 81.66 -115.52 141.53 1.81 -84.65 -113.39 45.4 -134.06 -133.97 45.48zm-2861.91 3933.72l0 0 131.44 52.38 -38.39 -136.24 90.51 -108.8 -141.43 -5.58 -75.55 -119.7 -49.02 132.77 -137.13 34.91 111.09 87.6 -9.2 141.23 117.68 -78.57zm2344.03 -4310.49l0 0 -131.46 -52.4 38.36 136.21 -90.46 108.83 141.39 5.58 75.6 119.62 48.95 -132.7 137.18 -34.87 -111.09 -87.63 9.18 -141.26 -117.65 78.62zm-1746.27 4540.39l0 0 140.52 16.57 -72.36 -121.64 59.28 -128.52 -138.05 31.21 -103.97 -96.06 -12.97 140.92 -123.44 69.23 129.98 55.86 27.68 138.78 93.33 -106.35zm1148.53 -4770.31l0 0 -140.56 -16.57 72.3 121.64 -59.2 128.55 138.03 -31.22 103.96 95.99 12.97 -140.87 123.48 -69.2 -130 -55.89 -27.67 -138.8 -93.31 106.37z"/>
    <path id="1" class="fil5" d="M2791.87 230.81l62.64 126.92 140.02 20.34 -101.33 98.76 23.94 139.48 -125.27 -65.85 -125.25 65.88 23.94 -139.51 -101.35 -98.76 140.05 -20.38 62.61 -126.88zm62.61 5031.93l0 0 140.05 -20.36 -101.33 -98.77 23.94 -139.5 -125.27 65.88 -125.25 -65.85 23.93 139.47 -101.34 98.77 140.02 20.35 62.64 126.91 62.61 -126.9zm-757.87 -4805.25l0 0 -130 55.88 123.45 69.2 13 140.93 103.94 -96.06 138.04 31.2 -59.22 -128.52 72.3 -121.64 -140.51 16.6 -93.35 -106.4 -27.65 138.81zm1390.49 4705.47l0 0 130 -55.91 -123.45 -69.17 -12.97 -140.96 -103.94 96.05 -138.03 -31.16 59.22 128.52 -72.34 121.64 140.53 -16.6 93.38 106.37 27.6 -138.78zm-1975.73 -4445.37l0 0 -111.11 87.65 137.16 34.89 49.02 132.75 75.52 -119.67 141.43 -5.6 -90.47 -108.82 38.36 -136.21 -131.43 52.38 -117.7 -78.57 9.22 141.2zm2560.96 4185.27l0 0 111.09 -87.65 -137.13 -34.89 -49 -132.78 -75.56 119.69 -141.38 5.6 90.44 108.83 -38.39 136.21 131.46 -52.39 117.7 78.58 -9.23 -141.2zm-3058.96 -3782.55l0 0 -84.62 113.43 141.5 -1.81 81.71 115.55 41.98 -135.15 135.15 -42.02 -115.53 -81.67 1.78 -141.51 -113.39 84.61 -134.04 -45.44 45.46 134.01zm3556.94 3379.86l0 0 84.65 -113.43 -141.5 1.77 -81.75 -115.54 -41.96 135.13 -135.12 42.04 115.52 81.69 -1.81 141.49 113.4 -84.61 134.04 45.4 -45.47 -133.94zm-3933.71 -2861.97l0 0 -52.41 131.48 136.23 -38.39 108.83 90.47 5.57 -141.41 119.69 -75.56 -132.77 -49 -34.9 -137.16 -87.61 111.09 -141.24 -9.2 78.61 117.68zm4310.49 2344.08l0 0 52.38 -131.48 -136.18 38.36 -108.88 -90.47 -5.55 141.4 -119.62 75.57 132.71 49 34.86 137.16 87.66 -111.09 141.22 9.18 -78.6 -117.63zm-4540.41 -1746.32l0 0 -16.59 140.56 121.66 -72.33 128.54 59.21 -31.23 -138.03 96.07 -103.95 -140.94 -12.99 -69.2 -123.44 -55.89 129.99 -138.8 27.67 106.38 93.31zm4770.32 1148.56l0 0 16.57 -140.53 -121.64 72.27 -128.55 -59.21 31.23 138.03 -95.99 103.97 140.86 12.97 69.16 123.45 55.92 -129.97 138.81 -27.7 -106.37 -93.28zm-4837.69 -511.67l0 0 20.36 140.05 98.8 -101.37 139.47 23.98 -65.87 -125.27 65.87 -125.27 -139.5 23.94 -98.78 -101.32 -20.32 140.01 -126.93 62.65 126.9 62.6zm4905.04 -125.21l0 0 -20.37 -140.04 -98.77 101.31 -139.5 -23.94 65.88 125.23 -65.82 125.26 139.44 -23.89 98.77 101.33 20.37 -140.02 126.9 -62.68 -126.9 -62.56zm-4805.26 757.86l0 0 55.9 130 69.2 -123.48 140.92 -12.95 -96.03 -103.96 31.21 -138.06 -128.56 59.24 -121.66 -72.3 16.61 140.5 -106.38 93.36 138.79 27.65zm4705.5 -1390.49l0 0 -55.95 -129.97 -69.16 123.39 -140.93 13 96.02 103.94 -31.13 138.03 128.49 -59.21 121.64 72.33 -16.57 -140.51 106.34 -93.38 -138.75 -27.62zm-4445.37 1975.72l0 0 87.62 111.12 34.89 -137.19 132.78 -48.98 -119.69 -75.52 -5.57 -141.47 -108.85 90.5 -136.22 -38.35 52.41 131.41 -78.6 117.71 141.23 -9.23zm4185.25 -2560.95l0 0 -87.66 -111.08 -34.91 137.12 -132.76 49 119.69 75.53 5.65 141.41 108.75 -90.44 136.24 38.39 -52.38 -131.46 78.55 -117.73 -141.17 9.26zm-3782.54 3058.95l0 0 113.4 84.64 -1.8 -141.54 115.58 -81.67 -135.17 -41.97 -42 -135.22 -81.7 115.58 -141.5 -1.79 84.62 113.38 -45.45 134.04 134.02 -45.45zm3379.81 -3556.93l0 0 -113.4 -84.61 1.77 141.48 -115.53 81.7 135.12 41.98 42.07 135.13 81.66 -115.52 141.53 1.81 -84.65 -113.39 45.4 -134.06 -133.97 45.48zm-2861.91 3933.72l0 0 131.44 52.38 -38.39 -136.24 90.51 -108.8 -141.43 -5.58 -75.55 -119.7 -49.02 132.77 -137.13 34.91 111.09 87.6 -9.2 141.23 117.68 -78.57zm2344.03 -4310.49l0 0 -131.46 -52.4 38.36 136.21 -90.46 108.83 141.39 5.58 75.6 119.62 48.95 -132.7 137.18 -34.87 -111.09 -87.63 9.18 -141.26 -117.65 78.62zm-1746.27 4540.39l0 0 140.52 16.57 -72.36 -121.64 59.28 -128.52 -138.05 31.21 -103.97 -96.06 -12.97 140.92 -123.44 69.23 129.98 55.86 27.68 138.78 93.33 -106.35zm1148.53 -4770.31l0 0 -140.56 -16.57 72.3 121.64 -59.2 128.55 138.03 -31.22 103.96 95.99 12.97 -140.87 123.48 -69.2 -130 -55.89 -27.67 -138.8 -93.31 106.37z"/>
   </g>
   <path class="fil6" d="M2805.19 702.44c-1159.45,0 -2102.78,943.33 -2102.78,2102.77 0,1159.46 943.33,2102.75 2102.78,2102.75 1159.45,0 2102.78,-943.29 2102.78,-2102.75 0,-1159.44 -943.33,-2102.77 -2102.78,-2102.77zm0 4168.53l0 0c-1139.06,0 -2065.77,-926.65 -2065.77,-2065.76 0,-1139.09 926.71,-2065.77 2065.77,-2065.77 1139.11,0 2065.81,926.68 2065.81,2065.77 0,1139.11 -926.7,2065.76 -2065.81,2065.76z"/>
  </g>
  <g>
   <g id="_1910568000">
    <path class="fil7" d="M1878.1 1835.03c0,-91.83 72.27,-153.01 162.53,-153.01 41.5,0 87.39,13.54 116.28,44.69l5.53 5.94 -49.91 79.29 -9.36 -9.04c-14.5,-14.02 -36.4,-23.5 -56.73,-23.5 -32.56,0 -54.55,22.82 -54.55,54.57 0,33.59 24.22,57.21 57.74,57.21 23.78,0 50.19,-15.08 67.75,-30.26l10.1 -8.74 43.07 82.72 -5.36 5.48c-31.45,32.07 -80.3,48.17 -124.56,48.17 -91.07,0 -162.53,-60.91 -162.53,-153.52zm420.36 -50.82l9.22 0 54 -95.83 124.64 0 -86.74 140.71 98.27 153.11 -129.75 0 -57.71 -100.07 -11.93 0 0 100.07 -112.73 0 0 -293.82 112.73 0 0 95.83zm307.63 21.89l74.16 -117.72 105.36 0 0 293.82 -107.43 0 0 -117.21 -74.18 117.21 -105.33 0 0 -293.82 107.42 0 0 117.72zm234.74 82.44c18.41,-35.29 23.72,-85.58 23.72,-123.94l0 -76.22 246.17 0 0 200.16 39.17 0 0 157.2 -102.66 0 0 -63.54 -138.79 0 0 63.54 -105.84 0 0 -157.2 38.23 0zm442.5 -104.33l9.22 0 54 -95.83 124.64 0 -86.72 140.71 98.25 153.11 -129.75 0 -57.71 -100.07 -11.93 0 0 100.07 -112.73 0 0 -293.82 112.73 0 0 95.83zm339.83 6.91c-3.04,-11.42 -15.46,-13.84 -27.39,-13.84 -24.27,0 -49.41,11.06 -69.38,24.21l-10 6.59 -40.86 -83.1 6.82 -5.28c30.73,-23.74 83.11,-37.68 121.89,-37.68 76.27,0 132.35,42.31 132.35,121.77l0 178.41 -104.79 0 0 -17.69c-19.77,15.63 -45.29,24.04 -70.45,24.04 -54.73,0 -99.52,-37.5 -99.52,-93.69 0,-82.31 95.25,-103.07 161.33,-103.74zm-669.51 97.42l44.33 0 0 -106.49 -26 0c-0.03,36.8 -4.26,72.75 -18.33,106.49zm671.1 -23.87c-15.25,0.32 -51.24,3.9 -51.24,21.72 0,9.08 6.97,12.74 15.38,12.74 17.77,0 34.04,-17.16 35.86,-34.46z"/>
    <path class="fil8" d="M1888.65 1835.03c0,75.18 54.54,142.96 151.97,142.96 45.53,0 90,-17.47 117.01,-45l-33.36 -64.07c-19.59,16.94 -48.17,32.82 -74.66,32.82 -46.07,0 -68.3,-35.48 -68.3,-67.77 0,-32.3 21.71,-65.14 65.13,-65.14 23.83,0 48.18,11.13 64.07,26.49l38.65 -61.43c-27.01,-29.12 -70.42,-41.3 -108.54,-41.3 -97.96,0 -151.97,69.36 -151.97,142.44zm307.63 136.61l91.62 0 0 -100.08 28.58 0 57.71 100.08 104.33 0 -91.08 -141.91 0 -1.05 79.95 -129.74 -99.55 0 -54 95.85 -25.94 0 0 -95.85 -91.62 0 0 272.7zm312.94 0l88.96 0 75.72 -119.66c4.23,-7.42 10.06,-15.9 14.82,-27.01l1.07 0c-1.07,10.59 -1.07,21.18 -1.07,27.53l0 119.14 86.32 0 0 -272.7 -88.96 0 -75.72 120.2c-4.76,7.95 -10.07,15.89 -14.83,27.01l-1.05 0c0.53,-6.88 1.05,-17.47 1.05,-27.01l0 -120.2 -86.31 0 0 272.7zm427.84 -72.54c19.06,-36.53 24.35,-76.25 24.35,-117.56l0 -10.05 47.13 0 0 127.61 -71.48 0zm-123.91 0l0 136.08 84.72 0 0 -63.54 159.91 0 0 63.54 81.54 0 0 -136.08 -39.18 0 0 -200.16 -225.03 0 0 65.66c0,55.07 -10.07,103.78 -28.08,134.5l-33.88 0zm368 72.54l91.62 0 0 -100.08 28.58 0 57.71 100.08 104.33 0 -91.08 -141.91 0 -1.05 79.95 -129.74 -99.55 0 -54 95.85 -25.94 0 0 -95.85 -91.62 0 0 272.7zm291.23 -76.78c0,47.12 36.54,83.13 88.96,83.13 31.24,0 63.01,-14.3 81.01,-39.72l1.07 0c0,0 -1.07,7.95 -1.07,16.95l0 16.42 83.67 0 0 -167.85c0,-69.37 -46.6,-111.2 -121.79,-111.2 -44.48,0 -92.13,17.48 -115.43,35.48l31.77 64.6c21.71,-14.3 48.72,-25.95 75.18,-25.95 20.13,0 38.67,7.42 38.67,30.19l0 4.76 -7.95 0c-67.25,0 -154.09,20.11 -154.09,93.19zm90.55 -8.47c0,-24.89 36.01,-32.3 64.07,-32.3l8.47 0 0 7.41c0,22.25 -20.11,48.19 -46.6,48.19 -16.94,0 -25.94,-10.59 -25.94,-23.3z"/>
   </g>
   <g id="_1910564960">
    <path class="fil9" d="M1784.23 2634.83l-6.44 106.37c-0.1,1.46 -0.21,2.91 -0.33,4.39 25.7,-3.34 51.87,-5.31 67.72,-5.31 352.8,0 618.73,208.54 618.73,571.63 0,368.15 -276.64,616.49 -638.9,616.49 -211.94,0 -423.64,-75.87 -577.92,-223.13l-26.36 -25.17 236.48 -380.06 39.86 37.57c74.57,70.29 189.62,131.27 294.31,131.27 90.03,0 179.4,-53.3 179.4,-152.48 0,-114.05 -113.2,-154.73 -210.78,-154.73 -67.68,0 -134.91,18.94 -195.17,49.08l-17.5 8.76 -258.3 -97.21 70.79 -913.35 983.03 0 0 425.88 -558.62 0zm1197.58 410.26c-242.75,0 -450.57,-182.65 -450.57,-430.41 0,-244.96 209.59,-432.63 450.57,-432.63 239.87,0 450.59,188.74 450.59,432.63 0,246.74 -208.92,430.41 -450.59,430.41zm-407.29 856.4l1306.72 -1692.54 453.96 0 -1306.71 1692.54 -453.97 0zm913.99 -403.51c0,-244.96 209.61,-432.63 450.59,-432.63 239.88,0 450.58,188.74 450.58,432.63 0,246.71 -208.93,430.42 -450.58,430.42 -242.76,0 -450.59,-182.66 -450.59,-430.42zm-506.7 -811.51c41.83,0 78.52,-30.96 78.52,-74.01 0,-40.86 -39.3,-71.79 -78.52,-71.79 -39.22,0 -78.48,30.93 -78.48,71.79 0,43.05 36.65,74.01 78.48,74.01zm878.8 809.29c0,43.06 36.66,74.01 78.49,74.01 41.84,0 78.51,-30.95 78.51,-74.01 0,-40.86 -39.29,-71.79 -78.51,-71.79 -39.21,0 -78.49,30.93 -78.49,71.79z"/>
    <path class="fil10 str3" d="M1278 3672.86c147.97,141.24 349.73,210.73 547.01,210.73 349.73,0 594.1,-239.87 594.1,-571.66 0,-289.21 -192.8,-526.84 -573.92,-526.84 -29.14,0 -98.64,8.97 -116.57,15.68l-4.49 0c0,0 6.73,-31.38 8.97,-62.76l8.96 -147.97 555.98 0 0 -336.28 -896.74 0 -65.01 838.46 208.49 78.47c67.25,-33.63 141.24,-53.81 215.22,-53.81 145.73,0 255.57,73.98 255.57,199.53 0,132.26 -118.81,197.28 -224.19,197.28 -121.05,0 -246.6,-69.49 -325.06,-143.48l-188.32 302.65zm1703.82 -672.56c224.19,0 405.77,-170.38 405.77,-385.6 0,-210.73 -181.58,-387.84 -405.77,-387.84 -226.43,0 -405.78,177.11 -405.78,387.84 0,215.22 179.35,385.6 405.78,385.6zm-316.1 856.4l340.76 0 1237.53 -1602.94 -340.79 0 -1237.5 1602.94zm316.1 -1125.42c-67.26,0 -123.3,-51.57 -123.3,-118.82 0,-62.78 56.04,-116.57 123.3,-116.57 67.25,0 123.3,53.79 123.3,116.57 0,67.25 -56.05,118.82 -123.3,118.82zm551.5 766.71c0,215.22 179.35,385.6 405.78,385.6 224.18,0 405.79,-170.38 405.79,-385.6 0,-210.73 -181.61,-387.84 -405.79,-387.84 -226.43,0 -405.78,177.11 -405.78,387.84zm282.47 -2.24c0,-62.76 56.05,-116.57 123.31,-116.57 67.25,0 123.31,53.81 123.31,116.57 0,67.26 -56.06,118.83 -123.31,118.83 -67.26,0 -123.31,-51.57 -123.31,-118.83z"/>
   </g>
  </g>
 </g>
</svg>
