<?xml version="1.0" encoding="UTF-8"?>
<!DOCTYPE svg PUBLIC "-//W3C//DTD SVG 1.1//EN" "http://www.w3.org/Graphics/SVG/1.1/DTD/svg11.dtd">
<!-- Creator: CorelDRAW 2018 (64-Bit) -->
<svg xmlns="http://www.w3.org/2000/svg" xml:space="preserve" width="479px" height="479px" version="1.1" style="shape-rendering:geometricPrecision; text-rendering:geometricPrecision; image-rendering:optimizeQuality; fill-rule:evenodd; clip-rule:evenodd"
viewBox="0 0 96.69 96.69"
 xmlns:xlink="http://www.w3.org/1999/xlink">
 <defs>
  <style type="text/css">
   <![CDATA[
    .str0 {stroke:#7A521D;stroke-width:0.48;stroke-miterlimit:22.9256}
    .str1 {stroke:#FFF3AA;stroke-width:0.48;stroke-miterlimit:22.9256}
    .str2 {stroke:#A8762E;stroke-width:0.18;stroke-miterlimit:22.9256}
    .str3 {stroke:#7A521D;stroke-width:0.18;stroke-miterlimit:22.9256}
    .fil8 {fill:none;fill-rule:nonzero}
    .fil4 {fill:#B28C48}
    .fil6 {fill:#B28C48}
    .fil10 {fill:#FFF3AA;fill-rule:nonzero}
    .fil3 {fill:url(#id0);fill-rule:nonzero}
    .fil1 {fill:url(#id1);fill-rule:nonzero}
    .fil2 {fill:url(#id2);fill-rule:nonzero}
    .fil0 {fill:url(#id3);fill-rule:nonzero}
    .fil7 {fill:url(#id4);fill-rule:nonzero}
    .fil9 {fill:url(#id5);fill-rule:nonzero}
    .fil5 {fill:url(#id6);fill-rule:nonzero}
   ]]>
  </style>
  <linearGradient id="id0" gradientUnits="userSpaceOnUse" x1="11.78" y1="11.78" x2="84.9" y2="84.9">
   <stop offset="0" style="stop-opacity:1; stop-color:#FBEA8C"/>
   <stop offset="0.188235" style="stop-opacity:1; stop-color:#805F28"/>
   <stop offset="0.431373" style="stop-opacity:1; stop-color:#FFFFCF"/>
   <stop offset="0.65098" style="stop-opacity:1; stop-color:#805422"/>
   <stop offset="0.819608" style="stop-opacity:1; stop-color:#A78141"/>
   <stop offset="1" style="stop-opacity:1; stop-color:#6E4E1E"/>
  </linearGradient>
  <linearGradient id="id1" gradientUnits="userSpaceOnUse" x1="1.61" y1="1.61" x2="95.07" y2="95.07">
   <stop offset="0" style="stop-opacity:1; stop-color:#C3913B"/>
   <stop offset="0.188235" style="stop-opacity:1; stop-color:#A8762E"/>
   <stop offset="0.360784" style="stop-opacity:1; stop-color:#FFF3AA"/>
   <stop offset="0.388235" style="stop-opacity:1; stop-color:#FFF3AA"/>
   <stop offset="0.490196" style="stop-opacity:1; stop-color:#FFF3AA"/>
   <stop offset="0.54902" style="stop-opacity:1; stop-color:#FFF3AA"/>
   <stop offset="0.670588" style="stop-opacity:1; stop-color:#99670F"/>
   <stop offset="0.729412" style="stop-opacity:1; stop-color:#99670F"/>
   <stop offset="0.819608" style="stop-opacity:1; stop-color:#C19B55"/>
   <stop offset="1" style="stop-opacity:1; stop-color:#7A521D"/>
  </linearGradient>
  <linearGradient id="id2" gradientUnits="userSpaceOnUse" x1="1.38" y1="95.06" x2="94.85" y2="1.6">
   <stop offset="0" style="stop-opacity:1; stop-color:#A77F41"/>
   <stop offset="0.188235" style="stop-opacity:1; stop-color:#8B652D"/>
   <stop offset="0.588235" style="stop-opacity:1; stop-color:#4C2D0C"/>
   <stop offset="0.670588" style="stop-opacity:1; stop-color:#4C2D0C"/>
   <stop offset="0.788235" style="stop-opacity:1; stop-color:#4C2D0C"/>
   <stop offset="1" style="stop-opacity:1; stop-color:#8B652D"/>
  </linearGradient>
  <linearGradient id="id3" gradientUnits="userSpaceOnUse" xlink:href="#id0" x1="0.24" y1="0.24" x2="96.45" y2="96.45">
  </linearGradient>
  <linearGradient id="id4" gradientUnits="userSpaceOnUse" xlink:href="#id1" x1="32.34" y1="34.62" x2="63.96" y2="34.62">
  </linearGradient>
  <linearGradient id="id5" gradientUnits="userSpaceOnUse" x1="-24.25" y1="-23.94" x2="125.65" y2="125.96">
   <stop offset="0" style="stop-opacity:1; stop-color:#FBEA8C"/>
   <stop offset="0.121569" style="stop-opacity:1; stop-color:#80541B"/>
   <stop offset="0.278431" style="stop-opacity:1; stop-color:#FFF3AA"/>
   <stop offset="0.309804" style="stop-opacity:1; stop-color:#FFF3AA"/>
   <stop offset="0.45098" style="stop-opacity:1; stop-color:#FFF3AA"/>
   <stop offset="0.458824" style="stop-opacity:1; stop-color:#FFF3AA"/>
   <stop offset="0.658824" style="stop-opacity:1; stop-color:#9C6C14"/>
   <stop offset="0.819608" style="stop-opacity:1; stop-color:#AD7A1E"/>
   <stop offset="1" style="stop-opacity:1; stop-color:#6E4E1E"/>
  </linearGradient>
  <linearGradient id="id6" gradientUnits="userSpaceOnUse" xlink:href="#id1" x1="22.35" y1="37.33" x2="77.23" y2="37.33">
  </linearGradient>
 </defs>
 <g id="Слой_x0020_1">
  <metadata id="CorelCorpID_0Corel-Layer"/>
  <path class="fil0 str0" d="M96.45 48.34c0,26.57 -21.54,48.11 -48.11,48.11 -26.56,0 -48.1,-21.54 -48.1,-48.11 0,-26.56 21.54,-48.1 48.1,-48.1 26.57,0 48.11,21.54 48.11,48.1z"/>
  <path class="fil1 str1" d="M48.34 95.08c-25.77,0 -46.73,-20.97 -46.73,-46.74 0,-25.77 20.96,-46.73 46.73,-46.73 25.77,0 46.73,20.96 46.73,46.73 0,25.77 -20.96,46.74 -46.73,46.74z"/>
  <path class="fil2" d="M48.52 2.65l-0.8 0 0 -1.05c0.13,0 0.26,0 0.39,0 0.14,0 0.27,0 0.41,0l0 1.05zm0 92.41l0 0 0 -1.06 -0.8 0 0 1.06c0.13,0 0.26,0 0.39,0 0.14,0 0.27,0 0.41,0zm-2.59 -92.35l0 0 0.8 -0.04 -0.05 -1.05c-0.26,0.01 -0.53,0.02 -0.79,0.03l0.04 1.06zm4.38 91.24l0 0 -0.8 0.03 0.04 1.06c0.27,-0.01 0.54,-0.02 0.8,-0.03l-0.04 -1.06zm-6.17 -91.12l0 0 0.79 -0.07 -0.08 -1.05c-0.27,0.02 -0.53,0.04 -0.8,0.07l0.09 1.05zm7.96 91l0 0 -0.8 0.06 0.09 1.06c0.26,-0.02 0.53,-0.04 0.79,-0.07l-0.08 -1.05zm-9.75 -90.81l0 0 0.8 -0.1 -0.13 -1.04c-0.26,0.02 -0.53,0.05 -0.79,0.09l0.12 1.05zm11.53 90.62l0 0 -0.79 0.09 0.12 1.05c0.27,-0.03 0.53,-0.06 0.8,-0.09l-0.13 -1.05zm-13.3 -90.36l0 0 0.79 -0.13 -0.17 -1.04c-0.26,0.04 -0.52,0.08 -0.79,0.12l0.17 1.05zm15.08 90.1l0 0 -0.79 0.12 0.16 1.05c0.27,-0.04 0.53,-0.08 0.79,-0.13l-0.16 -1.04zm-16.84 -89.77l0 0 0.78 -0.16 -0.21 -1.03c-0.26,0.05 -0.52,0.1 -0.78,0.15l0.21 1.04zm18.6 89.44l0 0 -0.78 0.15 0.2 1.04c0.27,-0.05 0.53,-0.1 0.79,-0.15l-0.21 -1.04zm-20.35 -89.04l0 0 0.77 -0.19 -0.24 -1.03c-0.26,0.06 -0.52,0.13 -0.78,0.19l0.25 1.03zm22.1 88.64l0 0 -0.78 0.18 0.25 1.04c0.26,-0.06 0.52,-0.13 0.78,-0.19l-0.25 -1.03zm-23.83 -88.17l0 0 0.76 -0.22 -0.28 -1.02c-0.26,0.07 -0.52,0.14 -0.77,0.22l0.29 1.02zm25.56 87.7l0 0 -0.77 0.22 0.29 1.01c0.26,-0.07 0.51,-0.14 0.77,-0.21l-0.29 -1.02zm-27.28 -87.17l0 0 0.76 -0.24 -0.32 -1.01c-0.26,0.08 -0.51,0.16 -0.76,0.25l0.32 1zm28.99 86.63l0 0 -0.76 0.25 0.33 1.01c0.25,-0.08 0.51,-0.17 0.76,-0.25l-0.33 -1.01zm-30.68 -86.02l0 0 0.75 -0.28 -0.36 -0.99c-0.25,0.09 -0.5,0.18 -0.75,0.27l0.36 1zm32.37 85.42l0 0 -0.75 0.28 0.37 0.99c0.25,-0.09 0.5,-0.18 0.75,-0.28l-0.37 -0.99zm-34.03 -84.76l0 0 0.74 -0.3 -0.41 -0.98c-0.24,0.1 -0.49,0.2 -0.73,0.31l0.4 0.97zm35.69 84.09l0 0 -0.73 0.31 0.4 0.97c0.25,-0.1 0.49,-0.2 0.74,-0.3l-0.41 -0.98zm-37.33 -83.35l0 0 0.73 -0.34 -0.44 -0.96c-0.25,0.11 -0.49,0.23 -0.73,0.34l0.44 0.96zm38.97 82.62l0 0 -0.72 0.34 0.44 0.95c0.24,-0.11 0.48,-0.22 0.72,-0.34l-0.44 -0.95zm-40.58 -81.83l0 0 0.72 -0.36 -0.48 -0.93c-0.24,0.12 -0.48,0.24 -0.71,0.36l0.47 0.93zm42.19 81.03l0 0 -0.71 0.37 0.47 0.93c0.24,-0.12 0.48,-0.24 0.71,-0.36l-0.47 -0.94zm-43.76 -80.17l0 0 0.7 -0.39 -0.51 -0.91c-0.24,0.13 -0.47,0.26 -0.7,0.39l0.51 0.91zm45.33 79.32l0 0 -0.69 0.39 0.51 0.91c0.23,-0.13 0.46,-0.26 0.69,-0.39l-0.51 -0.91zm-46.87 -78.4l0 0 0.68 -0.41 -0.54 -0.89c-0.23,0.13 -0.46,0.27 -0.68,0.42l0.54 0.88zm48.41 77.47l0 0 -0.68 0.42 0.55 0.89c0.22,-0.14 0.45,-0.28 0.67,-0.42l-0.54 -0.89zm-49.91 -76.49l0 0 0.66 -0.44 -0.58 -0.86c-0.22,0.14 -0.44,0.29 -0.66,0.44l0.58 0.86zm51.41 75.51l0 0 -0.66 0.45 0.58 0.86c0.22,-0.15 0.44,-0.29 0.66,-0.44l-0.58 -0.87zm-52.87 -74.47l0 0 0.64 -0.47 -0.61 -0.84c-0.22,0.16 -0.43,0.31 -0.64,0.47l0.61 0.84zm54.34 73.44l0 0 -0.65 0.47 0.61 0.83c0.22,-0.15 0.43,-0.31 0.64,-0.47l-0.6 -0.83zm-55.76 -72.34l0 0 0.62 -0.5 -0.64 -0.81c-0.21,0.16 -0.42,0.33 -0.63,0.49l0.65 0.82zm57.18 71.24l0 0 -0.63 0.5 0.64 0.81c0.21,-0.17 0.42,-0.33 0.62,-0.5l-0.63 -0.81zm-58.56 -70.09l0 0 0.61 -0.52 -0.68 -0.79c-0.2,0.17 -0.4,0.34 -0.6,0.52l0.67 0.79zm59.93 68.94l0 0 -0.6 0.52 0.66 0.78c0.21,-0.17 0.41,-0.34 0.61,-0.51l-0.67 -0.79zm-61.26 -67.74l0 0 0.58 -0.54 -0.7 -0.76c-0.2,0.18 -0.39,0.36 -0.58,0.54l0.7 0.76zm62.59 66.54l0 0 -0.58 0.54 0.7 0.76c0.19,-0.18 0.39,-0.36 0.58,-0.55l-0.7 -0.75zm-64.6 -66.01l0 0 0.73 0.72 0.56 -0.56 -0.73 -0.73c-0.19,0.19 -0.38,0.38 -0.56,0.57zm66.61 65.48l0 0 -0.73 -0.73 -0.56 0.57 0.73 0.73c0.19,-0.19 0.38,-0.38 0.56,-0.57zm-67.12 -63.45l0 0 0.55 -0.59 -0.76 -0.7c-0.19,0.19 -0.37,0.39 -0.55,0.59l0.76 0.7zm67.63 61.42l0 0 -0.55 0.59 0.76 0.7c0.18,-0.2 0.37,-0.39 0.54,-0.59l-0.75 -0.7zm-68.81 -60.07l0 0 0.52 -0.61 -0.78 -0.67c-0.18,0.2 -0.35,0.4 -0.52,0.61l0.78 0.67zm69.99 58.72l0 0 -0.52 0.61 0.78 0.67c0.18,-0.2 0.35,-0.41 0.52,-0.61l-0.78 -0.67zm-71.11 -57.32l0 0 0.49 -0.63 -0.81 -0.64c-0.17,0.21 -0.33,0.41 -0.5,0.62l0.82 0.65zm72.23 55.92l0 0 -0.49 0.63 0.81 0.64c0.16,-0.21 0.33,-0.42 0.49,-0.63l-0.81 -0.64zm-73.3 -54.48l0 0 0.47 -0.65 -0.84 -0.61c-0.16,0.21 -0.32,0.43 -0.47,0.64l0.84 0.62zm74.37 53.04l0 0 -0.47 0.65 0.84 0.61c0.16,-0.22 0.31,-0.43 0.47,-0.65l-0.84 -0.61zm-75.38 -51.56l0 0 0.44 -0.67 -0.87 -0.58c-0.15,0.22 -0.29,0.45 -0.44,0.67l0.87 0.58zm76.39 50.08l0 0 -0.44 0.67 0.86 0.57c0.15,-0.22 0.3,-0.44 0.45,-0.66l-0.87 -0.58zm-77.35 -48.56l0 0 0.42 -0.69 -0.89 -0.54c-0.14,0.23 -0.28,0.45 -0.42,0.68l0.89 0.55zm78.31 47.04l0 0 -0.42 0.69 0.89 0.54c0.14,-0.23 0.28,-0.45 0.42,-0.68l-0.89 -0.55zm-79.2 -45.49l0 0 0.39 -0.7 -0.92 -0.51c-0.13,0.23 -0.26,0.47 -0.39,0.7l0.92 0.51zm80.09 43.94l0 0 -0.39 0.7 0.91 0.51c0.13,-0.23 0.26,-0.47 0.39,-0.7l-0.91 -0.51zm-80.92 -42.35l0 0 0.36 -0.71 -0.94 -0.48c-0.12,0.24 -0.24,0.48 -0.36,0.71l0.94 0.48zm81.75 40.76l0 0 -0.36 0.71 0.93 0.48c0.12,-0.24 0.25,-0.48 0.36,-0.71l-0.93 -0.48zm-82.52 -39.14l0 0 0.33 -0.72 -0.95 -0.44c-0.12,0.24 -0.23,0.48 -0.34,0.72l0.96 0.44zm83.29 37.52l0 0 -0.33 0.73 0.95 0.43c0.11,-0.24 0.23,-0.48 0.34,-0.72l-0.96 -0.44zm-84 -35.87l0 0 0.31 -0.74 -0.98 -0.4c-0.1,0.24 -0.2,0.49 -0.3,0.74l0.97 0.4zm84.7 34.22l0 0 -0.3 0.74 0.97 0.4c0.11,-0.24 0.21,-0.49 0.31,-0.74l-0.98 -0.4zm-85.34 -32.54l0 0 0.28 -0.75 -0.99 -0.37c-0.09,0.25 -0.19,0.5 -0.28,0.75l0.99 0.37zm85.98 30.87l0 0 -0.27 0.74 0.99 0.37c0.09,-0.25 0.18,-0.5 0.27,-0.75l-0.99 -0.36zm-86.55 -29.17l0 0 0.25 -0.76 -1.01 -0.33c-0.08,0.25 -0.17,0.51 -0.25,0.76l1.01 0.33zm87.13 27.47l0 0 -0.25 0.75 1 0.33c0.09,-0.25 0.17,-0.5 0.25,-0.76l-1 -0.32zm-87.63 -25.75l0 0 0.21 -0.77 -1.02 -0.29c-0.07,0.26 -0.14,0.51 -0.21,0.77l1.02 0.29zm88.13 24.02l0 0 -0.21 0.77 1.01 0.29c0.08,-0.25 0.15,-0.51 0.22,-0.77l-1.02 -0.29zm-88.57 -22.28l0 0 0.18 -0.78 -1.03 -0.25c-0.06,0.26 -0.13,0.52 -0.19,0.78l1.04 0.25zm89.01 20.55l0 0 -0.19 0.77 1.03 0.25c0.07,-0.26 0.13,-0.52 0.19,-0.78l-1.03 -0.24zm-89.38 -18.8l0 0 0.15 -0.78 -1.04 -0.21c-0.05,0.26 -0.1,0.52 -0.15,0.79l1.04 0.2zm89.75 17.04l0 0 -0.16 0.78 1.04 0.21c0.06,-0.26 0.11,-0.52 0.15,-0.78l-1.03 -0.21zm-90.05 -15.27l0 0 0.12 -0.79 -1.04 -0.16c-0.04,0.26 -0.09,0.52 -0.13,0.79l1.05 0.16zm90.35 13.5l0 0 -0.13 0.79 1.05 0.17c0.04,-0.27 0.08,-0.53 0.12,-0.79l-1.04 -0.17zm-90.58 -11.72l0 0 0.09 -0.79 -1.05 -0.13c-0.03,0.27 -0.06,0.53 -0.09,0.8l1.05 0.12zm90.81 9.94l0 0 -0.09 0.8 1.04 0.12c0.04,-0.26 0.07,-0.53 0.1,-0.79l-1.05 -0.13zm-90.97 -8.15l0 0 0.06 -0.8 -1.05 -0.08c-0.02,0.26 -0.05,0.53 -0.06,0.79l1.05 0.09zm91.13 6.37l0 0 -0.06 0.79 1.05 0.09c0.02,-0.27 0.04,-0.53 0.06,-0.8l-1.05 -0.08zm-91.22 -4.58l0 0 0.03 -0.8 -1.06 -0.04c-0.01,0.26 -0.02,0.53 -0.03,0.8l1.06 0.04zm91.31 2.79l0 0 -0.03 0.79 1.05 0.05c0.01,-0.27 0.02,-0.54 0.03,-0.8l-1.05 -0.04zm-91.33 -1.8l0 0 -1.05 0c-0.01,0.14 -0.01,0.27 -0.01,0.4 0,0.13 0,0.27 0.01,0.4l1.05 0 0 -0.8zm92.4 0l0 0 -1.05 0 0 0.8 1.05 0c0,-0.13 0.01,-0.27 0.01,-0.4 0,-0.13 -0.01,-0.26 -0.01,-0.4zm-92.35 2.6l0 0 -0.03 -0.8 -1.06 0.04c0.01,0.26 0.02,0.53 0.04,0.8l1.05 -0.04zm92.33 -3.63l0 0c-0.01,-0.27 -0.02,-0.54 -0.03,-0.8l-1.05 0.04 0.03 0.8 1.05 -0.04zm-92.21 5.41l0 0 -0.06 -0.79 -1.05 0.08c0.02,0.27 0.04,0.53 0.06,0.8l1.05 -0.09zm91.01 -7.96l0 0 0.06 0.8 1.05 -0.09c-0.02,-0.26 -0.04,-0.53 -0.06,-0.79l-1.05 0.08zm-90.82 9.75l0 0 -0.09 -0.79 -1.05 0.12c0.03,0.26 0.06,0.53 0.09,0.79l1.05 -0.12zm90.62 -11.53l0 0 0.1 0.79 1.05 -0.12c-0.03,-0.27 -0.06,-0.53 -0.09,-0.8l-1.06 0.13zm-90.36 13.3l0 0 -0.12 -0.79 -1.05 0.17c0.04,0.26 0.09,0.53 0.13,0.79l1.04 -0.17zm90.1 -15.08l0 0 0.13 0.79 1.04 -0.16c-0.04,-0.27 -0.08,-0.53 -0.12,-0.79l-1.05 0.16zm-89.77 16.85l0 0 -0.15 -0.79 -1.04 0.21c0.05,0.26 0.1,0.52 0.15,0.78l1.04 -0.2zm89.44 -18.61l0 0 0.16 0.78 1.04 -0.2c-0.05,-0.26 -0.1,-0.53 -0.16,-0.79l-1.04 0.21zm-89.04 20.35l0 0 -0.18 -0.77 -1.03 0.24c0.06,0.27 0.12,0.52 0.19,0.78l1.02 -0.25zm88.64 -22.1l0 0 0.19 0.78 1.03 -0.25c-0.06,-0.26 -0.12,-0.52 -0.19,-0.77l-1.03 0.24zm-88.17 23.84l0 0 -0.22 -0.77 -1.01 0.28c0.07,0.26 0.14,0.52 0.21,0.77l1.02 -0.28zm87.7 -25.57l0 0 0.22 0.77 1.02 -0.29c-0.07,-0.25 -0.14,-0.51 -0.22,-0.77l-1.02 0.29zm-87.16 27.28l0 0 -0.25 -0.76 -1 0.33c0.07,0.25 0.16,0.5 0.24,0.75l1.01 -0.32zm86.63 -28.99l0 0 0.25 0.76 1 -0.33c-0.08,-0.25 -0.16,-0.51 -0.24,-0.76l-1.01 0.33zm-86.03 30.68l0 0 -0.28 -0.75 -0.99 0.36c0.09,0.25 0.19,0.5 0.28,0.75l0.99 -0.36zm85.43 -32.37l0 0 0.27 0.75 1 -0.37c-0.1,-0.25 -0.19,-0.5 -0.28,-0.74l-0.99 0.36zm-84.76 34.03l0 0 -0.31 -0.74 -0.97 0.41c0.1,0.24 0.2,0.49 0.31,0.73l0.97 -0.4zm84.09 -35.69l0 0 0.3 0.73 0.98 -0.4c-0.1,-0.25 -0.2,-0.49 -0.31,-0.74l-0.97 0.41zm-83.36 37.33l0 0 -0.33 -0.73 -0.96 0.44c0.11,0.25 0.23,0.49 0.34,0.73l0.95 -0.44zm82.62 -38.97l0 0 0.34 0.72 0.96 -0.44c-0.11,-0.24 -0.23,-0.48 -0.34,-0.72l-0.96 0.44zm-81.82 40.58l0 0 -0.36 -0.71 -0.94 0.47c0.12,0.24 0.24,0.47 0.37,0.71l0.93 -0.47zm81.03 -42.19l0 0 0.36 0.71 0.94 -0.47c-0.12,-0.24 -0.24,-0.48 -0.37,-0.71l-0.93 0.47zm-80.17 43.76l0 0 -0.39 -0.7 -0.91 0.51c0.13,0.24 0.25,0.47 0.39,0.7l0.91 -0.51zm79.31 -45.33l0 0 0.39 0.69 0.91 -0.51c-0.12,-0.23 -0.25,-0.46 -0.39,-0.69l-0.91 0.51zm-78.39 46.87l0 0 -0.42 -0.68 -0.89 0.54c0.14,0.23 0.28,0.46 0.42,0.68l0.89 -0.54zm77.47 -48.41l0 0 0.42 0.68 0.89 -0.55c-0.14,-0.22 -0.28,-0.45 -0.42,-0.68l-0.89 0.55zm-76.49 49.91l0 0 -0.45 -0.66 -0.86 0.57c0.15,0.23 0.3,0.45 0.45,0.67l0.86 -0.58zm75.51 -51.41l0 0 0.44 0.66 0.87 -0.58c-0.15,-0.22 -0.3,-0.44 -0.45,-0.66l-0.86 0.58zm-74.47 52.88l0 0 -0.47 -0.65 -0.84 0.61c0.15,0.21 0.31,0.43 0.47,0.64l0.84 -0.6zm73.43 -54.34l0 0 0.47 0.64 0.84 -0.61c-0.15,-0.22 -0.31,-0.43 -0.47,-0.65l-0.84 0.62zm-72.34 55.76l0 0 -0.49 -0.63 -0.81 0.64c0.16,0.21 0.33,0.42 0.49,0.62l0.81 -0.63zm71.25 -57.18l0 0 0.49 0.62 0.82 -0.64c-0.17,-0.21 -0.33,-0.42 -0.5,-0.63l-0.81 0.65zm-70.1 58.55l0 0 -0.52 -0.6 -0.78 0.66c0.17,0.21 0.34,0.41 0.52,0.61l0.78 -0.67zm68.95 -59.93l0 0 0.51 0.6 0.79 -0.67c-0.17,-0.2 -0.34,-0.4 -0.52,-0.61l-0.78 0.68zm-67.75 61.26l0 0 -0.54 -0.58 -0.75 0.7c0.18,0.19 0.36,0.39 0.54,0.58l0.75 -0.7zm66.54 -62.59l0 0 0.55 0.58 0.76 -0.7c-0.18,-0.2 -0.37,-0.39 -0.55,-0.58l-0.76 0.7zm-66.01 64.6l0 0 0.73 -0.73 -0.57 -0.56 -0.72 0.73c0.19,0.19 0.37,0.37 0.56,0.56zm65.49 -66.62l0 0 -0.73 0.74 0.56 0.56 0.74 -0.73c-0.19,-0.19 -0.38,-0.38 -0.57,-0.57zm-63.46 67.13l0 0 -0.58 -0.54 -0.7 0.75c0.19,0.18 0.39,0.36 0.58,0.54l0.7 -0.75zm62.71 -67.84l0 0c-0.19,-0.19 -0.38,-0.37 -0.58,-0.55l-0.71 0.77 0.59 0.54 0.7 -0.76zm-61.36 69.02l0 0 -0.6 -0.52 -0.67 0.78c0.2,0.18 0.4,0.35 0.61,0.52l0.66 -0.78zm60.01 -70.26l0 0c-0.21,-0.17 -0.41,-0.34 -0.61,-0.51l-0.68 0.79 0.61 0.51 0.68 -0.79zm-58.61 71.38l0 0 -0.63 -0.49 -0.63 0.81c0.2,0.16 0.41,0.33 0.62,0.49l0.64 -0.81zm57.2 -72.55l0 0c-0.21,-0.17 -0.42,-0.33 -0.63,-0.5l-0.64 0.82 0.63 0.49 0.64 -0.81zm-55.76 73.62l0 0 -0.65 -0.47 -0.6 0.84c0.21,0.16 0.43,0.31 0.64,0.47l0.61 -0.84zm54.31 -74.74l0 0c-0.22,-0.16 -0.43,-0.32 -0.65,-0.47l-0.61 0.84 0.64 0.47 0.62 -0.84zm-52.83 75.76l0 0 -0.66 -0.45 -0.58 0.86c0.22,0.15 0.44,0.3 0.67,0.45l0.57 -0.86zm51.33 -76.83l0 0c-0.22,-0.15 -0.44,-0.29 -0.66,-0.44l-0.58 0.87 0.66 0.44 0.58 -0.87zm-49.81 77.78l0 0 -0.68 -0.42 -0.54 0.88c0.22,0.15 0.45,0.29 0.68,0.42l0.54 -0.88zm48.28 -78.78l0 0c-0.23,-0.14 -0.45,-0.28 -0.68,-0.42l-0.55 0.89 0.68 0.42 0.55 -0.89zm-46.72 79.67l0 0 -0.7 -0.39 -0.51 0.91c0.23,0.13 0.46,0.26 0.7,0.39l0.51 -0.91zm45.14 -80.62l0 0c-0.23,-0.13 -0.46,-0.26 -0.69,-0.39l-0.52 0.92 0.7 0.39 0.51 -0.92zm-43.56 81.46l0 0 -0.71 -0.37 -0.47 0.93c0.24,0.12 0.47,0.24 0.71,0.36l0.47 -0.92zm41.95 -82.34l0 0c-0.23,-0.12 -0.47,-0.24 -0.71,-0.36l-0.48 0.94 0.72 0.36 0.47 -0.94zm-40.32 83.1l0 0 -0.73 -0.33 -0.44 0.95c0.24,0.11 0.48,0.23 0.73,0.33l0.44 -0.95zm38.68 -83.91l0 0c-0.24,-0.12 -0.48,-0.23 -0.72,-0.34l-0.45 0.96 0.73 0.33 0.44 -0.95zm-37.04 84.62l0 0 -0.73 -0.31 -0.4 0.97c0.24,0.11 0.49,0.21 0.73,0.3l0.4 -0.96zm35.37 -85.38l0 0c-0.25,-0.1 -0.49,-0.2 -0.74,-0.3l-0.41 0.98 0.74 0.3 0.41 -0.98zm-33.69 86.02l0 0 -0.75 -0.28 -0.36 0.98c0.25,0.1 0.5,0.19 0.75,0.28l0.36 -0.98zm31.99 -86.7l0 0c-0.25,-0.1 -0.5,-0.19 -0.75,-0.28l-0.37 1 0.75 0.27 0.37 -0.99zm-30.29 87.27l0 0 -0.76 -0.25 -0.32 1c0.25,0.09 0.5,0.17 0.75,0.25l0.33 -1zm28.56 -87.89l0 0c-0.25,-0.09 -0.51,-0.17 -0.76,-0.25l-0.33 1.02 0.76 0.24 0.33 -1.01zm-26.84 88.4l0 0 -0.77 -0.22 -0.28 1.01c0.25,0.07 0.51,0.15 0.77,0.22l0.28 -1.01zm25.09 -88.95l0 0c-0.26,-0.07 -0.52,-0.15 -0.77,-0.22l-0.29 1.03 0.77 0.21 0.29 -1.02zm-23.35 89.38l0 0 -0.78 -0.18 -0.24 1.02c0.26,0.06 0.52,0.13 0.77,0.19l0.25 -1.03zm21.57 -89.86l0 0c-0.25,-0.06 -0.51,-0.13 -0.77,-0.19l-0.25 1.04 0.78 0.19 0.24 -1.04zm-19.81 90.23l0 0 -0.79 -0.15 -0.2 1.03c0.26,0.05 0.52,0.1 0.78,0.15l0.21 -1.03zm18.03 -90.64l0 0c-0.26,-0.05 -0.53,-0.1 -0.79,-0.15l-0.21 1.04 0.79 0.16 0.21 -1.05zm-16.26 90.94l0 0 -0.79 -0.12 -0.17 1.03c0.26,0.05 0.53,0.09 0.79,0.13l0.17 -1.04zm14.45 -91.27l0 0c-0.26,-0.05 -0.52,-0.09 -0.79,-0.13l-0.16 1.05 0.79 0.13 0.16 -1.05zm-12.68 91.5l0 0 -0.79 -0.09 -0.12 1.04c0.26,0.04 0.53,0.06 0.79,0.09l0.12 -1.04zm10.87 -91.77l0 0c-0.27,-0.04 -0.53,-0.06 -0.8,-0.09l-0.12 1.05 0.79 0.1 0.13 -1.06zm-9.08 91.93l0 0 -0.8 -0.06 -0.08 1.04c0.27,0.03 0.53,0.05 0.8,0.07l0.08 -1.05zm7.25 -92.12l0 0c-0.26,-0.03 -0.53,-0.05 -0.8,-0.07l-0.08 1.06 0.8 0.06 0.08 -1.05zm-5.46 92.21l0 0 -0.8 -0.03 -0.04 1.05c0.27,0.01 0.53,0.02 0.8,0.03l0.04 -1.05zm3.63 -92.34l0 0c-0.27,-0.01 -0.53,-0.02 -0.8,-0.03l-0.04 1.06 0.8 0.03 0.04 -1.06z"/>
  <path class="fil3" d="M48.34 11.78c-20.16,0 -36.56,16.4 -36.56,36.56 0,20.16 16.4,36.56 36.56,36.56 20.16,0 36.56,-16.4 36.56,-36.56 0,-20.16 -16.4,-36.56 -36.56,-36.56zm0 72.48l0 0c-19.8,0 -35.91,-16.11 -35.91,-35.92 0,-19.8 16.11,-35.91 35.91,-35.91 19.81,0 35.92,16.11 35.92,35.91 0,19.81 -16.11,35.92 -35.92,35.92z"/>
  <g id="_1906788576">
   <g>
    <path class="fil4" d="M30.79 44.35c-0.24,0 -0.47,0 -0.69,0l-7.36 0 0 -7.33 18.94 0 0 5.27 -4.99 5.74c3.6,1.26 6.07,4.43 6.07,8.4 0,6.31 -4.91,10.18 -11,10.18 -3.61,0 -7.39,-1.25 -9.96,-3.86l-0.42 -0.43 4.06 -6.54 0.69 0.67c1.31,1.27 3.29,2.25 5.13,2.25 1.2,0 3.16,-0.43 3.16,-1.97 0,-2.06 -2.86,-2.27 -4.35,-2.27l-2.44 0 -1.82 -4.18 3.93 -4.72c0.33,-0.39 0.68,-0.81 1.05,-1.21zm21.15 7.06c-4.18,0 -7.76,-3.14 -7.76,-7.4 0,-4.22 3.61,-7.45 7.76,-7.45 4.12,0 7.75,3.25 7.75,7.45 0,4.24 -3.6,7.4 -7.75,7.4zm-7.01 14.74l22.48 -29.13 7.81 0 -22.48 29.13 -7.81 0zm15.72 -6.95c0,-4.21 3.61,-7.44 7.76,-7.44 4.12,0 7.75,3.25 7.75,7.44 0,4.25 -3.6,7.41 -7.75,7.41 -4.18,0 -7.76,-3.14 -7.76,-7.41zm-8.71 -13.96c0.71,0 1.35,-0.53 1.35,-1.27 0,-0.71 -0.68,-1.24 -1.35,-1.24 -0.68,0 -1.35,0.53 -1.35,1.24 0,0.74 0.63,1.27 1.35,1.27zm15.12 13.92c0,0.75 0.63,1.28 1.35,1.28 0.71,0 1.35,-0.53 1.35,-1.28 0,-0.7 -0.68,-1.23 -1.35,-1.23 -0.68,0 -1.35,0.53 -1.35,1.23z"/>
    <path class="fil5 str2" d="M22.35 62.21c2.47,2.51 6.1,3.63 9.41,3.63 6.91,0 10.22,-4.71 10.22,-9.41 0,-3.86 -2.58,-7.1 -6.67,-7.99l5.59 -6.44 0 -4.2 -17.39 0 0 5.78 6.59 0c1.74,0 2.63,-0.19 2.63,-0.19l0 0.08c0,0 -1.08,1 -2.39,2.58l-3.63 4.36 1.43 3.28 1.93 0c2.97,0 5.13,0.88 5.13,3.04 0,1.51 -1.43,2.74 -3.94,2.74 -2.12,0 -4.28,-1.12 -5.67,-2.47l-3.24 5.21zm29.59 -11.57c3.85,0 6.98,-2.93 6.98,-6.63 0,-3.63 -3.13,-6.68 -6.98,-6.68 -3.9,0 -6.99,3.05 -6.99,6.68 0,3.7 3.09,6.63 6.99,6.63zm-5.44 14.73l5.86 0 21.29 -27.57 -5.86 0 -21.29 27.57zm5.44 -19.36c-1.16,0 -2.13,-0.89 -2.13,-2.04 0,-1.08 0.97,-2.01 2.13,-2.01 1.15,0 2.12,0.93 2.12,2.01 0,1.15 -0.97,2.04 -2.12,2.04zm9.48 13.19c0,3.71 3.09,6.64 6.99,6.64 3.85,0 6.98,-2.93 6.98,-6.64 0,-3.62 -3.13,-6.67 -6.98,-6.67 -3.9,0 -6.99,3.05 -6.99,6.67zm4.86 -0.04c0,-1.08 0.97,-2 2.13,-2 1.15,0 2.12,0.92 2.12,2 0,1.16 -0.97,2.05 -2.12,2.05 -1.16,0 -2.13,-0.89 -2.13,-2.05z"/>
   </g>
   <g>
    <path class="fil6" d="M32.12 31.17c0,-1.58 1.24,-2.63 2.8,-2.63 0.72,0 1.51,0.23 2,0.77l0.1 0.1 -0.86 1.37 -0.16 -0.16c-0.25,-0.24 -0.63,-0.4 -0.98,-0.4 -0.56,0 -0.94,0.39 -0.94,0.94 0,0.58 0.42,0.98 0.99,0.98 0.41,0 0.87,-0.26 1.17,-0.52l0.18 -0.15 0.74 1.43 -0.09 0.09c-0.55,0.55 -1.39,0.83 -2.15,0.83 -1.57,0 -2.8,-1.05 -2.8,-2.65zm7.24 -0.87l0.16 0 0.93 -1.65 2.15 0 -1.49 2.42 1.69 2.64 -2.24 0 -0.99 -1.72 -0.21 0 0 1.72 -1.94 0 0 -5.06 1.94 0 0 1.65zm5.3 0.38l1.28 -2.03 1.82 0 0 5.06 -1.85 0 0 -2.02 -1.28 2.02 -1.82 0 0 -5.06 1.85 0 0 2.03zm4.05 1.42c0.32,-0.61 0.41,-1.48 0.41,-2.14l0 -1.31 4.24 0 0 3.45 0.68 0 0 2.71 -1.77 0 0 -1.1 -2.39 0 0 1.1 -1.83 0 0 -2.71 0.66 0zm7.63 -1.8l0.15 0 0.94 -1.65 2.14 0 -1.49 2.42 1.69 2.64 -2.23 0 -1 -1.72 -0.2 0 0 1.72 -1.95 0 0 -5.06 1.95 0 0 1.65zm5.85 0.12c-0.05,-0.2 -0.26,-0.24 -0.47,-0.24 -0.42,0 -0.85,0.19 -1.2,0.42l-0.17 0.11 -0.7 -1.43 0.12 -0.09c0.52,-0.41 1.43,-0.65 2.1,-0.65 1.31,0 2.28,0.73 2.28,2.1l0 3.07 -1.81 0 0 -0.3c-0.34,0.27 -0.78,0.41 -1.21,0.41 -0.95,0 -1.72,-0.65 -1.72,-1.61 0,-1.42 1.64,-1.78 2.78,-1.79zm-11.54 1.68l0.77 0 0 -1.84 -0.45 0c0,0.64 -0.07,1.26 -0.32,1.84zm11.57 -0.41c-0.26,0 -0.88,0.06 -0.88,0.37 0,0.16 0.12,0.22 0.26,0.22 0.31,0 0.59,-0.3 0.62,-0.59z"/>
    <path class="fil7" d="M32.3 31.17c0,1.3 0.94,2.47 2.62,2.47 0.78,0 1.55,-0.3 2.02,-0.78l-0.58 -1.1c-0.34,0.29 -0.83,0.56 -1.29,0.56 -0.79,0 -1.17,-0.61 -1.17,-1.16 0,-0.56 0.37,-1.13 1.12,-1.13 0.41,0 0.83,0.2 1.1,0.46l0.67 -1.06c-0.47,-0.5 -1.21,-0.71 -1.87,-0.71 -1.69,0 -2.62,1.2 -2.62,2.45zm5.3 2.36l1.58 0 0 -1.73 0.49 0 1 1.73 1.8 0 -1.57 -2.45 0 -0.01 1.37 -2.24 -1.71 0 -0.93 1.65 -0.45 0 0 -1.65 -1.58 0 0 4.7zm5.4 0l1.53 0 1.3 -2.06c0.08,-0.13 0.18,-0.28 0.26,-0.47l0.02 0c-0.02,0.18 -0.02,0.37 -0.02,0.48l0 2.05 1.49 0 0 -4.7 -1.54 0 -1.3 2.07c-0.08,0.14 -0.18,0.27 -0.26,0.47l-0.02 0c0.01,-0.12 0.02,-0.3 0.02,-0.47l0 -2.07 -1.48 0 0 4.7zm7.37 -1.25c0.33,-0.63 0.42,-1.31 0.42,-2.03l0 -0.17 0.81 0 0 2.2 -1.23 0zm-2.14 0l0 2.34 1.46 0 0 -1.09 2.76 0 0 1.09 1.4 0 0 -2.34 -0.67 0 0 -3.45 -3.88 0 0 1.13c0,0.95 -0.17,1.79 -0.48,2.32l-0.59 0zm6.34 1.25l1.58 0 0 -1.73 0.5 0 0.99 1.73 1.8 0 -1.57 -2.45 0 -0.01 1.38 -2.24 -1.72 0 -0.93 1.65 -0.45 0 0 -1.65 -1.58 0 0 4.7zm5.02 -1.32c0,0.81 0.63,1.43 1.54,1.43 0.53,0 1.08,-0.25 1.39,-0.69l0.02 0c0,0 -0.02,0.14 -0.02,0.3l0 0.28 1.44 0 0 -2.89c0,-1.2 -0.8,-1.92 -2.09,-1.92 -0.77,0 -1.59,0.3 -1.99,0.61l0.54 1.11c0.38,-0.24 0.84,-0.44 1.3,-0.44 0.35,0 0.67,0.13 0.67,0.52l0 0.08 -0.14 0c-1.16,0 -2.66,0.35 -2.66,1.61zm1.56 -0.15c0,-0.43 0.62,-0.56 1.11,-0.56l0.14 0 0 0.13c0,0.38 -0.34,0.83 -0.8,0.83 -0.29,0 -0.45,-0.18 -0.45,-0.4z"/>
   </g>
  </g>
  <g>
   <path class="fil8 str3" d="M48.11 3.98l1.08 2.18 2.42 0.36 -1.75 1.7 0.41 2.4 -2.16 -1.13 -2.16 1.13 0.42 -2.4 -1.75 -1.7 2.41 -0.36 1.08 -2.18zm1.08 86.71l0 0 2.42 -0.35 -1.75 -1.7 0.41 -2.4 -2.16 1.13 -2.16 -1.13 0.42 2.4 -1.75 1.7 2.41 0.35 1.08 2.19 1.08 -2.19zm-13.06 -82.81l0 0 -2.24 0.97 2.13 1.19 0.22 2.43 1.79 -1.66 2.38 0.54 -1.02 -2.21 1.25 -2.1 -2.42 0.29 -1.61 -1.84 -0.48 2.39zm23.96 81.09l0 0 2.24 -0.96 -2.12 -1.19 -0.23 -2.43 -1.79 1.65 -2.38 -0.53 1.02 2.21 -1.24 2.1 2.42 -0.29 1.61 1.84 0.47 -2.4zm-34.04 -76.6l0 0 -1.92 1.51 2.36 0.6 0.85 2.29 1.3 -2.07 2.44 -0.09 -1.56 -1.88 0.66 -2.35 -2.26 0.91 -2.03 -1.36 0.16 2.44zm44.13 72.12l0 0 1.91 -1.51 -2.36 -0.6 -0.84 -2.29 -1.31 2.06 -2.43 0.1 1.56 1.88 -0.67 2.34 2.27 -0.9 2.03 1.36 -0.16 -2.44zm-52.72 -65.18l0 0 -1.45 1.95 2.43 -0.03 1.41 1.99 0.73 -2.33 2.32 -0.72 -1.99 -1.41 0.03 -2.44 -1.95 1.46 -2.31 -0.78 0.78 2.31zm61.3 58.24l0 0 1.46 -1.95 -2.44 0.03 -1.41 -1.99 -0.72 2.33 -2.33 0.72 1.99 1.41 -0.03 2.44 1.95 -1.46 2.31 0.78 -0.78 -2.31zm-67.79 -49.32l0 0 -0.9 2.27 2.35 -0.66 1.87 1.55 0.1 -2.43 2.06 -1.3 -2.29 -0.85 -0.6 -2.36 -1.51 1.91 -2.43 -0.16 1.35 2.03zm74.28 40.4l0 0 0.91 -2.27 -2.35 0.66 -1.88 -1.56 -0.09 2.44 -2.06 1.3 2.28 0.85 0.6 2.36 1.51 -1.91 2.44 0.15 -1.36 -2.02zm-78.24 -30.1l0 0 -0.29 2.43 2.1 -1.25 2.21 1.02 -0.53 -2.38 1.65 -1.79 -2.43 -0.22 -1.19 -2.13 -0.96 2.24 -2.39 0.47 1.83 1.61zm82.21 19.8l0 0 0.28 -2.43 -2.09 1.25 -2.22 -1.02 0.54 2.38 -1.66 1.79 2.43 0.22 1.19 2.13 0.97 -2.24 2.39 -0.48 -1.83 -1.6zm-83.37 -8.82l0 0 0.35 2.41 1.7 -1.75 2.4 0.42 -1.13 -2.16 1.13 -2.16 -2.4 0.41 -1.7 -1.74 -0.35 2.41 -2.19 1.08 2.19 1.08zm84.53 -2.16l0 0 -0.35 -2.41 -1.71 1.74 -2.4 -0.41 1.14 2.16 -1.14 2.16 2.4 -0.41 1.71 1.74 0.35 -2.41 2.18 -1.08 -2.18 -1.08zm-82.81 13.06l0 0 0.96 2.24 1.19 -2.13 2.43 -0.22 -1.65 -1.79 0.53 -2.38 -2.21 1.02 -2.1 -1.25 0.29 2.43 -1.83 1.6 2.39 0.48zm81.09 -23.96l0 0 -0.97 -2.24 -1.19 2.13 -2.43 0.22 1.66 1.79 -0.54 2.38 2.22 -1.02 2.09 1.25 -0.28 -2.43 1.83 -1.61 -2.39 -0.47zm-76.61 34.05l0 0 1.51 1.91 0.6 -2.36 2.29 -0.85 -2.06 -1.3 -0.1 -2.44 -1.88 1.56 -2.34 -0.66 0.9 2.27 -1.35 2.03 2.43 -0.16zm72.12 -44.14l0 0 -1.51 -1.91 -0.6 2.36 -2.29 0.85 2.07 1.3 0.09 2.43 1.88 -1.55 2.35 0.66 -0.91 -2.27 1.36 -2.03 -2.44 0.16zm-65.18 52.72l0 0 1.95 1.46 -0.03 -2.44 1.99 -1.41 -2.32 -0.72 -0.73 -2.33 -1.41 1.99 -2.43 -0.03 1.45 1.95 -0.78 2.31 2.31 -0.78zm58.24 -61.3l0 0 -1.95 -1.46 0.03 2.44 -1.99 1.41 2.33 0.72 0.72 2.33 1.41 -1.99 2.44 0.03 -1.46 -1.95 0.78 -2.31 -2.31 0.78zm-49.32 67.79l0 0 2.27 0.9 -0.66 -2.34 1.56 -1.88 -2.44 -0.09 -1.3 -2.07 -0.85 2.29 -2.36 0.6 1.92 1.51 -0.16 2.44 2.02 -1.36zm40.4 -74.28l0 0 -2.27 -0.9 0.67 2.34 -1.56 1.88 2.43 0.09 1.31 2.07 0.84 -2.29 2.36 -0.6 -1.91 -1.51 0.16 -2.44 -2.03 1.36zm-30.09 78.24l0 0 2.42 0.29 -1.25 -2.1 1.02 -2.21 -2.38 0.54 -1.79 -1.66 -0.22 2.43 -2.13 1.19 2.24 0.96 0.48 2.4 1.61 -1.84zm19.79 -82.2l0 0 -2.42 -0.29 1.24 2.1 -1.02 2.21 2.38 -0.54 1.79 1.66 0.23 -2.43 2.12 -1.19 -2.24 -0.97 -0.47 -2.39 -1.61 1.84z"/>
   <path id="1" class="fil9" d="M48.11 3.98l1.08 2.18 2.42 0.36 -1.75 1.7 0.41 2.4 -2.16 -1.13 -2.16 1.13 0.42 -2.4 -1.75 -1.7 2.41 -0.36 1.08 -2.18zm1.08 86.71l0 0 2.42 -0.35 -1.75 -1.7 0.41 -2.4 -2.16 1.13 -2.16 -1.13 0.42 2.4 -1.75 1.7 2.41 0.35 1.08 2.19 1.08 -2.19zm-13.06 -82.81l0 0 -2.24 0.97 2.13 1.19 0.22 2.43 1.79 -1.66 2.38 0.54 -1.02 -2.21 1.25 -2.1 -2.42 0.29 -1.61 -1.84 -0.48 2.39zm23.96 81.09l0 0 2.24 -0.96 -2.12 -1.19 -0.23 -2.43 -1.79 1.65 -2.38 -0.53 1.02 2.21 -1.24 2.1 2.42 -0.29 1.61 1.84 0.47 -2.4zm-34.04 -76.6l0 0 -1.92 1.51 2.36 0.6 0.85 2.29 1.3 -2.07 2.44 -0.09 -1.56 -1.88 0.66 -2.35 -2.26 0.91 -2.03 -1.36 0.16 2.44zm44.13 72.12l0 0 1.91 -1.51 -2.36 -0.6 -0.84 -2.29 -1.31 2.06 -2.43 0.1 1.56 1.88 -0.67 2.34 2.27 -0.9 2.03 1.36 -0.16 -2.44zm-52.72 -65.18l0 0 -1.45 1.95 2.43 -0.03 1.41 1.99 0.73 -2.33 2.32 -0.72 -1.99 -1.41 0.03 -2.44 -1.95 1.46 -2.31 -0.78 0.78 2.31zm61.3 58.24l0 0 1.46 -1.95 -2.44 0.03 -1.41 -1.99 -0.72 2.33 -2.33 0.72 1.99 1.41 -0.03 2.44 1.95 -1.46 2.31 0.78 -0.78 -2.31zm-67.79 -49.32l0 0 -0.9 2.27 2.35 -0.66 1.87 1.55 0.1 -2.43 2.06 -1.3 -2.29 -0.85 -0.6 -2.36 -1.51 1.91 -2.43 -0.16 1.35 2.03zm74.28 40.4l0 0 0.91 -2.27 -2.35 0.66 -1.88 -1.56 -0.09 2.44 -2.06 1.3 2.28 0.85 0.6 2.36 1.51 -1.91 2.44 0.15 -1.36 -2.02zm-78.24 -30.1l0 0 -0.29 2.43 2.1 -1.25 2.21 1.02 -0.53 -2.38 1.65 -1.79 -2.43 -0.22 -1.19 -2.13 -0.96 2.24 -2.39 0.47 1.83 1.61zm82.21 19.8l0 0 0.28 -2.43 -2.09 1.25 -2.22 -1.02 0.54 2.38 -1.66 1.79 2.43 0.22 1.19 2.13 0.97 -2.24 2.39 -0.48 -1.83 -1.6zm-83.37 -8.82l0 0 0.35 2.41 1.7 -1.75 2.4 0.42 -1.13 -2.16 1.13 -2.16 -2.4 0.41 -1.7 -1.74 -0.35 2.41 -2.19 1.08 2.19 1.08zm84.53 -2.16l0 0 -0.35 -2.41 -1.71 1.74 -2.4 -0.41 1.14 2.16 -1.14 2.16 2.4 -0.41 1.71 1.74 0.35 -2.41 2.18 -1.08 -2.18 -1.08zm-82.81 13.06l0 0 0.96 2.24 1.19 -2.13 2.43 -0.22 -1.65 -1.79 0.53 -2.38 -2.21 1.02 -2.1 -1.25 0.29 2.43 -1.83 1.6 2.39 0.48zm81.09 -23.96l0 0 -0.97 -2.24 -1.19 2.13 -2.43 0.22 1.66 1.79 -0.54 2.38 2.22 -1.02 2.09 1.25 -0.28 -2.43 1.83 -1.61 -2.39 -0.47zm-76.61 34.05l0 0 1.51 1.91 0.6 -2.36 2.29 -0.85 -2.06 -1.3 -0.1 -2.44 -1.88 1.56 -2.34 -0.66 0.9 2.27 -1.35 2.03 2.43 -0.16zm72.12 -44.14l0 0 -1.51 -1.91 -0.6 2.36 -2.29 0.85 2.07 1.3 0.09 2.43 1.88 -1.55 2.35 0.66 -0.91 -2.27 1.36 -2.03 -2.44 0.16zm-65.18 52.72l0 0 1.95 1.46 -0.03 -2.44 1.99 -1.41 -2.32 -0.72 -0.73 -2.33 -1.41 1.99 -2.43 -0.03 1.45 1.95 -0.78 2.31 2.31 -0.78zm58.24 -61.3l0 0 -1.95 -1.46 0.03 2.44 -1.99 1.41 2.33 0.72 0.72 2.33 1.41 -1.99 2.44 0.03 -1.46 -1.95 0.78 -2.31 -2.31 0.78zm-49.32 67.79l0 0 2.27 0.9 -0.66 -2.34 1.56 -1.88 -2.44 -0.09 -1.3 -2.07 -0.85 2.29 -2.36 0.6 1.92 1.51 -0.16 2.44 2.02 -1.36zm40.4 -74.28l0 0 -2.27 -0.9 0.67 2.34 -1.56 1.88 2.43 0.09 1.31 2.07 0.84 -2.29 2.36 -0.6 -1.91 -1.51 0.16 -2.44 -2.03 1.36zm-30.09 78.24l0 0 2.42 0.29 -1.25 -2.1 1.02 -2.21 -2.38 0.54 -1.79 -1.66 -0.22 2.43 -2.13 1.19 2.24 0.96 0.48 2.4 1.61 -1.84zm19.79 -82.2l0 0 -2.42 -0.29 1.24 2.1 -1.02 2.21 2.38 -0.54 1.79 1.66 0.23 -2.43 2.12 -1.19 -2.24 -0.97 -0.47 -2.39 -1.61 1.84z"/>
  </g>
  <path class="fil10" d="M48.34 12.11c-19.98,0 -36.24,16.25 -36.24,36.23 0,19.98 16.26,36.24 36.24,36.24 19.98,0 36.24,-16.26 36.24,-36.24 0,-19.98 -16.26,-36.23 -36.24,-36.23zm0 71.83l0 0c-19.63,0 -35.6,-15.97 -35.6,-35.6 0,-19.63 15.97,-35.6 35.6,-35.6 19.63,0 35.6,15.97 35.6,35.6 0,19.63 -15.97,35.6 -35.6,35.6z"/>
 </g>
</svg>
