<svg width="70" height="70" viewBox="0 0 70 70" fill="none" xmlns="http://www.w3.org/2000/svg">
<path d="M68.327 13.282C67.0166 11.7995 65.1485 10.9829 63.0675 10.9829H12.7565L12.2501 7.22313C11.7044 3.17284 8.85702 0 5.76753 0H2.07081C0.927011 0 0 0.918045 0 2.05078C0 3.18352 0.927011 4.10156 2.07081 4.10156H5.76753C6.43191 4.10156 7.83888 5.49278 8.14464 7.7652L14.0723 51.794C14.3333 53.7347 15.3402 55.5516 16.9073 56.9102C18.0694 57.918 19.443 58.5883 20.8817 58.8686C20.2955 59.9362 19.9623 61.1592 19.9623 62.4575C19.9623 66.6167 23.3791 70 27.5784 70C31.7778 70 35.1946 66.6167 35.1946 62.4575C35.1946 61.2185 34.8894 60.0494 34.3522 59.0171H45.2035C44.6664 60.0494 44.3612 61.2185 44.3612 62.4575C44.3612 66.6167 47.778 70 51.9773 70C56.1766 70 59.5935 66.6167 59.5935 62.4575C59.5935 61.2185 59.2882 60.0494 58.7511 59.0171H64.1767C65.32 59.0171 66.2476 58.0985 66.2476 56.9663C66.2476 55.8336 65.32 54.9155 64.1767 54.9155H22.403C20.3797 54.9155 18.4448 53.2375 18.1773 51.2514L17.7442 48.0337H33.8615C33.862 48.0337 33.8626 48.0342 33.8631 48.0342C33.8637 48.0342 33.8642 48.0337 33.8653 48.0337H47.1691C47.1697 48.0337 47.1702 48.0342 47.1713 48.0342C47.1708 48.0342 47.1718 48.0342 47.1713 48.0342L58.6314 48.0337C60.6084 48.0337 62.56 47.2855 64.1271 45.9274C65.6943 44.5687 66.7011 42.7513 66.9621 40.8105L69.9324 18.7486C70.2074 16.7059 69.6374 14.7646 68.327 13.282ZM31.053 62.4575C31.053 64.355 29.4945 65.8984 27.5784 65.8984C25.6629 65.8984 24.1039 64.355 24.1039 62.4575C24.1039 60.5605 25.6629 59.0171 27.5784 59.0171C29.4945 59.0171 31.053 60.5605 31.053 62.4575ZM55.4518 62.4575C55.4518 64.355 53.8933 65.8984 51.9773 65.8984C50.0613 65.8984 48.5028 64.355 48.5028 62.4575C48.5028 60.5605 50.0613 59.0171 51.9773 59.0171C53.8933 59.0171 55.4518 60.5605 55.4518 62.4575ZM65.2105 15.9838C65.7234 16.5638 65.9423 17.3526 65.8269 18.206L64.5817 27.4575H50.4916L51.3242 15.0845H63.0675C63.9373 15.0845 64.6982 15.4038 65.2105 15.9838ZM35.8023 43.9321L34.9692 31.5591H46.0647L45.2315 43.9321H35.8023ZM34.6931 27.4575L33.8604 15.0845H47.1735L46.3408 27.4575H34.6931ZM29.7096 15.0845L30.5423 27.4575H14.974L13.3082 15.0845H29.7096ZM15.5262 31.5591H30.8184L31.6516 43.9321H17.192L15.5262 31.5591ZM58.6314 43.9321H49.3823L50.2155 31.5591H64.0295L62.8571 40.2685C62.5897 42.2546 60.6542 43.9321 58.6314 43.9321Z" fill="#A4A4A4"/>
</svg>
