<svg width="46" height="46" viewBox="0 0 46 46" fill="none" xmlns="http://www.w3.org/2000/svg">
<path d="M44.9006 8.72818C44.0395 7.75394 42.8119 7.21733 41.4443 7.21733H8.38285L8.05009 4.74663C7.69145 2.08501 5.82033 0 3.79009 0H1.36082C0.609178 0 0 0.603287 0 1.34766C0 2.09203 0.609178 2.69531 1.36082 2.69531H3.79009C4.22668 2.69531 5.15126 3.60954 5.35219 5.10284L9.24753 34.036C9.41905 35.3114 10.0807 36.5053 11.1105 37.3982C11.8742 38.0604 12.7768 38.5009 13.7223 38.6851C13.3371 39.3867 13.1181 40.1903 13.1181 41.0435C13.1181 43.7767 15.3634 46 18.123 46C20.8825 46 23.1279 43.7767 23.1279 41.0435C23.1279 40.2293 22.9273 39.4611 22.5743 38.7827H29.7052C29.3522 39.4611 29.1516 40.2293 29.1516 41.0435C29.1516 43.7767 31.397 46 34.1565 46C36.9161 46 39.1614 43.7767 39.1614 41.0435C39.1614 40.2293 38.9608 39.4611 38.6079 38.7827H42.1733C42.9246 38.7827 43.5341 38.179 43.5341 37.435C43.5341 36.6906 42.9246 36.0874 42.1733 36.0874H14.722C13.3924 36.0874 12.1208 34.9847 11.9451 33.6795L11.6605 31.565H22.2518C22.2522 31.565 22.2526 31.5653 22.2529 31.5653C22.2533 31.5653 22.2536 31.565 22.2543 31.565H30.9969C30.9972 31.565 30.9976 31.5653 30.9983 31.5653C30.9979 31.5653 30.9986 31.5653 30.9983 31.5653L38.5292 31.565C39.8284 31.565 41.1109 31.0733 42.1407 30.1808C43.1705 29.288 43.8321 28.0937 44.0037 26.8184L45.9556 12.3205C46.1363 10.9781 45.7617 9.70242 44.9006 8.72818ZM20.4062 41.0435C20.4062 42.2904 19.3821 43.3047 18.123 43.3047C16.8642 43.3047 15.8397 42.2904 15.8397 41.0435C15.8397 39.7969 16.8642 38.7827 18.123 38.7827C19.3821 38.7827 20.4062 39.7969 20.4062 41.0435ZM36.4398 41.0435C36.4398 42.2904 35.4156 43.3047 34.1565 43.3047C32.8974 43.3047 31.8732 42.2904 31.8732 41.0435C31.8732 39.7969 32.8974 38.7827 34.1565 38.7827C35.4156 38.7827 36.4398 39.7969 36.4398 41.0435ZM42.8526 10.5036C43.1897 10.8848 43.3335 11.4031 43.2577 11.964L42.4394 18.0435H33.1802L33.7274 9.91264H41.4443C42.0159 9.91264 42.516 10.1225 42.8526 10.5036ZM23.5273 28.8697L22.9797 20.7388H30.2711L29.7236 28.8697H23.5273ZM22.7983 18.0435L22.2511 9.91264H30.9997L30.4525 18.0435H22.7983ZM19.5235 9.91264L20.0706 18.0435H9.84006L8.74538 9.91264H19.5235ZM10.2029 20.7388H20.2521L20.7996 28.8697H11.2976L10.2029 20.7388ZM38.5292 28.8697H32.4512L32.9988 20.7388H42.0765L41.3061 26.4621C41.1304 27.7673 39.8585 28.8697 38.5292 28.8697Z" fill="#0C5DA5"/>
</svg>
