<svg width="56" height="49" viewBox="0 0 56 49" fill="none" xmlns="http://www.w3.org/2000/svg">
<path d="M44.9006 11.7282C44.0395 10.7539 42.8119 10.2173 41.4443 10.2173H8.38285L8.05009 7.74663C7.69145 5.08501 5.82033 3 3.79009 3H1.36082C0.609178 3 0 3.60329 0 4.34766C0 5.09203 0.609178 5.69531 1.36082 5.69531H3.79009C4.22668 5.69531 5.15126 6.60954 5.35219 8.10284L9.24753 37.036C9.41905 38.3114 10.0807 39.5053 11.1105 40.3982C11.8742 41.0604 12.7768 41.5009 13.7223 41.6851C13.3371 42.3867 13.1181 43.1903 13.1181 44.0435C13.1181 46.7767 15.3634 49 18.123 49C20.8825 49 23.1279 46.7767 23.1279 44.0435C23.1279 43.2293 22.9273 42.4611 22.5743 41.7827H29.7052C29.3522 42.4611 29.1516 43.2293 29.1516 44.0435C29.1516 46.7767 31.397 49 34.1565 49C36.9161 49 39.1614 46.7767 39.1614 44.0435C39.1614 43.2293 38.9608 42.4611 38.6079 41.7827H42.1733C42.9246 41.7827 43.5341 41.179 43.5341 40.435C43.5341 39.6906 42.9246 39.0874 42.1733 39.0874H14.722C13.3924 39.0874 12.1208 37.9847 11.9451 36.6795L11.6605 34.565H22.2518C22.2522 34.565 22.2526 34.5653 22.2529 34.5653C22.2533 34.5653 22.2536 34.565 22.2543 34.565H30.9969C30.9972 34.565 30.9976 34.5653 30.9983 34.5653C30.9979 34.5653 30.9986 34.5653 30.9983 34.5653L38.5292 34.565C39.8284 34.565 41.1109 34.0733 42.1407 33.1808C43.1705 32.288 43.8321 31.0937 44.0037 29.8184L45.9556 15.3205C46.1363 13.9781 45.7617 12.7024 44.9006 11.7282ZM20.4062 44.0435C20.4062 45.2904 19.3821 46.3047 18.123 46.3047C16.8642 46.3047 15.8397 45.2904 15.8397 44.0435C15.8397 42.7969 16.8642 41.7827 18.123 41.7827C19.3821 41.7827 20.4062 42.7969 20.4062 44.0435ZM36.4398 44.0435C36.4398 45.2904 35.4156 46.3047 34.1565 46.3047C32.8974 46.3047 31.8732 45.2904 31.8732 44.0435C31.8732 42.7969 32.8974 41.7827 34.1565 41.7827C35.4156 41.7827 36.4398 42.7969 36.4398 44.0435ZM42.8526 13.5036C43.1897 13.8848 43.3335 14.4031 43.2577 14.964L42.4394 21.0435H33.1802L33.7274 12.9126H41.4443C42.0159 12.9126 42.516 13.1225 42.8526 13.5036ZM23.5273 31.8697L22.9797 23.7388H30.2711L29.7236 31.8697H23.5273ZM22.7983 21.0435L22.2511 12.9126H30.9997L30.4525 21.0435H22.7983ZM19.5235 12.9126L20.0706 21.0435H9.84006L8.74538 12.9126H19.5235ZM10.2029 23.7388H20.2521L20.7996 31.8697H11.2976L10.2029 23.7388ZM38.5292 31.8697H32.4512L32.9988 23.7388H42.0765L41.3061 29.4621C41.1304 30.7673 39.8585 31.8697 38.5292 31.8697Z" fill="#0C5DA5"/>
<circle cx="45.5" cy="10.5" r="10.5" fill="#E24545"/>
</svg>
