<svg xmlns="http://www.w3.org/2000/svg" viewBox="0 0 803.43 73.93"><defs><style>.cls-1{fill:#fff;}.cls-2{fill:#ff9600;stroke:#ff9600;stroke-miterlimit:10;stroke-width:6px;}</style></defs><title>Ресурс 2</title><g id="Слой_2" data-name="Слой 2"><g id="LOGO_white"><path class="cls-1" d="M29.07,0A36.39,36.39,0,0,1,41.18,1.85a29.93,29.93,0,0,1,8.73,4.62,19.91,19.91,0,0,1,5.29,6.11,15.85,15.85,0,0,1,2,6.31,2.27,2.27,0,0,1-.77,2,2.9,2.9,0,0,1-2,.77H47.24A4.32,4.32,0,0,1,44.62,21,7.06,7.06,0,0,1,43,19.2a13.42,13.42,0,0,0-4.67-4.47c-2.09-1.26-5.19-1.9-9.29-1.9A22,22,0,0,0,24,13.4,14.56,14.56,0,0,0,19.78,15,8.74,8.74,0,0,0,17,17.66a6.19,6.19,0,0,0-1,3.49,6.89,6.89,0,0,0,1,3.85,7.71,7.71,0,0,0,3.29,2.57,33.61,33.61,0,0,0,6.11,2c2.53.62,5.68,1.33,9.44,2.16a66.2,66.2,0,0,1,10.63,3.13,24.79,24.79,0,0,1,7.29,4.31A16.22,16.22,0,0,1,57.87,45a19.22,19.22,0,0,1,1.38,7.5,18.28,18.28,0,0,1-2,8.57,19.79,19.79,0,0,1-5.85,6.78A29.65,29.65,0,0,1,42,72.28a43.42,43.42,0,0,1-12.42,1.65,42.91,42.91,0,0,1-11-1.39,32,32,0,0,1-9.3-4,22.22,22.22,0,0,1-6.52-6.31A16.63,16.63,0,0,1,0,54a2.3,2.3,0,0,1,.77-2,3,3,0,0,1,2-.77H10a4.84,4.84,0,0,1,2.67.62,4.62,4.62,0,0,1,1.54,1.85,19.36,19.36,0,0,0,1.75,2.67,9.31,9.31,0,0,0,2.77,2.36,16.81,16.81,0,0,0,4.36,1.69,26.67,26.67,0,0,0,6.52.67,37.38,37.38,0,0,0,6-.46,17.48,17.48,0,0,0,5-1.54,10.86,10.86,0,0,0,3.49-2.67,5.94,5.94,0,0,0,1.33-4A5,5,0,0,0,44,48.77a11.49,11.49,0,0,0-4.37-2.46,60,60,0,0,0-7.24-2q-4.3-.91-10-2.36a53.23,53.23,0,0,1-9-2.92A21.25,21.25,0,0,1,7,34.91a15.63,15.63,0,0,1-3.74-5.8,22.83,22.83,0,0,1-1.24-8,18,18,0,0,1,2.06-8.52A20.27,20.27,0,0,1,9.76,6a27.73,27.73,0,0,1,8.58-4.37A35.06,35.06,0,0,1,29.07,0Z"/><path class="cls-1" d="M103.71,1a3.24,3.24,0,0,1,2.47.87,7.46,7.46,0,0,1,1.43,2.62l25.16,64.89a2.2,2.2,0,0,1,.1.72,2.8,2.8,0,0,1-2.77,2.77h-7.39a3.87,3.87,0,0,1-2.88-.87,5.34,5.34,0,0,1-1.13-1.7l-4.41-11.4H81.84l-4.41,11.4A5.34,5.34,0,0,1,76.3,72a3.87,3.87,0,0,1-2.88.87H66a2.8,2.8,0,0,1-2.77-2.77,2.2,2.2,0,0,1,.1-.72L88.52,4.52A7.46,7.46,0,0,1,90,1.9,3.24,3.24,0,0,1,92.42,1Zm5.65,45.07L98.06,16.84,86.77,46.1Z"/><path class="cls-1" d="M188.83,72.9a3.58,3.58,0,0,1-2.67-.93c-.62-.61-1.06-1.09-1.34-1.43L156.08,27.82V70.13a2.82,2.82,0,0,1-2.78,2.77H145a2.63,2.63,0,0,1-2-.82,2.67,2.67,0,0,1-.83-2V3.8A2.67,2.67,0,0,1,143,1.85,2.63,2.63,0,0,1,145,1h7.18a3.58,3.58,0,0,1,2.67.92c.62.62,1.06,1.1,1.34,1.44L184.93,46.1V3.8a2.66,2.66,0,0,1,.82-1.95A2.63,2.63,0,0,1,187.7,1H196a2.67,2.67,0,0,1,2,.82,2.7,2.7,0,0,1,.82,1.95V70.13a2.7,2.7,0,0,1-.82,2,2.67,2.67,0,0,1-2,.82Z"/><path class="cls-1" d="M248.48,37.68,268,3.8c.27-.34.73-.89,1.38-1.64a3.77,3.77,0,0,1,3-1.13h7a2.66,2.66,0,0,1,1.95.82,2.7,2.7,0,0,1,.82,1.95V70.13a2.7,2.7,0,0,1-.82,2,2.66,2.66,0,0,1-1.95.82h-8.32a2.63,2.63,0,0,1-1.95-.82,2.66,2.66,0,0,1-.82-2V30L255,53.08a8.51,8.51,0,0,1-1.44,1.7,3.29,3.29,0,0,1-2.36.87h-5.34a3.31,3.31,0,0,1-2.36-.87,8.51,8.51,0,0,1-1.44-1.7L228.66,30V70.13a2.8,2.8,0,0,1-2.77,2.77h-8.31a2.67,2.67,0,0,1-2-.82,2.7,2.7,0,0,1-.82-2V3.8a2.7,2.7,0,0,1,.82-1.95,2.67,2.67,0,0,1,2-.82h7a3.78,3.78,0,0,1,3,1.13c.65.75,1.11,1.3,1.38,1.64Z"/><path class="cls-1" d="M332,1a3.24,3.24,0,0,1,2.47.87,7.46,7.46,0,0,1,1.44,2.62L361,69.41a2.2,2.2,0,0,1,.1.72,2.8,2.8,0,0,1-2.77,2.77H351a3.87,3.87,0,0,1-2.88-.87,5.34,5.34,0,0,1-1.13-1.7l-4.41-11.4H310.08l-4.41,11.4a5.34,5.34,0,0,1-1.13,1.7,3.87,3.87,0,0,1-2.88.87h-7.39a2.8,2.8,0,0,1-2.77-2.77,2.2,2.2,0,0,1,.1-.72L316.76,4.52A7.31,7.31,0,0,1,318.2,1.9,3.21,3.21,0,0,1,320.66,1ZM337.6,46.1,326.31,16.84,315,46.1Z"/><path class="cls-1" d="M399.72,1q12.82,0,19.51,6t6.67,16.53a22.93,22.93,0,0,1-3.44,12.78,20.28,20.28,0,0,1-10.11,7.86l14.17,25.36a2.62,2.62,0,0,1,.3,1.13,2.27,2.27,0,0,1-2.25,2.26h-8.73a4.13,4.13,0,0,1-3-1,7.58,7.58,0,0,1-1.39-1.79L398,46.2H384.32V70.13a2.7,2.7,0,0,1-.82,2,2.67,2.67,0,0,1-2,.82h-8.31a2.63,2.63,0,0,1-2-.82,2.66,2.66,0,0,1-.82-2V3.8a2.66,2.66,0,0,1,.82-1.95,2.63,2.63,0,0,1,2-.82Zm-15.4,32.34H399.2c3.91,0,7-.68,9.35-2s3.49-4,3.49-7.81-1.17-6.4-3.49-7.7a19.17,19.17,0,0,0-9.35-2H384.32Z"/><path class="cls-1" d="M493.77,68.59a2.17,2.17,0,0,1,.61.92,2.79,2.79,0,0,1,.11.62,2.67,2.67,0,0,1-.83,2,2.63,2.63,0,0,1-2,.82H482a4.83,4.83,0,0,1-3.29-1.08c-.82-.72-1.3-1.15-1.43-1.28L453.11,43.33v26.8a2.7,2.7,0,0,1-.82,2,2.66,2.66,0,0,1-2,.82H442a2.8,2.8,0,0,1-2.77-2.77V3.8a2.66,2.66,0,0,1,.82-1.95A2.66,2.66,0,0,1,442,1h8.32a2.66,2.66,0,0,1,2,.82,2.7,2.7,0,0,1,.82,1.95V27.93L475.49,3.29a8.65,8.65,0,0,1,1.95-1.65A5.17,5.17,0,0,1,480.11,1h9.45a2.66,2.66,0,0,1,1.95.82,2.66,2.66,0,0,1,.82,1.95,2.33,2.33,0,0,1-.62,1.54L464.09,35.42Z"/><path class="cls-1" d="M652.4,1a2.66,2.66,0,0,1,2,.82,2.66,2.66,0,0,1,.82,1.95v7.29a2.8,2.8,0,0,1-2.77,2.77H633.92V70.13a2.7,2.7,0,0,1-.82,2,2.66,2.66,0,0,1-2,.82h-8.32a2.8,2.8,0,0,1-2.77-2.77V13.86H601.58a2.67,2.67,0,0,1-2-.82,2.7,2.7,0,0,1-.82-1.95V3.8a2.7,2.7,0,0,1,.82-1.95,2.67,2.67,0,0,1,2-.82Z"/><path class="cls-1" d="M669.24,57.29a2.7,2.7,0,0,1,2,.82,2.66,2.66,0,0,1,.82,2V70.13a2.8,2.8,0,0,1-2.77,2.77h-9.55a2.63,2.63,0,0,1-2-.82,2.66,2.66,0,0,1-.82-2V60.06a2.8,2.8,0,0,1,2.77-2.77Z"/><path class="cls-1" d="M740.39,68.59a2.21,2.21,0,0,1,.62.92,3.33,3.33,0,0,1,.1.62,2.7,2.7,0,0,1-.82,2,2.66,2.66,0,0,1-1.95.82h-9.76a4.79,4.79,0,0,1-3.28-1.08c-.83-.72-1.31-1.15-1.44-1.28L699.73,43.33v26.8A2.8,2.8,0,0,1,697,72.9h-8.32a2.8,2.8,0,0,1-2.77-2.77V3.8a2.66,2.66,0,0,1,.82-1.95A2.66,2.66,0,0,1,688.64,1H697a2.66,2.66,0,0,1,1.95.82,2.66,2.66,0,0,1,.82,1.95V27.93L722.11,3.29a8.65,8.65,0,0,1,1.95-1.65A5.17,5.17,0,0,1,726.73,1h9.45a2.66,2.66,0,0,1,2,.82A2.66,2.66,0,0,1,739,3.8a2.32,2.32,0,0,1-.61,1.54L710.72,35.42Z"/><path class="cls-1" d="M800.66,60.06a2.67,2.67,0,0,1,2,.83,2.63,2.63,0,0,1,.82,2v7.29a2.8,2.8,0,0,1-2.77,2.77H749.22a2.63,2.63,0,0,1-2-.82,2.66,2.66,0,0,1-.82-2V62.84a3.92,3.92,0,0,1,.56-2.26c.38-.55.7-1,1-1.34l36.44-45.38H750.24a2.8,2.8,0,0,1-2.77-2.77V3.8a2.66,2.66,0,0,1,.82-1.95,2.66,2.66,0,0,1,2-.82h49.39a2.66,2.66,0,0,1,2,.82,2.66,2.66,0,0,1,.82,1.95v7.29a4.59,4.59,0,0,1-1.33,3.39L764.52,60.06Z"/><path class="cls-2" d="M518.84,22.2h.26a21.94,21.94,0,0,0,15.64-6.9,16.57,16.57,0,0,1,24.44-.17A21.06,21.06,0,0,0,574.62,22h.1a21.12,21.12,0,0,0,15.5-7c1-1.11-2.59-5.24-3.61-4.13a16.07,16.07,0,0,1-23.86.12,21.29,21.29,0,0,0-31.55.13A17,17,0,0,1,519,16.44a15.86,15.86,0,0,1-12-5.17c-1-1.11-4.63,3-3.61,4.13A20.74,20.74,0,0,0,518.84,22.2Z"/><path class="cls-2" d="M586.61,34.81a16,16,0,0,1-24,0,20.89,20.89,0,0,0-31.2,0c-6.72,7.29-17.88,7.48-24.38.44-1-1.11-4.63,3-3.61,4.12a20.73,20.73,0,0,0,15.39,6.81h.46a22,22,0,0,0,15.75-7.23,16,16,0,0,1,24,0,20.89,20.89,0,0,0,31.2,0C591.25,37.83,587.63,33.7,586.61,34.81Z"/><path class="cls-2" d="M586.61,58.76a16,16,0,0,1-24,0,20.89,20.89,0,0,0-31.2,0c-6.72,7.29-17.88,7.49-24.38.44-1-1.11-4.63,3-3.61,4.12a20.73,20.73,0,0,0,15.39,6.81h.46a22,22,0,0,0,15.75-7.23,16,16,0,0,1,24,0,20.89,20.89,0,0,0,31.2,0C591.25,61.78,587.63,57.65,586.61,58.76Z"/></g></g></svg>