<svg xmlns="http://www.w3.org/2000/svg" viewBox="0 0 803.43 148.02"><defs><style>.cls-1{fill:#0c5da5;}.cls-2{fill:#ff9600;stroke:#ff9600;stroke-miterlimit:10;stroke-width:6px;}</style></defs><title>Ресурс 3</title><g id="Слой_2" data-name="Слой 2"><g id="LOGO_full_blue"><g id="Слой_9" data-name="Слой 9"><path class="cls-1" d="M29.07,0A36.39,36.39,0,0,1,41.18,1.85a29.93,29.93,0,0,1,8.73,4.62,19.91,19.91,0,0,1,5.29,6.11,15.85,15.85,0,0,1,2,6.31,2.27,2.27,0,0,1-.77,2,2.9,2.9,0,0,1-2,.77H47.24A4.32,4.32,0,0,1,44.62,21,7.06,7.06,0,0,1,43,19.2a13.42,13.42,0,0,0-4.67-4.47c-2.09-1.26-5.19-1.9-9.29-1.9A22,22,0,0,0,24,13.4,14.56,14.56,0,0,0,19.78,15,8.74,8.74,0,0,0,17,17.66a6.19,6.19,0,0,0-1,3.49,6.89,6.89,0,0,0,1,3.85,7.71,7.71,0,0,0,3.29,2.57,33.61,33.61,0,0,0,6.11,2c2.53.62,5.68,1.33,9.44,2.16a66.2,66.2,0,0,1,10.63,3.13,24.79,24.79,0,0,1,7.29,4.31A16.22,16.22,0,0,1,57.87,45a19.22,19.22,0,0,1,1.38,7.5,18.28,18.28,0,0,1-2,8.57,19.88,19.88,0,0,1-5.85,6.78A29.65,29.65,0,0,1,42,72.28a43.44,43.44,0,0,1-12.42,1.64,42.9,42.9,0,0,1-11-1.38,32,32,0,0,1-9.3-4,22.22,22.22,0,0,1-6.52-6.31A16.63,16.63,0,0,1,0,54a2.29,2.29,0,0,1,.77-2,3,3,0,0,1,2-.77H10a4.84,4.84,0,0,1,2.67.62,4.62,4.62,0,0,1,1.54,1.85,19.36,19.36,0,0,0,1.75,2.67,9.31,9.31,0,0,0,2.77,2.36,16.81,16.81,0,0,0,4.36,1.69,26.67,26.67,0,0,0,6.52.67,37.38,37.38,0,0,0,6-.46,17.48,17.48,0,0,0,5-1.54,10.86,10.86,0,0,0,3.49-2.67,5.94,5.94,0,0,0,1.33-4A5,5,0,0,0,44,48.77a11.49,11.49,0,0,0-4.37-2.46,60,60,0,0,0-7.24-2q-4.3-.91-10-2.36a53.23,53.23,0,0,1-9-2.92A21.25,21.25,0,0,1,7,34.91a15.63,15.63,0,0,1-3.74-5.8,22.83,22.83,0,0,1-1.24-8,18,18,0,0,1,2.06-8.52A20.27,20.27,0,0,1,9.76,6a27.73,27.73,0,0,1,8.58-4.37A35.06,35.06,0,0,1,29.07,0Z"/><path class="cls-1" d="M103.71,1a3.24,3.24,0,0,1,2.47.87,7.46,7.46,0,0,1,1.43,2.62l25.16,64.89a2.2,2.2,0,0,1,.1.72,2.8,2.8,0,0,1-2.77,2.77h-7.39a3.87,3.87,0,0,1-2.88-.87,5.34,5.34,0,0,1-1.13-1.7l-4.41-11.4H81.84l-4.41,11.4A5.34,5.34,0,0,1,76.3,72a3.87,3.87,0,0,1-2.88.87H66a2.8,2.8,0,0,1-2.77-2.77,2.2,2.2,0,0,1,.1-.72L88.52,4.52A7.46,7.46,0,0,1,90,1.9,3.24,3.24,0,0,1,92.42,1Zm5.65,45.07L98.06,16.84,86.77,46.1Z"/><path class="cls-1" d="M188.83,72.9a3.58,3.58,0,0,1-2.67-.93c-.62-.61-1.06-1.09-1.34-1.43L156.08,27.82V70.13a2.82,2.82,0,0,1-2.78,2.77H145a2.63,2.63,0,0,1-2-.82,2.67,2.67,0,0,1-.83-2V3.8A2.67,2.67,0,0,1,143,1.85,2.63,2.63,0,0,1,145,1h7.18a3.58,3.58,0,0,1,2.67.92c.62.62,1.06,1.1,1.34,1.44L184.93,46.1V3.8a2.66,2.66,0,0,1,.82-1.95A2.63,2.63,0,0,1,187.7,1H196a2.67,2.67,0,0,1,2,.82,2.7,2.7,0,0,1,.82,1.95V70.13a2.7,2.7,0,0,1-.82,2,2.67,2.67,0,0,1-2,.82Z"/><path class="cls-1" d="M248.48,37.68,268,3.8c.27-.34.73-.89,1.38-1.64a3.77,3.77,0,0,1,3-1.13h7a2.66,2.66,0,0,1,1.95.82,2.7,2.7,0,0,1,.82,1.95V70.13a2.7,2.7,0,0,1-.82,2,2.66,2.66,0,0,1-1.95.82h-8.32a2.63,2.63,0,0,1-1.95-.82,2.66,2.66,0,0,1-.82-2V30L255,53.08a8.51,8.51,0,0,1-1.44,1.7,3.29,3.29,0,0,1-2.36.87h-5.34a3.31,3.31,0,0,1-2.36-.87,8.51,8.51,0,0,1-1.44-1.7L228.66,30V70.13a2.8,2.8,0,0,1-2.77,2.77h-8.31a2.67,2.67,0,0,1-2-.82,2.7,2.7,0,0,1-.82-2V3.8a2.7,2.7,0,0,1,.82-1.95,2.67,2.67,0,0,1,2-.82h7a3.78,3.78,0,0,1,3,1.13c.65.75,1.11,1.3,1.38,1.64Z"/><path class="cls-1" d="M332,1a3.24,3.24,0,0,1,2.47.87,7.46,7.46,0,0,1,1.44,2.62L361,69.41a2.2,2.2,0,0,1,.1.72,2.8,2.8,0,0,1-2.77,2.77H351a3.87,3.87,0,0,1-2.88-.87,5.34,5.34,0,0,1-1.13-1.7l-4.41-11.4H310.08l-4.41,11.4a5.34,5.34,0,0,1-1.13,1.7,3.87,3.87,0,0,1-2.88.87h-7.39a2.8,2.8,0,0,1-2.77-2.77,2.2,2.2,0,0,1,.1-.72L316.76,4.52A7.31,7.31,0,0,1,318.2,1.9,3.21,3.21,0,0,1,320.66,1ZM337.6,46.1,326.31,16.84,315,46.1Z"/><path class="cls-1" d="M399.72,1q12.82,0,19.51,6t6.67,16.53a22.93,22.93,0,0,1-3.44,12.78,20.28,20.28,0,0,1-10.11,7.86l14.17,25.36a2.62,2.62,0,0,1,.3,1.13,2.27,2.27,0,0,1-2.25,2.26h-8.73a4.13,4.13,0,0,1-3-1,7.58,7.58,0,0,1-1.39-1.79L398,46.2H384.32V70.13a2.7,2.7,0,0,1-.82,2,2.67,2.67,0,0,1-2,.82h-8.31a2.63,2.63,0,0,1-2-.82,2.66,2.66,0,0,1-.82-2V3.8a2.66,2.66,0,0,1,.82-1.95,2.63,2.63,0,0,1,2-.82Zm-15.4,32.34H399.2c3.91,0,7-.68,9.35-2s3.49-4,3.49-7.81-1.17-6.4-3.49-7.7a19.17,19.17,0,0,0-9.35-2H384.32Z"/><path class="cls-1" d="M493.77,68.59a2.17,2.17,0,0,1,.61.92,2.79,2.79,0,0,1,.11.62,2.67,2.67,0,0,1-.83,2,2.63,2.63,0,0,1-2,.82H482a4.83,4.83,0,0,1-3.29-1.08c-.82-.72-1.3-1.15-1.43-1.28L453.11,43.33v26.8a2.7,2.7,0,0,1-.82,2,2.66,2.66,0,0,1-2,.82H442a2.8,2.8,0,0,1-2.77-2.77V3.8a2.66,2.66,0,0,1,.82-1.95A2.66,2.66,0,0,1,442,1h8.32a2.66,2.66,0,0,1,2,.82,2.7,2.7,0,0,1,.82,1.95V27.93L475.49,3.29a8.65,8.65,0,0,1,1.95-1.65A5.17,5.17,0,0,1,480.11,1h9.45a2.66,2.66,0,0,1,1.95.82,2.66,2.66,0,0,1,.82,1.95,2.33,2.33,0,0,1-.62,1.54L464.09,35.42Z"/><path class="cls-1" d="M652.4,1a2.66,2.66,0,0,1,2,.82,2.66,2.66,0,0,1,.82,1.95v7.29a2.8,2.8,0,0,1-2.77,2.77H633.92V70.13a2.7,2.7,0,0,1-.82,2,2.66,2.66,0,0,1-2,.82h-8.32a2.8,2.8,0,0,1-2.77-2.77V13.86H601.58a2.67,2.67,0,0,1-2-.82,2.7,2.7,0,0,1-.82-1.95V3.8a2.7,2.7,0,0,1,.82-1.95,2.67,2.67,0,0,1,2-.82Z"/><path class="cls-1" d="M669.24,57.29a2.7,2.7,0,0,1,2,.82,2.66,2.66,0,0,1,.82,2V70.13a2.8,2.8,0,0,1-2.77,2.77h-9.55a2.63,2.63,0,0,1-2-.82,2.66,2.66,0,0,1-.82-2V60.06a2.8,2.8,0,0,1,2.77-2.77Z"/><path class="cls-1" d="M740.39,68.59a2.21,2.21,0,0,1,.62.92,3.33,3.33,0,0,1,.1.62,2.7,2.7,0,0,1-.82,2,2.66,2.66,0,0,1-1.95.82h-9.76a4.79,4.79,0,0,1-3.28-1.08c-.83-.72-1.31-1.15-1.44-1.28L699.73,43.33v26.8A2.8,2.8,0,0,1,697,72.9h-8.32a2.8,2.8,0,0,1-2.77-2.77V3.8a2.66,2.66,0,0,1,.82-1.95A2.66,2.66,0,0,1,688.64,1H697a2.66,2.66,0,0,1,1.95.82,2.66,2.66,0,0,1,.82,1.95V27.93L722.11,3.29a8.65,8.65,0,0,1,1.95-1.65A5.17,5.17,0,0,1,726.73,1h9.45a2.66,2.66,0,0,1,2,.82A2.66,2.66,0,0,1,739,3.8a2.32,2.32,0,0,1-.61,1.54L710.72,35.42Z"/><path class="cls-1" d="M800.66,60.06a2.67,2.67,0,0,1,2,.83,2.63,2.63,0,0,1,.82,2v7.29a2.8,2.8,0,0,1-2.77,2.77H749.22a2.63,2.63,0,0,1-2-.82,2.66,2.66,0,0,1-.82-2V62.84a3.92,3.92,0,0,1,.56-2.26c.38-.55.7-1,1-1.34l36.44-45.38H750.24a2.8,2.8,0,0,1-2.77-2.77V3.8a2.66,2.66,0,0,1,.82-1.95,2.66,2.66,0,0,1,2-.82h49.39a2.66,2.66,0,0,1,2,.82,2.66,2.66,0,0,1,.82,1.95v7.29a4.59,4.59,0,0,1-1.33,3.39L764.52,60.06Z"/><path class="cls-1" d="M87.05,139.12a1.16,1.16,0,0,1-.36-.85V123.2L73.6,139a1.15,1.15,0,0,1-1,.49H71.08a1.1,1.1,0,0,1-.83-.36,1.22,1.22,0,0,1-.34-.85v-21a1.16,1.16,0,0,1,.36-.85,1.18,1.18,0,0,1,.86-.36h1.66a1.18,1.18,0,0,1,.86.36,1.16,1.16,0,0,1,.36.85v15.2l13.08-15.92a1.8,1.8,0,0,1,.43-.38,1.21,1.21,0,0,1,.56-.11h1.48a1.18,1.18,0,0,1,.86.36,1.16,1.16,0,0,1,.36.85v21a1.16,1.16,0,0,1-.36.85,1.18,1.18,0,0,1-.86.36H87.9A1.14,1.14,0,0,1,87.05,139.12Z"/><path class="cls-1" d="M118,116.46a1.16,1.16,0,0,1,.36.85v21a1.23,1.23,0,0,1-1.21,1.21h-1.66a1.18,1.18,0,0,1-.86-.36,1.16,1.16,0,0,1-.36-.85V129.5H101.61v8.77a1.23,1.23,0,0,1-1.21,1.21H98.74a1.2,1.2,0,0,1-.86-.34,1.12,1.12,0,0,1-.36-.87v-21a1.16,1.16,0,0,1,.36-.85,1.18,1.18,0,0,1,.86-.36h1.66a1.23,1.23,0,0,1,1.21,1.21v8.32h12.68v-8.32a1.16,1.16,0,0,1,.36-.85,1.18,1.18,0,0,1,.86-.36h1.66A1.16,1.16,0,0,1,118,116.46Z"/><path class="cls-1" d="M143.61,116.46a1.16,1.16,0,0,1,.36.85v1.44a1.23,1.23,0,0,1-1.22,1.22H135v18.3a1.21,1.21,0,0,1-1.21,1.21H132.1a1.18,1.18,0,0,1-.86-.36,1.16,1.16,0,0,1-.36-.85V120H123.1a1.16,1.16,0,0,1-.85-.36,1.18,1.18,0,0,1-.36-.86v-1.44a1.23,1.23,0,0,1,1.21-1.21h19.65A1.18,1.18,0,0,1,143.61,116.46Z"/><path class="cls-1" d="M164.83,118.71q2.79,3.06,2.79,8.32v1.21a1.16,1.16,0,0,1-.36.85,1.18,1.18,0,0,1-.86.36H150.94v.27a6.48,6.48,0,0,0,1.82,4.66,6.14,6.14,0,0,0,4.47,1.68,8.4,8.4,0,0,0,3.49-.58,7.34,7.34,0,0,0,2.22-1.66,2.52,2.52,0,0,1,.65-.5,1.94,1.94,0,0,1,.79-.13h1.35a1.25,1.25,0,0,1,.9.35,1,1,0,0,1,.31.86,4.91,4.91,0,0,1-1.32,2.49,8.72,8.72,0,0,1-3.29,2.16,13.27,13.27,0,0,1-5.1.88,9.8,9.8,0,0,1-5.12-1.33,9.68,9.68,0,0,1-3.58-3.66,13,13,0,0,1-1.6-5.26q-.09-1.35-.09-2.07t.09-2.07a12.11,12.11,0,0,1,1.6-5,9.85,9.85,0,0,1,3.55-3.56,10,10,0,0,1,5.15-1.3A9.77,9.77,0,0,1,164.83,118.71Zm-1.26,7v-.14a5.75,5.75,0,0,0-1.73-4.38,6.41,6.41,0,0,0-4.61-1.64,6.33,6.33,0,0,0-4.43,1.66,5.77,5.77,0,0,0-1.86,4.36v.14Z"/><path class="cls-1" d="M177.15,146.81a1.16,1.16,0,0,1-.36.85,1.18,1.18,0,0,1-.86.36h-1.66a1.23,1.23,0,0,1-1.21-1.21v-29.5a1.23,1.23,0,0,1,1.21-1.21h1.66a1.18,1.18,0,0,1,.86.36,1.16,1.16,0,0,1,.36.85v1.4q2.29-3.06,7-3.06a10,10,0,0,1,5.06,1.3,9.77,9.77,0,0,1,3.64,3.74,12.4,12.4,0,0,1,1.5,5.66c0,.3.05.78.05,1.44s0,1.18-.05,1.48a12.35,12.35,0,0,1-1.5,5.65,9.65,9.65,0,0,1-8.7,5,9.25,9.25,0,0,1-4.25-.88,7.6,7.6,0,0,1-2.72-2.18Zm1.89-12.5a6.25,6.25,0,0,0,4.63,1.75,6,6,0,0,0,4.65-1.89,8,8,0,0,0,1.91-5.12c0-.3.05-.72.05-1.26s0-1-.05-1.26a8,8,0,0,0-1.91-5.12,6,6,0,0,0-4.65-1.89,6.33,6.33,0,0,0-4.59,1.73,6.54,6.54,0,0,0-1.93,4.61l-.05,1.75.05,1.8A7.07,7.07,0,0,0,179,134.31Z"/><path class="cls-1" d="M220.45,116.46a1.16,1.16,0,0,1,.36.85v21a1.16,1.16,0,0,1-.36.85,1.18,1.18,0,0,1-.86.36h-1.66a1.18,1.18,0,0,1-.86-.36,1.16,1.16,0,0,1-.36-.85V129.5H204v8.77a1.16,1.16,0,0,1-.36.85,1.18,1.18,0,0,1-.86.36h-1.66a1.2,1.2,0,0,1-.86-.34,1.12,1.12,0,0,1-.36-.87v-21a1.16,1.16,0,0,1,.36-.85,1.18,1.18,0,0,1,.86-.36h1.66a1.18,1.18,0,0,1,.86.36,1.16,1.16,0,0,1,.36.85v8.32h12.67v-8.32a1.16,1.16,0,0,1,.36-.85,1.18,1.18,0,0,1,.86-.36h1.66A1.18,1.18,0,0,1,220.45,116.46Z"/><path class="cls-1" d="M244,118.71a11.92,11.92,0,0,1,2.78,8.32v1.21a1.23,1.23,0,0,1-1.21,1.21H230.11v.27a6.53,6.53,0,0,0,1.82,4.66,6.18,6.18,0,0,0,4.48,1.68,8.31,8.31,0,0,0,3.48-.58,7.26,7.26,0,0,0,2.23-1.66,2.36,2.36,0,0,1,.65-.5,1.91,1.91,0,0,1,.79-.13h1.35a1.25,1.25,0,0,1,.89.35,1.05,1.05,0,0,1,.32.86,4.86,4.86,0,0,1-1.33,2.49,8.68,8.68,0,0,1-3.28,2.16,13.27,13.27,0,0,1-5.1.88,9.86,9.86,0,0,1-5.13-1.33,9.66,9.66,0,0,1-3.57-3.66,12.85,12.85,0,0,1-1.6-5.26q-.09-1.35-.09-2.07t.09-2.07a12,12,0,0,1,1.6-5,9.85,9.85,0,0,1,3.55-3.56,10,10,0,0,1,5.15-1.3A9.78,9.78,0,0,1,244,118.71Zm-1.26,7v-.14a5.75,5.75,0,0,0-1.73-4.38,6.41,6.41,0,0,0-4.61-1.64,6.32,6.32,0,0,0-4.43,1.66,5.75,5.75,0,0,0-1.87,4.36v.14Z"/><path class="cls-1" d="M269.1,116.46a1.19,1.19,0,0,1,.35.85v1.44a1.21,1.21,0,0,1-.35.86,1.2,1.2,0,0,1-.86.36h-7.78v18.3a1.23,1.23,0,0,1-1.21,1.21h-1.67a1.23,1.23,0,0,1-1.21-1.21V120h-7.78a1.16,1.16,0,0,1-.85-.36,1.18,1.18,0,0,1-.36-.86v-1.44a1.23,1.23,0,0,1,1.21-1.21h19.65A1.2,1.2,0,0,1,269.1,116.46Z"/><path class="cls-1" d="M273.55,127.57a1.18,1.18,0,0,1-.36-.86v-1.44a1.23,1.23,0,0,1,1.21-1.21h13.26a1.18,1.18,0,0,1,.86.36,1.16,1.16,0,0,1,.36.85v1.44a1.21,1.21,0,0,1-1.22,1.21H274.4A1.15,1.15,0,0,1,273.55,127.57Z"/><path class="cls-1" d="M314,117a1.64,1.64,0,0,1,.58-.63,1.92,1.92,0,0,1,1.08-.27h1.48a1.18,1.18,0,0,1,.86.36,1.16,1.16,0,0,1,.36.85v21a1.16,1.16,0,0,1-.36.85,1.18,1.18,0,0,1-.86.36h-1.66a1.23,1.23,0,0,1-1.21-1.21V124.73l-5.31,9.8a1.7,1.7,0,0,1-1.57,1.13h-1.08a1.77,1.77,0,0,1-1.58-1.13l-5.3-9.8v13.54a1.16,1.16,0,0,1-.36.85,1.18,1.18,0,0,1-.86.36h-1.66a1.23,1.23,0,0,1-1.21-1.21v-21a1.23,1.23,0,0,1,1.21-1.21H298a1.92,1.92,0,0,1,1.08.27,1.67,1.67,0,0,1,.59.63l7.15,13.49Z"/><path class="cls-1" d="M339,124.69v-.59a4.1,4.1,0,0,0-1.46-3.39,5.84,5.84,0,0,0-3.8-1.19,5.53,5.53,0,0,0-2.81.6A7,7,0,0,0,329,122a1.45,1.45,0,0,1-.58.49,2.25,2.25,0,0,1-.86.13H326.2a1.2,1.2,0,0,1-.88-.36,1,1,0,0,1-.34-.85,4.7,4.7,0,0,1,1.33-2.67,8.85,8.85,0,0,1,3.17-2.19,10.68,10.68,0,0,1,4.22-.85,9.69,9.69,0,0,1,6.77,2.34,8.42,8.42,0,0,1,2.59,6.56v13.72a1.16,1.16,0,0,1-.36.85,1.18,1.18,0,0,1-.86.36h-1.66a1.18,1.18,0,0,1-.86-.36,1.16,1.16,0,0,1-.36-.85v-1.85a5.25,5.25,0,0,1-3,2.57,12.41,12.41,0,0,1-4.68.94,9.7,9.7,0,0,1-4.09-.83,6.61,6.61,0,0,1-2.77-2.27,5.71,5.71,0,0,1-1-3.24,6.25,6.25,0,0,1,2.52-5.28,14.74,14.74,0,0,1,6.69-2.59Zm0,3.6-5.3.85a12.22,12.22,0,0,0-4.54,1.46,3,3,0,0,0-1.62,2.54,2.63,2.63,0,0,0,1,2,4.7,4.7,0,0,0,3.15.9,7.5,7.5,0,0,0,5.26-1.84,6.19,6.19,0,0,0,2-4.81Z"/><path class="cls-1" d="M367.25,116.46a1.16,1.16,0,0,1,.36.85v1.44a1.23,1.23,0,0,1-1.22,1.22H353.31v18.3a1.16,1.16,0,0,1-.36.85,1.18,1.18,0,0,1-.86.36h-1.66a1.14,1.14,0,0,1-.85-.36,1.16,1.16,0,0,1-.36-.85v-21a1.16,1.16,0,0,1,.36-.85,1.14,1.14,0,0,1,.85-.36h16A1.18,1.18,0,0,1,367.25,116.46Z"/><path class="cls-1" d="M385.41,124.69v-.59a4.12,4.12,0,0,0-1.46-3.39,5.85,5.85,0,0,0-3.8-1.19,5.51,5.51,0,0,0-2.81.6,6.82,6.82,0,0,0-1.91,1.83,1.48,1.48,0,0,1-.59.49,2.2,2.2,0,0,1-.85.13h-1.35a1.22,1.22,0,0,1-.88-.36,1,1,0,0,1-.33-.85,4.74,4.74,0,0,1,1.32-2.67,8.94,8.94,0,0,1,3.17-2.19,10.72,10.72,0,0,1,4.23-.85,9.71,9.71,0,0,1,6.77,2.34,8.41,8.41,0,0,1,2.58,6.56v13.72a1.23,1.23,0,0,1-1.21,1.21h-1.67a1.23,1.23,0,0,1-1.21-1.21v-1.85a5.27,5.27,0,0,1-3.06,2.57,12.4,12.4,0,0,1-4.67.94,9.75,9.75,0,0,1-4.1-.83,6.58,6.58,0,0,1-2.76-2.27,5.64,5.64,0,0,1-1-3.24,6.25,6.25,0,0,1,2.52-5.28,14.78,14.78,0,0,1,6.7-2.59Zm0,3.6-5.31.85a12.28,12.28,0,0,0-4.54,1.46,3,3,0,0,0-1.62,2.54,2.64,2.64,0,0,0,1,2,4.7,4.7,0,0,0,3.15.9,7.52,7.52,0,0,0,5.26-1.84,6.23,6.23,0,0,0,2-4.81Z"/><path class="cls-1" d="M409.33,132.87a2.58,2.58,0,0,0-1.37-2.4,7.2,7.2,0,0,0-3.62-.79h-3.51a1.16,1.16,0,0,1-.85-.36,1.18,1.18,0,0,1-.36-.86V127a1.18,1.18,0,0,1,.36-.86,1.16,1.16,0,0,1,.85-.36h3.55a6,6,0,0,0,3.26-.81,2.59,2.59,0,0,0,1.28-2.34,2.56,2.56,0,0,0-1.37-2.36,7.16,7.16,0,0,0-3.57-.78,6.78,6.78,0,0,0-3.15.6,4.35,4.35,0,0,0-1.8,2c-.39.8-.88,1.21-1.48,1.21H396.2a1.26,1.26,0,0,1-.88-.36,1,1,0,0,1-.33-.85,6,6,0,0,1,1.14-3.2,7.33,7.33,0,0,1,3.08-2.38,11.67,11.67,0,0,1,4.77-.9,10.94,10.94,0,0,1,6.49,1.8,6,6,0,0,1,2.55,5.21,6.29,6.29,0,0,1-2.12,4.91,6.15,6.15,0,0,1,2.52,5.3q0,3.74-2.59,5.4a12.47,12.47,0,0,1-6.85,1.66,11.75,11.75,0,0,1-6.88-1.73,5.52,5.52,0,0,1-2.56-4.29,1,1,0,0,1,.33-.86,1.26,1.26,0,0,1,.88-.36h1.35a1.24,1.24,0,0,1,.81.25,2.88,2.88,0,0,1,.67,1,3.4,3.4,0,0,0,2,1.73,11.44,11.44,0,0,0,3.42.42C407.54,136.06,409.33,135,409.33,132.87Z"/><path class="cls-1" d="M436.26,139.12a1.16,1.16,0,0,1-.36-.85V123.2L422.82,139a1.15,1.15,0,0,1-1,.49H420.3a1.08,1.08,0,0,1-.83-.36,1.18,1.18,0,0,1-.34-.85v-21a1.23,1.23,0,0,1,1.21-1.21H422a1.23,1.23,0,0,1,1.21,1.21v15.2l13.08-15.92a2,2,0,0,1,.43-.38,1.24,1.24,0,0,1,.56-.11h1.49a1.23,1.23,0,0,1,1.21,1.21v21a1.23,1.23,0,0,1-1.21,1.21h-1.67A1.16,1.16,0,0,1,436.26,139.12Z"/><path class="cls-1" d="M467.24,116.46a1.16,1.16,0,0,1,.36.85v21a1.16,1.16,0,0,1-.36.85,1.18,1.18,0,0,1-.86.36h-1.66a1.23,1.23,0,0,1-1.21-1.21V129.5H450.83v8.77a1.16,1.16,0,0,1-.36.85,1.18,1.18,0,0,1-.86.36H448a1.16,1.16,0,0,1-.85-.34,1.12,1.12,0,0,1-.36-.87v-21a1.16,1.16,0,0,1,.36-.85,1.14,1.14,0,0,1,.85-.36h1.66a1.18,1.18,0,0,1,.86.36,1.16,1.16,0,0,1,.36.85v8.32h12.68v-8.32a1.23,1.23,0,0,1,1.21-1.21h1.66A1.18,1.18,0,0,1,467.24,116.46Z"/><path class="cls-1" d="M500.82,132.56a2.87,2.87,0,0,1,.63-.95,1.28,1.28,0,0,1,.86-.27h1.35a1.18,1.18,0,0,1,.85.34,1,1,0,0,1,.36.79,5.84,5.84,0,0,1-1.21,3.28,9.64,9.64,0,0,1-3.51,3,11.38,11.38,0,0,1-5.4,1.21,10.89,10.89,0,0,1-5.53-1.35,9.22,9.22,0,0,1-3.59-3.71,12.24,12.24,0,0,1-1.4-5.28c0-.36,0-1.05,0-2.07,0-.72,0-1.23,0-1.53a12.09,12.09,0,0,1,3.11-7.46,9.65,9.65,0,0,1,7.41-2.88,11.51,11.51,0,0,1,5.38,1.19,9.53,9.53,0,0,1,3.46,2.92,6.61,6.61,0,0,1,1.28,3.26,1,1,0,0,1-.34.86,1.22,1.22,0,0,1-.87.36h-1.35a1.28,1.28,0,0,1-.86-.27,2.87,2.87,0,0,1-.63-1q-1.57-3.49-6.07-3.5a6.23,6.23,0,0,0-4.31,1.66,7.23,7.23,0,0,0-2.11,5,15.83,15.83,0,0,0-.05,1.61,14.52,14.52,0,0,0,.05,1.53,7.47,7.47,0,0,0,2.13,5,6.15,6.15,0,0,0,4.29,1.66Q499.25,136.06,500.82,132.56Z"/><path class="cls-1" d="M524.16,124.69v-.59a4.12,4.12,0,0,0-1.46-3.39,5.85,5.85,0,0,0-3.8-1.19,5.51,5.51,0,0,0-2.81.6,6.82,6.82,0,0,0-1.91,1.83,1.48,1.48,0,0,1-.59.49,2.2,2.2,0,0,1-.85.13h-1.35a1.22,1.22,0,0,1-.88-.36,1,1,0,0,1-.33-.85,4.74,4.74,0,0,1,1.32-2.67,8.94,8.94,0,0,1,3.17-2.19,10.72,10.72,0,0,1,4.23-.85,9.71,9.71,0,0,1,6.77,2.34,8.41,8.41,0,0,1,2.58,6.56v13.72a1.23,1.23,0,0,1-1.21,1.21h-1.67a1.23,1.23,0,0,1-1.21-1.21v-1.85A5.27,5.27,0,0,1,521.1,139a12.4,12.4,0,0,1-4.67.94,9.75,9.75,0,0,1-4.1-.83,6.58,6.58,0,0,1-2.76-2.27,5.64,5.64,0,0,1-1-3.24,6.25,6.25,0,0,1,2.52-5.28,14.78,14.78,0,0,1,6.7-2.59Zm0,3.6-5.31.85a12.28,12.28,0,0,0-4.54,1.46,3,3,0,0,0-1.62,2.54,2.64,2.64,0,0,0,1,2,4.7,4.7,0,0,0,3.15.9,7.52,7.52,0,0,0,5.26-1.84,6.23,6.23,0,0,0,2-4.81Z"/><path class="cls-1" d="M555.32,116.46a1.16,1.16,0,0,1,.36.85v21a1.16,1.16,0,0,1-.36.85,1.18,1.18,0,0,1-.86.36H552.8a1.14,1.14,0,0,1-.85-.36,1.12,1.12,0,0,1-.36-.85V129.5H538.91v8.77a1.16,1.16,0,0,1-.36.85,1.18,1.18,0,0,1-.86.36H536a1.2,1.2,0,0,1-.86-.34,1.12,1.12,0,0,1-.36-.87v-21a1.16,1.16,0,0,1,.36-.85,1.18,1.18,0,0,1,.86-.36h1.66a1.18,1.18,0,0,1,.86.36,1.16,1.16,0,0,1,.36.85v8.32h12.68v-8.32a1.12,1.12,0,0,1,.36-.85,1.14,1.14,0,0,1,.85-.36h1.66A1.18,1.18,0,0,1,555.32,116.46Z"/><path class="cls-1" d="M580.9,116.46a1.16,1.16,0,0,1,.36.85v1.44a1.18,1.18,0,0,1-.36.86,1.16,1.16,0,0,1-.85.36h-7.78v18.3a1.16,1.16,0,0,1-.36.85,1.18,1.18,0,0,1-.86.36h-1.66a1.23,1.23,0,0,1-1.21-1.21V120H560.4a1.23,1.23,0,0,1-1.22-1.22v-1.44a1.16,1.16,0,0,1,.36-.85,1.18,1.18,0,0,1,.86-.36h19.65A1.16,1.16,0,0,1,580.9,116.46Z"/><path class="cls-1" d="M601.63,118.71q2.79,3.06,2.79,8.32v1.21a1.16,1.16,0,0,1-.36.85,1.18,1.18,0,0,1-.86.36H587.74v.27a6.48,6.48,0,0,0,1.82,4.66,6.14,6.14,0,0,0,4.47,1.68,8.31,8.31,0,0,0,3.48-.58,7.26,7.26,0,0,0,2.23-1.66,2.52,2.52,0,0,1,.65-.5,1.94,1.94,0,0,1,.79-.13h1.35a1.25,1.25,0,0,1,.9.35,1,1,0,0,1,.31.86,4.91,4.91,0,0,1-1.32,2.49,8.72,8.72,0,0,1-3.29,2.16,13.27,13.27,0,0,1-5.1.88,9.86,9.86,0,0,1-5.13-1.33,9.73,9.73,0,0,1-3.57-3.66,13,13,0,0,1-1.6-5.26q-.09-1.35-.09-2.07t.09-2.07a12.11,12.11,0,0,1,1.6-5,9.85,9.85,0,0,1,3.55-3.56,10,10,0,0,1,5.15-1.3A9.77,9.77,0,0,1,601.63,118.71Zm-1.26,7v-.14a5.75,5.75,0,0,0-1.73-4.38,6.41,6.41,0,0,0-4.61-1.64,6.33,6.33,0,0,0-4.43,1.66,5.74,5.74,0,0,0-1.86,4.36v.14Z"/><path class="cls-1" d="M612.37,138.63a4.36,4.36,0,0,1-.63.6,1.23,1.23,0,0,1-.8.25h-2.07a1,1,0,0,1-.77-.31,1,1,0,0,1-.31-.72,1.11,1.11,0,0,1,.18-.63l8.23-10.3-7.78-9.76a1.11,1.11,0,0,1-.18-.63,1,1,0,0,1,.31-.71,1.06,1.06,0,0,1,.77-.32h2.15a1.24,1.24,0,0,1,.81.25,4.36,4.36,0,0,1,.63.6l6,7.51,5.94-7.51a4.36,4.36,0,0,1,.63-.6,1.24,1.24,0,0,1,.81-.25h2.07a1,1,0,0,1,.76.32,1,1,0,0,1,.31.71,1.11,1.11,0,0,1-.18.63l-7.82,9.85,8.14,10.21a1.11,1.11,0,0,1,.18.63,1,1,0,0,1-.32.72,1,1,0,0,1-.76.31h-2.16a1.24,1.24,0,0,1-.81-.25,4.36,4.36,0,0,1-.63-.6l-6.34-8Z"/><path class="cls-1" d="M655,116.46a1.16,1.16,0,0,1,.36.85v21a1.16,1.16,0,0,1-.36.85,1.18,1.18,0,0,1-.86.36h-1.66a1.18,1.18,0,0,1-.86-.36,1.15,1.15,0,0,1-.35-.85V129.5H638.59v8.77a1.16,1.16,0,0,1-.36.85,1.18,1.18,0,0,1-.86.36h-1.66a1.2,1.2,0,0,1-.86-.34,1.12,1.12,0,0,1-.36-.87v-21a1.16,1.16,0,0,1,.36-.85,1.18,1.18,0,0,1,.86-.36h1.66a1.18,1.18,0,0,1,.86.36,1.16,1.16,0,0,1,.36.85v8.32h12.68v-8.32a1.15,1.15,0,0,1,.35-.85,1.18,1.18,0,0,1,.86-.36h1.66A1.18,1.18,0,0,1,655,116.46Z"/><path class="cls-1" d="M679.23,139.12a1.16,1.16,0,0,1-.36-.85V123.2L665.79,139a1.15,1.15,0,0,1-1,.49h-1.53a1.08,1.08,0,0,1-.83-.36,1.18,1.18,0,0,1-.34-.85v-21a1.23,1.23,0,0,1,1.21-1.21H665a1.23,1.23,0,0,1,1.21,1.21v15.2l13.09-15.92a2,2,0,0,1,.42-.38,1.28,1.28,0,0,1,.57-.11h1.48a1.23,1.23,0,0,1,1.21,1.21v21a1.23,1.23,0,0,1-1.21,1.21h-1.66A1.18,1.18,0,0,1,679.23,139.12Z"/><path class="cls-1" d="M703.15,116.86a2.66,2.66,0,0,1,1.75-.76h2.16a1.06,1.06,0,0,1,.77.32,1,1,0,0,1,.31.76,1.15,1.15,0,0,1-.49.9l-10.88,9.53,12,9.94a1.05,1.05,0,0,1,.13,1.62,1,1,0,0,1-.76.31h-2.34a2.8,2.8,0,0,1-1.84-.76l-10.12-8.41v8a1.16,1.16,0,0,1-.36.85,1.18,1.18,0,0,1-.86.36h-1.66a1.23,1.23,0,0,1-1.21-1.21v-21a1.23,1.23,0,0,1,1.21-1.21h1.66a1.18,1.18,0,0,1,.86.36,1.16,1.16,0,0,1,.36.85v7.78Z"/><path class="cls-1" d="M730.31,139.12a1.16,1.16,0,0,1-.36-.85V123.2L716.86,139a1.15,1.15,0,0,1-1,.49h-1.52a1.12,1.12,0,0,1-.84-.36,1.21,1.21,0,0,1-.33-.85v-21a1.23,1.23,0,0,1,1.21-1.21h1.66a1.18,1.18,0,0,1,.86.36,1.16,1.16,0,0,1,.36.85v15.2l13.08-15.92a1.8,1.8,0,0,1,.43-.38,1.21,1.21,0,0,1,.56-.11h1.49a1.23,1.23,0,0,1,1.21,1.21v21a1.23,1.23,0,0,1-1.21,1.21h-1.67A1.16,1.16,0,0,1,730.31,139.12Z"/><path class="cls-2" d="M518.84,22.2h.26a21.91,21.91,0,0,0,15.64-6.91,16.58,16.58,0,0,1,24.44-.16A21.06,21.06,0,0,0,574.62,22h.1a21.12,21.12,0,0,0,15.5-7c1-1.11-2.59-5.24-3.61-4.13a16.07,16.07,0,0,1-23.86.12,21.29,21.29,0,0,0-31.55.13A17,17,0,0,1,519,16.44a15.86,15.86,0,0,1-12-5.17c-1-1.11-4.63,3-3.61,4.13A20.74,20.74,0,0,0,518.84,22.2Z"/><path class="cls-2" d="M586.61,34.81a16,16,0,0,1-24,0,20.89,20.89,0,0,0-31.2,0c-6.72,7.28-17.88,7.48-24.38.44-1-1.11-4.63,3-3.61,4.12a20.73,20.73,0,0,0,15.39,6.81h.46a22,22,0,0,0,15.75-7.23,16,16,0,0,1,24,0,20.89,20.89,0,0,0,31.2,0C591.25,37.83,587.63,33.7,586.61,34.81Z"/><path class="cls-2" d="M586.61,58.76a16,16,0,0,1-24,0,20.89,20.89,0,0,0-31.2,0c-6.72,7.29-17.88,7.48-24.38.44-1-1.11-4.63,3-3.61,4.12a20.73,20.73,0,0,0,15.39,6.81h.46a22,22,0,0,0,15.75-7.23,16,16,0,0,1,24,0,20.89,20.89,0,0,0,31.2,0C591.25,61.78,587.63,57.65,586.61,58.76Z"/></g></g></g></svg>