<svg xmlns="http://www.w3.org/2000/svg" viewBox="0 0 444.85 276.9"><defs><style>.cls-1{fill:#ff9600;stroke:#ff9600;stroke-miterlimit:10;stroke-width:9px;}.cls-2{fill:#0c5da5;}</style></defs><title>Ресурс 5</title><g id="Слой_2" data-name="Слой 2"><g id="SM_Blue"><path class="cls-1" d="M36.29,108.45h.51a44.77,44.77,0,0,0,31.94-14.1A33.82,33.82,0,0,1,118.62,94a43,43,0,0,0,31.52,14h.21A43.11,43.11,0,0,0,182,93.69c2.09-2.27-5.29-10.69-7.38-8.43a32.79,32.79,0,0,1-48.69.25c-17.56-19-46.85-18.78-64.41.26A34.76,34.76,0,0,1,36.69,96.69,32.35,32.35,0,0,1,12.24,86.15c-2.09-2.27-9.46,6.15-7.37,8.42A42.3,42.3,0,0,0,36.29,108.45Z"/><path class="cls-1" d="M174.61,134.19c-13.49,14.64-35.44,14.64-48.93,0-17.56-19-46.13-19-63.69,0-13.7,14.87-36.48,15.27-49.75.89-2.09-2.27-9.46,6.15-7.37,8.42a42.25,42.25,0,0,0,31.41,13.89h.94a44.81,44.81,0,0,0,32.15-14.76c13.49-14.64,35.44-14.64,48.93,0,17.56,19,46.13,19,63.69,0C184.08,140.35,176.7,131.93,174.61,134.19Z"/><path class="cls-1" d="M174.61,183.08c-13.49,14.64-35.44,14.64-48.93,0-17.56-19-46.13-19-63.69,0C48.29,198,25.51,198.35,12.24,184c-2.09-2.27-9.46,6.15-7.37,8.42a42.25,42.25,0,0,0,31.41,13.89h.94a44.81,44.81,0,0,0,32.15-14.76c13.49-14.64,35.44-14.64,48.93,0,17.56,19,46.13,19,63.69,0C184.08,189.24,176.7,180.82,174.61,183.08Z"/><path class="cls-2" d="M257.48,0a36.39,36.39,0,0,1,12.11,1.85,29.93,29.93,0,0,1,8.73,4.62,20,20,0,0,1,5.29,6.11,15.85,15.85,0,0,1,2,6.31,2.27,2.27,0,0,1-.77,2,2.9,2.9,0,0,1-2,.77h-7.19A4.3,4.3,0,0,1,273,21a7.06,7.06,0,0,1-1.59-1.8,13.5,13.5,0,0,0-4.67-4.47c-2.09-1.26-5.19-1.9-9.29-1.9a22.12,22.12,0,0,0-5.09.57A14.67,14.67,0,0,0,248.18,15a8.7,8.7,0,0,0-2.82,2.62,6.19,6.19,0,0,0-1,3.49,6.89,6.89,0,0,0,1,3.85,7.71,7.71,0,0,0,3.29,2.57,33.74,33.74,0,0,0,6.1,2q3.81.93,9.45,2.16a66.2,66.2,0,0,1,10.63,3.13,24.92,24.92,0,0,1,7.29,4.31,16.22,16.22,0,0,1,4.21,5.8,19.22,19.22,0,0,1,1.38,7.5A18.28,18.28,0,0,1,285.61,61a19.79,19.79,0,0,1-5.85,6.78,29.65,29.65,0,0,1-9.35,4.46A43.47,43.47,0,0,1,258,73.93a43,43,0,0,1-11-1.39,32.17,32.17,0,0,1-9.29-4,22.25,22.25,0,0,1-6.52-6.32A16.54,16.54,0,0,1,228.42,54a2.3,2.3,0,0,1,.77-2,3,3,0,0,1,2-.77h7.19a4.84,4.84,0,0,1,2.67.62,4.71,4.71,0,0,1,1.54,1.85,20.22,20.22,0,0,0,1.74,2.67,9.48,9.48,0,0,0,2.78,2.36,16.33,16.33,0,0,0,4.36,1.69,26.67,26.67,0,0,0,6.52.67,37.17,37.17,0,0,0,5.95-.46,17.45,17.45,0,0,0,5-1.54,10.86,10.86,0,0,0,3.49-2.67,5.94,5.94,0,0,0,1.33-4,5,5,0,0,0-1.44-3.7A11.44,11.44,0,0,0,268,46.31a58.33,58.33,0,0,0-7.24-2q-4.31-.93-10-2.37a53.23,53.23,0,0,1-9-2.92,21.25,21.25,0,0,1-6.37-4.16,15.5,15.5,0,0,1-3.74-5.8,22.83,22.83,0,0,1-1.24-8,18,18,0,0,1,2.06-8.52A20.15,20.15,0,0,1,238.17,6a27.73,27.73,0,0,1,8.58-4.37A35.06,35.06,0,0,1,257.48,0Z"/><path class="cls-2" d="M332.12,1a3.22,3.22,0,0,1,2.46.87A7.31,7.31,0,0,1,336,4.52l25.16,64.89a2.5,2.5,0,0,1,.1.72,2.8,2.8,0,0,1-2.77,2.77h-7.39a3.87,3.87,0,0,1-2.88-.87,5.23,5.23,0,0,1-1.13-1.7l-4.41-11.4H310.25l-4.41,11.4a5.4,5.4,0,0,1-1.13,1.7,3.87,3.87,0,0,1-2.88.87h-7.39a2.8,2.8,0,0,1-2.77-2.77,2.2,2.2,0,0,1,.1-.72L316.93,4.52a7.31,7.31,0,0,1,1.43-2.62A3.24,3.24,0,0,1,320.83,1Zm5.65,45.07-11.3-29.26L315.18,46.1Z"/><path class="cls-2" d="M417.24,72.9a3.58,3.58,0,0,1-2.67-.93c-.62-.61-1.06-1.09-1.34-1.43L384.48,27.83v42.3a2.8,2.8,0,0,1-2.77,2.77h-8.32a2.8,2.8,0,0,1-2.77-2.77V3.8a2.66,2.66,0,0,1,.82-1.95A2.66,2.66,0,0,1,373.39,1h7.19a3.59,3.59,0,0,1,2.67.92c.62.62,1.06,1.1,1.34,1.44L413.34,46.1V3.8a2.66,2.66,0,0,1,.82-1.95A2.63,2.63,0,0,1,416.11,1h8.31a2.63,2.63,0,0,1,1.95.82,2.67,2.67,0,0,1,.83,1.95V70.13a2.67,2.67,0,0,1-.83,2,2.63,2.63,0,0,1-1.95.82Z"/><path class="cls-2" d="M266.51,139.68,286,105.8c.27-.34.73-.89,1.39-1.64a3.75,3.75,0,0,1,3-1.13h7a2.66,2.66,0,0,1,1.95.82,2.7,2.7,0,0,1,.82,2v66.33a2.7,2.7,0,0,1-.82,2,2.66,2.66,0,0,1-1.95.82H289.1a2.8,2.8,0,0,1-2.77-2.77V132L273,155.08a8.51,8.51,0,0,1-1.44,1.7,3.29,3.29,0,0,1-2.36.87h-5.34a3.31,3.31,0,0,1-2.36-.87,8.86,8.86,0,0,1-1.44-1.7L246.7,132v40.15a2.67,2.67,0,0,1-.83,2,2.63,2.63,0,0,1-2,.82h-8.31a2.63,2.63,0,0,1-2-.82,2.67,2.67,0,0,1-.83-2V105.8a2.67,2.67,0,0,1,.83-2,2.63,2.63,0,0,1,2-.82h7a3.77,3.77,0,0,1,3,1.13c.65.75,1.11,1.3,1.38,1.64Z"/><path class="cls-2" d="M350,103a3.24,3.24,0,0,1,2.46.87,7.31,7.31,0,0,1,1.44,2.62L379,171.41a2.2,2.2,0,0,1,.1.72,2.8,2.8,0,0,1-2.77,2.77H369a3.87,3.87,0,0,1-2.88-.87,5.19,5.19,0,0,1-1.12-1.7l-4.42-11.4H328.12l-4.42,11.4a5.07,5.07,0,0,1-1.13,1.7,3.86,3.86,0,0,1-2.87.87h-7.4a2.8,2.8,0,0,1-2.77-2.77,2.5,2.5,0,0,1,.1-.72l25.16-64.89a7.31,7.31,0,0,1,1.44-2.62,3.22,3.22,0,0,1,2.46-.87Zm5.64,45.07-11.29-29.26L333,148.1Z"/><path class="cls-2" d="M417.75,103q12.84,0,19.51,6t6.67,16.53a22.93,22.93,0,0,1-3.44,12.78,20.28,20.28,0,0,1-10.11,7.86l14.17,25.36a2.62,2.62,0,0,1,.3,1.13,2.27,2.27,0,0,1-2.25,2.26h-8.73a4.13,4.13,0,0,1-3-1,7.58,7.58,0,0,1-1.39-1.79L416,148.2H402.35v23.93a2.7,2.7,0,0,1-.82,2,2.66,2.66,0,0,1-1.95.82h-8.32a2.8,2.8,0,0,1-2.77-2.77V105.8a2.8,2.8,0,0,1,2.77-2.77Zm-15.4,32.34h14.89q5.85,0,9.34-2.05t3.49-7.81q0-5.74-3.49-7.7a19.16,19.16,0,0,0-9.34-2H402.35Z"/><path class="cls-2" d="M287.35,272.59a2.12,2.12,0,0,1,.62.92,2.73,2.73,0,0,1,.1.62,2.8,2.8,0,0,1-2.77,2.77h-9.75a4.81,4.81,0,0,1-3.29-1.08l-1.44-1.28L246.7,247.33v26.8a2.67,2.67,0,0,1-.83,1.95,2.63,2.63,0,0,1-2,.82h-8.31a2.63,2.63,0,0,1-2-.82,2.67,2.67,0,0,1-.83-1.95V207.8a2.67,2.67,0,0,1,.83-2,2.63,2.63,0,0,1,2-.82h8.31a2.63,2.63,0,0,1,2,.82,2.67,2.67,0,0,1,.83,2v24.13l22.38-24.64a8.23,8.23,0,0,1,1.95-1.65,5.12,5.12,0,0,1,2.67-.61h9.44a2.67,2.67,0,0,1,2,.82,2.7,2.7,0,0,1,.82,2,2.33,2.33,0,0,1-.62,1.54l-27.62,30.08Z"/><path class="cls-2" d="M345.16,264.06a2.67,2.67,0,0,1,1.95.83,2.63,2.63,0,0,1,.82,1.95v7.29a2.8,2.8,0,0,1-2.77,2.77H300.09a2.67,2.67,0,0,1-2-.82,2.7,2.7,0,0,1-.82-1.95V207.8a2.7,2.7,0,0,1,.82-2,2.67,2.67,0,0,1,2-.82h44.25a2.8,2.8,0,0,1,2.77,2.77v7.29a2.8,2.8,0,0,1-2.77,2.77H311.17v16.33h30.91a2.8,2.8,0,0,1,2.77,2.77v7.29a2.8,2.8,0,0,1-2.77,2.77H311.17v17Z"/><path class="cls-2" d="M408.51,205a2.8,2.8,0,0,1,2.77,2.77v7.29a2.8,2.8,0,0,1-2.77,2.77H390v56.27a2.67,2.67,0,0,1-.83,1.95,2.63,2.63,0,0,1-1.95.82h-8.31a2.63,2.63,0,0,1-1.95-.82,2.66,2.66,0,0,1-.82-1.95V217.86H357.68a2.8,2.8,0,0,1-2.77-2.77V207.8a2.8,2.8,0,0,1,2.77-2.77Z"/></g></g></svg>